<?xml version="1.0" standalone="no"?>
 <!DOCTYPE svg PUBLIC "-//W3C//DTD SVG 1.1//EN" 
 "http://www.w3.org/Graphics/SVG/1.1/DTD/svg11.dtd"> 
<svg
  xmlns:svg="http://www.w3.org/2000/svg"
  xmlns="http://www.w3.org/2000/svg"
  xmlns:xlink="http://www.w3.org/1999/xlink"
  version="1.1"
  width="149.9870mm" height="299.9994mm" viewBox="0.0000 0.0000 149.9870 299.9994">
<title>SVG Image created as MONGO_PCB-PTH-drl_map.svg date 2026/02/24 13:09:34 </title>
  <desc>Image generated by PCBNEW </desc>
<g style="fill:#000000; fill-opacity:1.0000;stroke:#000000; stroke-opacity:1.0000;
stroke-linecap:round; stroke-linejoin:round;"
 transform="translate(0 0) scale(1 1)">
<path style="fill:none; 
stroke:#000000; stroke-width:0.0356; stroke-opacity:1; 
stroke-linecap:round; stroke-linejoin:round;fill:none"
d="M 28.8926,5.0178
121.1074,5.0178
121.1074,174.9822
28.8926,174.9822
Z" /> 
</g>
<g style="fill:none; 
stroke:#000000; stroke-width:0.0712; stroke-opacity:1; 
stroke-linecap:round; stroke-linejoin:round;">
<path d="M35.7692 15.5107
L36.4811 16.2225
" />
<path d="M36.4811 15.5107
L35.7692 16.2225
" />
<path d="M35.7692 28.1676
L36.4811 28.8794
" />
<path d="M36.4811 28.1676
L35.7692 28.8794
" />
<path d="M35.7692 40.8245
L36.4811 41.5364
" />
<path d="M36.4811 40.8245
L35.7692 41.5364
" />
<path d="M35.7692 53.4814
L36.4811 54.1933
" />
<path d="M36.4811 53.4814
L35.7692 54.1933
" />
<path d="M35.7692 66.1384
L36.4811 66.8502
" />
<path d="M36.4811 66.1384
L35.7692 66.8502
" />
<path d="M35.7692 78.7953
L36.4811 79.5071
" />
<path d="M36.4811 78.7953
L35.7692 79.5071
" />
<path d="M35.7692 91.4522
L36.4811 92.1641
" />
<path d="M36.4811 91.4522
L35.7692 92.1641
" />
<path d="M35.7692 104.1091
L36.4811 104.8210
" />
<path d="M36.4811 104.1091
L35.7692 104.8210
" />
<path d="M35.7692 116.7660
L36.4811 117.4779
" />
<path d="M36.4811 116.7660
L35.7692 117.4779
" />
<path d="M35.7692 129.4230
L36.4811 130.1348
" />
<path d="M36.4811 129.4230
L35.7692 130.1348
" />
<path d="M37.5774 15.5107
L38.2892 16.2225
" />
<path d="M38.2892 15.5107
L37.5774 16.2225
" />
<path d="M37.5774 28.1676
L38.2892 28.8794
" />
<path d="M38.2892 28.1676
L37.5774 28.8794
" />
<path d="M37.5774 40.8245
L38.2892 41.5364
" />
<path d="M38.2892 40.8245
L37.5774 41.5364
" />
<path d="M37.5774 53.4814
L38.2892 54.1933
" />
<path d="M38.2892 53.4814
L37.5774 54.1933
" />
<path d="M37.5774 66.1384
L38.2892 66.8502
" />
<path d="M38.2892 66.1384
L37.5774 66.8502
" />
<path d="M37.5774 78.7953
L38.2892 79.5071
" />
<path d="M38.2892 78.7953
L37.5774 79.5071
" />
<path d="M37.5774 91.4522
L38.2892 92.1641
" />
<path d="M38.2892 91.4522
L37.5774 92.1641
" />
<path d="M37.5774 104.1091
L38.2892 104.8210
" />
<path d="M38.2892 104.1091
L37.5774 104.8210
" />
<path d="M37.5774 116.7660
L38.2892 117.4779
" />
<path d="M38.2892 116.7660
L37.5774 117.4779
" />
<path d="M37.5774 129.4230
L38.2892 130.1348
" />
<path d="M38.2892 129.4230
L37.5774 130.1348
" />
<path d="M39.3855 15.5107
L40.0974 16.2225
" />
<path d="M40.0974 15.5107
L39.3855 16.2225
" />
<path d="M39.3855 28.1676
L40.0974 28.8794
" />
<path d="M40.0974 28.1676
L39.3855 28.8794
" />
<path d="M39.3855 40.8245
L40.0974 41.5364
" />
<path d="M40.0974 40.8245
L39.3855 41.5364
" />
<path d="M39.3855 53.4814
L40.0974 54.1933
" />
<path d="M40.0974 53.4814
L39.3855 54.1933
" />
<path d="M39.3855 66.1384
L40.0974 66.8502
" />
<path d="M40.0974 66.1384
L39.3855 66.8502
" />
<path d="M39.3855 78.7953
L40.0974 79.5071
" />
<path d="M40.0974 78.7953
L39.3855 79.5071
" />
<path d="M39.3855 91.4522
L40.0974 92.1641
" />
<path d="M40.0974 91.4522
L39.3855 92.1641
" />
<path d="M39.3855 104.1091
L40.0974 104.8210
" />
<path d="M40.0974 104.1091
L39.3855 104.8210
" />
<path d="M39.3855 116.7660
L40.0974 117.4779
" />
<path d="M40.0974 116.7660
L39.3855 117.4779
" />
<path d="M39.3855 129.4230
L40.0974 130.1348
" />
<path d="M40.0974 129.4230
L39.3855 130.1348
" />
<path d="M41.1936 15.5107
L41.9055 16.2225
" />
<path d="M41.9055 15.5107
L41.1936 16.2225
" />
<path d="M41.1936 28.1676
L41.9055 28.8794
" />
<path d="M41.9055 28.1676
L41.1936 28.8794
" />
<path d="M41.1936 40.8245
L41.9055 41.5364
" />
<path d="M41.9055 40.8245
L41.1936 41.5364
" />
<path d="M41.1936 53.4814
L41.9055 54.1933
" />
<path d="M41.9055 53.4814
L41.1936 54.1933
" />
<path d="M41.1936 66.1384
L41.9055 66.8502
" />
<path d="M41.9055 66.1384
L41.1936 66.8502
" />
<path d="M41.1936 78.7953
L41.9055 79.5071
" />
<path d="M41.9055 78.7953
L41.1936 79.5071
" />
<path d="M41.1936 91.4522
L41.9055 92.1641
" />
<path d="M41.9055 91.4522
L41.1936 92.1641
" />
<path d="M41.1936 104.1091
L41.9055 104.8210
" />
<path d="M41.9055 104.1091
L41.1936 104.8210
" />
<path d="M41.1936 116.7660
L41.9055 117.4779
" />
<path d="M41.9055 116.7660
L41.1936 117.4779
" />
<path d="M41.1936 129.4230
L41.9055 130.1348
" />
<path d="M41.9055 129.4230
L41.1936 130.1348
" />
<path d="M43.0018 145.6962
L43.7136 146.4080
" />
<path d="M43.7136 145.6962
L43.0018 146.4080
" />
<path d="M44.8099 145.6962
L45.5218 146.4080
" />
<path d="M45.5218 145.6962
L44.8099 146.4080
" />
<path d="M46.6180 145.6962
L47.3299 146.4080
" />
<path d="M47.3299 145.6962
L46.6180 146.4080
" />
<path d="M48.4262 145.6962
L49.1380 146.4080
" />
<path d="M49.1380 145.6962
L48.4262 146.4080
" />
<path d="M50.2343 145.6962
L50.9461 146.4080
" />
<path d="M50.9461 145.6962
L50.2343 146.4080
" />
<path d="M50.2343 156.5450
L50.9461 157.2568
" />
<path d="M50.9461 156.5450
L50.2343 157.2568
" />
<path d="M52.0424 145.6962
L52.7543 146.4080
" />
<path d="M52.7543 145.6962
L52.0424 146.4080
" />
<path d="M52.0424 156.5450
L52.7543 157.2568
" />
<path d="M52.7543 156.5450
L52.0424 157.2568
" />
<path d="M53.8506 145.6962
L54.5624 146.4080
" />
<path d="M54.5624 145.6962
L53.8506 146.4080
" />
<path d="M53.8506 156.5450
L54.5624 157.2568
" />
<path d="M54.5624 156.5450
L53.8506 157.2568
" />
<path d="M55.6587 145.6962
L56.3705 146.4080
" />
<path d="M56.3705 145.6962
L55.6587 146.4080
" />
<path d="M55.6587 156.5450
L56.3705 157.2568
" />
<path d="M56.3705 156.5450
L55.6587 157.2568
" />
<path d="M57.4668 145.6962
L58.1787 146.4080
" />
<path d="M58.1787 145.6962
L57.4668 146.4080
" />
<path d="M57.4668 156.5450
L58.1787 157.2568
" />
<path d="M58.1787 156.5450
L57.4668 157.2568
" />
<path d="M59.2749 145.6962
L59.9868 146.4080
" />
<path d="M59.9868 145.6962
L59.2749 146.4080
" />
<path d="M59.2749 156.5450
L59.9868 157.2568
" />
<path d="M59.9868 156.5450
L59.2749 157.2568
" />
<path d="M61.0831 145.6962
L61.7949 146.4080
" />
<path d="M61.7949 145.6962
L61.0831 146.4080
" />
<path d="M61.0831 156.5450
L61.7949 157.2568
" />
<path d="M61.7949 156.5450
L61.0831 157.2568
" />
<path d="M62.8912 10.0863
L63.6031 10.7981
" />
<path d="M63.6031 10.0863
L62.8912 10.7981
" />
<path d="M62.8912 13.7025
L63.6031 14.4144
" />
<path d="M63.6031 13.7025
L62.8912 14.4144
" />
<path d="M62.8912 15.5107
L63.6031 16.2225
" />
<path d="M63.6031 15.5107
L62.8912 16.2225
" />
<path d="M62.8912 28.1676
L63.6031 28.8794
" />
<path d="M63.6031 28.1676
L62.8912 28.8794
" />
<path d="M62.8912 40.8245
L63.6031 41.5364
" />
<path d="M63.6031 40.8245
L62.8912 41.5364
" />
<path d="M62.8912 53.4814
L63.6031 54.1933
" />
<path d="M63.6031 53.4814
L62.8912 54.1933
" />
<path d="M62.8912 66.1384
L63.6031 66.8502
" />
<path d="M63.6031 66.1384
L62.8912 66.8502
" />
<path d="M62.8912 78.7953
L63.6031 79.5071
" />
<path d="M63.6031 78.7953
L62.8912 79.5071
" />
<path d="M62.8912 91.4522
L63.6031 92.1641
" />
<path d="M63.6031 91.4522
L62.8912 92.1641
" />
<path d="M62.8912 104.1091
L63.6031 104.8210
" />
<path d="M63.6031 104.1091
L62.8912 104.8210
" />
<path d="M62.8912 116.7660
L63.6031 117.4779
" />
<path d="M63.6031 116.7660
L62.8912 117.4779
" />
<path d="M62.8912 129.4230
L63.6031 130.1348
" />
<path d="M63.6031 129.4230
L62.8912 130.1348
" />
<path d="M62.8912 145.6962
L63.6031 146.4080
" />
<path d="M63.6031 145.6962
L62.8912 146.4080
" />
<path d="M62.8912 156.5450
L63.6031 157.2568
" />
<path d="M63.6031 156.5450
L62.8912 157.2568
" />
<path d="M64.6993 15.5107
L65.4112 16.2225
" />
<path d="M65.4112 15.5107
L64.6993 16.2225
" />
<path d="M64.6993 28.1676
L65.4112 28.8794
" />
<path d="M65.4112 28.1676
L64.6993 28.8794
" />
<path d="M64.6993 40.8245
L65.4112 41.5364
" />
<path d="M65.4112 40.8245
L64.6993 41.5364
" />
<path d="M64.6993 53.4814
L65.4112 54.1933
" />
<path d="M65.4112 53.4814
L64.6993 54.1933
" />
<path d="M64.6993 66.1384
L65.4112 66.8502
" />
<path d="M65.4112 66.1384
L64.6993 66.8502
" />
<path d="M64.6993 78.7953
L65.4112 79.5071
" />
<path d="M65.4112 78.7953
L64.6993 79.5071
" />
<path d="M64.6993 91.4522
L65.4112 92.1641
" />
<path d="M65.4112 91.4522
L64.6993 92.1641
" />
<path d="M64.6993 104.1091
L65.4112 104.8210
" />
<path d="M65.4112 104.1091
L64.6993 104.8210
" />
<path d="M64.6993 116.7660
L65.4112 117.4779
" />
<path d="M65.4112 116.7660
L64.6993 117.4779
" />
<path d="M64.6993 129.4230
L65.4112 130.1348
" />
<path d="M65.4112 129.4230
L64.6993 130.1348
" />
<path d="M64.6993 145.6962
L65.4112 146.4080
" />
<path d="M65.4112 145.6962
L64.6993 146.4080
" />
<path d="M66.5075 15.5107
L67.2193 16.2225
" />
<path d="M67.2193 15.5107
L66.5075 16.2225
" />
<path d="M66.5075 28.1676
L67.2193 28.8794
" />
<path d="M67.2193 28.1676
L66.5075 28.8794
" />
<path d="M66.5075 40.8245
L67.2193 41.5364
" />
<path d="M67.2193 40.8245
L66.5075 41.5364
" />
<path d="M66.5075 53.4814
L67.2193 54.1933
" />
<path d="M67.2193 53.4814
L66.5075 54.1933
" />
<path d="M66.5075 66.1384
L67.2193 66.8502
" />
<path d="M67.2193 66.1384
L66.5075 66.8502
" />
<path d="M66.5075 78.7953
L67.2193 79.5071
" />
<path d="M67.2193 78.7953
L66.5075 79.5071
" />
<path d="M66.5075 91.4522
L67.2193 92.1641
" />
<path d="M67.2193 91.4522
L66.5075 92.1641
" />
<path d="M66.5075 104.1091
L67.2193 104.8210
" />
<path d="M67.2193 104.1091
L66.5075 104.8210
" />
<path d="M66.5075 116.7660
L67.2193 117.4779
" />
<path d="M67.2193 116.7660
L66.5075 117.4779
" />
<path d="M66.5075 129.4230
L67.2193 130.1348
" />
<path d="M67.2193 129.4230
L66.5075 130.1348
" />
<path d="M66.5075 145.6962
L67.2193 146.4080
" />
<path d="M67.2193 145.6962
L66.5075 146.4080
" />
<path d="M68.3156 15.5107
L69.0275 16.2225
" />
<path d="M69.0275 15.5107
L68.3156 16.2225
" />
<path d="M68.3156 28.1676
L69.0275 28.8794
" />
<path d="M69.0275 28.1676
L68.3156 28.8794
" />
<path d="M68.3156 40.8245
L69.0275 41.5364
" />
<path d="M69.0275 40.8245
L68.3156 41.5364
" />
<path d="M68.3156 53.4814
L69.0275 54.1933
" />
<path d="M69.0275 53.4814
L68.3156 54.1933
" />
<path d="M68.3156 66.1384
L69.0275 66.8502
" />
<path d="M69.0275 66.1384
L68.3156 66.8502
" />
<path d="M68.3156 78.7953
L69.0275 79.5071
" />
<path d="M69.0275 78.7953
L68.3156 79.5071
" />
<path d="M68.3156 91.4522
L69.0275 92.1641
" />
<path d="M69.0275 91.4522
L68.3156 92.1641
" />
<path d="M68.3156 104.1091
L69.0275 104.8210
" />
<path d="M69.0275 104.1091
L68.3156 104.8210
" />
<path d="M68.3156 116.7660
L69.0275 117.4779
" />
<path d="M69.0275 116.7660
L68.3156 117.4779
" />
<path d="M68.3156 129.4230
L69.0275 130.1348
" />
<path d="M69.0275 129.4230
L68.3156 130.1348
" />
<path d="M68.3156 145.6962
L69.0275 146.4080
" />
<path d="M69.0275 145.6962
L68.3156 146.4080
" />
<path d="M70.1237 145.6962
L70.8356 146.4080
" />
<path d="M70.8356 145.6962
L70.1237 146.4080
" />
<path d="M80.9725 160.1612
L81.6844 160.8731
" />
<path d="M81.6844 160.1612
L80.9725 160.8731
" />
<path d="M80.9725 161.9693
L81.6844 162.6812
" />
<path d="M81.6844 161.9693
L80.9725 162.6812
" />
<path d="M80.9725 163.7775
L81.6844 164.4893
" />
<path d="M81.6844 163.7775
L80.9725 164.4893
" />
<path d="M80.9725 165.5856
L81.6844 166.2975
" />
<path d="M81.6844 165.5856
L80.9725 166.2975
" />
<path d="M80.9725 167.3937
L81.6844 168.1056
" />
<path d="M81.6844 167.3937
L80.9725 168.1056
" />
<path d="M80.9725 169.2019
L81.6844 169.9137
" />
<path d="M81.6844 169.2019
L80.9725 169.9137
" />
<path d="M80.9725 171.0100
L81.6844 171.7219
" />
<path d="M81.6844 171.0100
L80.9725 171.7219
" />
<path d="M80.9725 172.8181
L81.6844 173.5300
" />
<path d="M81.6844 172.8181
L80.9725 173.5300
" />
<path d="M88.2051 145.6962
L88.9169 146.4080
" />
<path d="M88.9169 145.6962
L88.2051 146.4080
" />
<path d="M90.0132 10.0863
L90.7251 10.7981
" />
<path d="M90.7251 10.0863
L90.0132 10.7981
" />
<path d="M90.0132 13.7025
L90.7251 14.4144
" />
<path d="M90.7251 13.7025
L90.0132 14.4144
" />
<path d="M90.0132 15.5107
L90.7251 16.2225
" />
<path d="M90.7251 15.5107
L90.0132 16.2225
" />
<path d="M90.0132 28.1676
L90.7251 28.8794
" />
<path d="M90.7251 28.1676
L90.0132 28.8794
" />
<path d="M90.0132 40.8245
L90.7251 41.5364
" />
<path d="M90.7251 40.8245
L90.0132 41.5364
" />
<path d="M90.0132 53.4814
L90.7251 54.1933
" />
<path d="M90.7251 53.4814
L90.0132 54.1933
" />
<path d="M90.0132 66.1384
L90.7251 66.8502
" />
<path d="M90.7251 66.1384
L90.0132 66.8502
" />
<path d="M90.0132 78.7953
L90.7251 79.5071
" />
<path d="M90.7251 78.7953
L90.0132 79.5071
" />
<path d="M90.0132 91.4522
L90.7251 92.1641
" />
<path d="M90.7251 91.4522
L90.0132 92.1641
" />
<path d="M90.0132 104.1091
L90.7251 104.8210
" />
<path d="M90.7251 104.1091
L90.0132 104.8210
" />
<path d="M90.0132 116.7660
L90.7251 117.4779
" />
<path d="M90.7251 116.7660
L90.0132 117.4779
" />
<path d="M90.0132 129.4230
L90.7251 130.1348
" />
<path d="M90.7251 129.4230
L90.0132 130.1348
" />
<path d="M90.0132 145.6962
L90.7251 146.4080
" />
<path d="M90.7251 145.6962
L90.0132 146.4080
" />
<path d="M91.8213 15.5107
L92.5332 16.2225
" />
<path d="M92.5332 15.5107
L91.8213 16.2225
" />
<path d="M91.8213 28.1676
L92.5332 28.8794
" />
<path d="M92.5332 28.1676
L91.8213 28.8794
" />
<path d="M91.8213 40.8245
L92.5332 41.5364
" />
<path d="M92.5332 40.8245
L91.8213 41.5364
" />
<path d="M91.8213 53.4814
L92.5332 54.1933
" />
<path d="M92.5332 53.4814
L91.8213 54.1933
" />
<path d="M91.8213 66.1384
L92.5332 66.8502
" />
<path d="M92.5332 66.1384
L91.8213 66.8502
" />
<path d="M91.8213 78.7953
L92.5332 79.5071
" />
<path d="M92.5332 78.7953
L91.8213 79.5071
" />
<path d="M91.8213 91.4522
L92.5332 92.1641
" />
<path d="M92.5332 91.4522
L91.8213 92.1641
" />
<path d="M91.8213 104.1091
L92.5332 104.8210
" />
<path d="M92.5332 104.1091
L91.8213 104.8210
" />
<path d="M91.8213 116.7660
L92.5332 117.4779
" />
<path d="M92.5332 116.7660
L91.8213 117.4779
" />
<path d="M91.8213 129.4230
L92.5332 130.1348
" />
<path d="M92.5332 129.4230
L91.8213 130.1348
" />
<path d="M91.8213 145.6962
L92.5332 146.4080
" />
<path d="M92.5332 145.6962
L91.8213 146.4080
" />
<path d="M93.6295 15.5107
L94.3413 16.2225
" />
<path d="M94.3413 15.5107
L93.6295 16.2225
" />
<path d="M93.6295 28.1676
L94.3413 28.8794
" />
<path d="M94.3413 28.1676
L93.6295 28.8794
" />
<path d="M93.6295 40.8245
L94.3413 41.5364
" />
<path d="M94.3413 40.8245
L93.6295 41.5364
" />
<path d="M93.6295 53.4814
L94.3413 54.1933
" />
<path d="M94.3413 53.4814
L93.6295 54.1933
" />
<path d="M93.6295 66.1384
L94.3413 66.8502
" />
<path d="M94.3413 66.1384
L93.6295 66.8502
" />
<path d="M93.6295 78.7953
L94.3413 79.5071
" />
<path d="M94.3413 78.7953
L93.6295 79.5071
" />
<path d="M93.6295 91.4522
L94.3413 92.1641
" />
<path d="M94.3413 91.4522
L93.6295 92.1641
" />
<path d="M93.6295 104.1091
L94.3413 104.8210
" />
<path d="M94.3413 104.1091
L93.6295 104.8210
" />
<path d="M93.6295 116.7660
L94.3413 117.4779
" />
<path d="M94.3413 116.7660
L93.6295 117.4779
" />
<path d="M93.6295 129.4230
L94.3413 130.1348
" />
<path d="M94.3413 129.4230
L93.6295 130.1348
" />
<path d="M93.6295 145.6962
L94.3413 146.4080
" />
<path d="M94.3413 145.6962
L93.6295 146.4080
" />
<path d="M95.4376 15.5107
L96.1494 16.2225
" />
<path d="M96.1494 15.5107
L95.4376 16.2225
" />
<path d="M95.4376 28.1676
L96.1494 28.8794
" />
<path d="M96.1494 28.1676
L95.4376 28.8794
" />
<path d="M95.4376 40.8245
L96.1494 41.5364
" />
<path d="M96.1494 40.8245
L95.4376 41.5364
" />
<path d="M95.4376 53.4814
L96.1494 54.1933
" />
<path d="M96.1494 53.4814
L95.4376 54.1933
" />
<path d="M95.4376 66.1384
L96.1494 66.8502
" />
<path d="M96.1494 66.1384
L95.4376 66.8502
" />
<path d="M95.4376 78.7953
L96.1494 79.5071
" />
<path d="M96.1494 78.7953
L95.4376 79.5071
" />
<path d="M95.4376 91.4522
L96.1494 92.1641
" />
<path d="M96.1494 91.4522
L95.4376 92.1641
" />
<path d="M95.4376 104.1091
L96.1494 104.8210
" />
<path d="M96.1494 104.1091
L95.4376 104.8210
" />
<path d="M95.4376 116.7660
L96.1494 117.4779
" />
<path d="M96.1494 116.7660
L95.4376 117.4779
" />
<path d="M95.4376 129.4230
L96.1494 130.1348
" />
<path d="M96.1494 129.4230
L95.4376 130.1348
" />
<path d="M95.4376 145.6962
L96.1494 146.4080
" />
<path d="M96.1494 145.6962
L95.4376 146.4080
" />
<path d="M95.4376 156.5450
L96.1494 157.2568
" />
<path d="M96.1494 156.5450
L95.4376 157.2568
" />
<path d="M97.2457 145.6962
L97.9576 146.4080
" />
<path d="M97.9576 145.6962
L97.2457 146.4080
" />
<path d="M97.2457 156.5450
L97.9576 157.2568
" />
<path d="M97.9576 156.5450
L97.2457 157.2568
" />
<path d="M99.0539 145.6962
L99.7657 146.4080
" />
<path d="M99.7657 145.6962
L99.0539 146.4080
" />
<path d="M99.0539 156.5450
L99.7657 157.2568
" />
<path d="M99.7657 156.5450
L99.0539 157.2568
" />
<path d="M100.8620 145.6962
L101.5738 146.4080
" />
<path d="M101.5738 145.6962
L100.8620 146.4080
" />
<path d="M100.8620 156.5450
L101.5738 157.2568
" />
<path d="M101.5738 156.5450
L100.8620 157.2568
" />
<path d="M102.6701 145.6962
L103.3820 146.4080
" />
<path d="M103.3820 145.6962
L102.6701 146.4080
" />
<path d="M102.6701 156.5450
L103.3820 157.2568
" />
<path d="M103.3820 156.5450
L102.6701 157.2568
" />
<path d="M104.4782 145.6962
L105.1901 146.4080
" />
<path d="M105.1901 145.6962
L104.4782 146.4080
" />
<path d="M104.4782 156.5450
L105.1901 157.2568
" />
<path d="M105.1901 156.5450
L104.4782 157.2568
" />
<path d="M106.2864 10.0863
L106.9982 10.7981
" />
<path d="M106.9982 10.0863
L106.2864 10.7981
" />
<path d="M106.2864 11.8944
L106.9982 12.6063
" />
<path d="M106.9982 11.8944
L106.2864 12.6063
" />
<path d="M106.2864 145.6962
L106.9982 146.4080
" />
<path d="M106.9982 145.6962
L106.2864 146.4080
" />
<path d="M106.2864 156.5450
L106.9982 157.2568
" />
<path d="M106.9982 156.5450
L106.2864 157.2568
" />
<path d="M108.0945 145.6962
L108.8064 146.4080
" />
<path d="M108.8064 145.6962
L108.0945 146.4080
" />
<path d="M108.0945 156.5450
L108.8064 157.2568
" />
<path d="M108.8064 156.5450
L108.0945 157.2568
" />
<path d="M109.9026 145.6962
L110.6145 146.4080
" />
<path d="M110.6145 145.6962
L109.9026 146.4080
" />
<path d="M111.7108 145.6962
L112.4226 146.4080
" />
<path d="M112.4226 145.6962
L111.7108 146.4080
" />
<path d="M113.5189 145.6962
L114.2308 146.4080
" />
<path d="M114.2308 145.6962
L113.5189 146.4080
" />
<path d="M115.3270 145.6962
L116.0389 146.4080
" />
<path d="M116.0389 145.6962
L115.3270 146.4080
" />
</g>
<g style="fill:none; 
stroke:#000000; stroke-width:0.1424; stroke-opacity:1; 
stroke-linecap:round; stroke-linejoin:round;">
<text x="30.2986" y="177.2780"
textLength="10.5830" font-size="1.8983" lengthAdjust="spacingAndGlyphs"
text-anchor="start" opacity="0" stroke-opacity="0">Drill Map:</text>
<g class="stroked-text"><desc>Drill Map:</desc>
<path d="M30.7312 177.2173
L30.7312 175.7936
" />
<path d="M30.7312 175.7936
L31.0702 175.7936
" />
<path d="M31.0702 175.7936
L31.2736 175.8614
" />
<path d="M31.2736 175.8614
L31.4092 175.9970
" />
<path d="M31.4092 175.9970
L31.4770 176.1326
" />
<path d="M31.4770 176.1326
L31.5448 176.4038
" />
<path d="M31.5448 176.4038
L31.5448 176.6072
" />
<path d="M31.5448 176.6072
L31.4770 176.8784
" />
<path d="M31.4770 176.8784
L31.4092 177.0139
" />
<path d="M31.4092 177.0139
L31.2736 177.1495
" />
<path d="M31.2736 177.1495
L31.0702 177.2173
" />
<path d="M31.0702 177.2173
L30.7312 177.2173
" />
<path d="M32.1549 177.2173
L32.1549 176.2682
" />
<path d="M32.1549 176.5394
L32.2227 176.4038
" />
<path d="M32.2227 176.4038
L32.2905 176.3360
" />
<path d="M32.2905 176.3360
L32.4261 176.2682
" />
<path d="M32.4261 176.2682
L32.5617 176.2682
" />
<path d="M33.0363 177.2173
L33.0363 176.2682
" />
<path d="M33.0363 175.7936
L32.9685 175.8614
" />
<path d="M32.9685 175.8614
L33.0363 175.9292
" />
<path d="M33.0363 175.9292
L33.1041 175.8614
" />
<path d="M33.1041 175.8614
L33.0363 175.7936
" />
<path d="M33.0363 175.7936
L33.0363 175.9292
" />
<path d="M33.9176 177.2173
L33.7821 177.1495
" />
<path d="M33.7821 177.1495
L33.7143 177.0139
" />
<path d="M33.7143 177.0139
L33.7143 175.7936
" />
<path d="M34.6634 177.2173
L34.5278 177.1495
" />
<path d="M34.5278 177.1495
L34.4600 177.0139
" />
<path d="M34.4600 177.0139
L34.4600 175.7936
" />
<path d="M36.2905 177.2173
L36.2905 175.7936
" />
<path d="M36.2905 175.7936
L36.7651 176.8106
" />
<path d="M36.7651 176.8106
L37.2397 175.7936
" />
<path d="M37.2397 175.7936
L37.2397 177.2173
" />
<path d="M38.5278 177.2173
L38.5278 176.4716
" />
<path d="M38.5278 176.4716
L38.4600 176.3360
" />
<path d="M38.4600 176.3360
L38.3244 176.2682
" />
<path d="M38.3244 176.2682
L38.0532 176.2682
" />
<path d="M38.0532 176.2682
L37.9176 176.3360
" />
<path d="M38.5278 177.1495
L38.3922 177.2173
" />
<path d="M38.3922 177.2173
L38.0532 177.2173
" />
<path d="M38.0532 177.2173
L37.9176 177.1495
" />
<path d="M37.9176 177.1495
L37.8498 177.0139
" />
<path d="M37.8498 177.0139
L37.8498 176.8784
" />
<path d="M37.8498 176.8784
L37.9176 176.7428
" />
<path d="M37.9176 176.7428
L38.0532 176.6750
" />
<path d="M38.0532 176.6750
L38.3922 176.6750
" />
<path d="M38.3922 176.6750
L38.5278 176.6072
" />
<path d="M39.2058 176.2682
L39.2058 177.6919
" />
<path d="M39.2058 176.3360
L39.3414 176.2682
" />
<path d="M39.3414 176.2682
L39.6125 176.2682
" />
<path d="M39.6125 176.2682
L39.7481 176.3360
" />
<path d="M39.7481 176.3360
L39.8159 176.4038
" />
<path d="M39.8159 176.4038
L39.8837 176.5394
" />
<path d="M39.8837 176.5394
L39.8837 176.9462
" />
<path d="M39.8837 176.9462
L39.8159 177.0817
" />
<path d="M39.8159 177.0817
L39.7481 177.1495
" />
<path d="M39.7481 177.1495
L39.6125 177.2173
" />
<path d="M39.6125 177.2173
L39.3414 177.2173
" />
<path d="M39.3414 177.2173
L39.2058 177.1495
" />
<path d="M40.4939 177.0817
L40.5617 177.1495
" />
<path d="M40.5617 177.1495
L40.4939 177.2173
" />
<path d="M40.4939 177.2173
L40.4261 177.1495
" />
<path d="M40.4261 177.1495
L40.4939 177.0817
" />
<path d="M40.4939 177.0817
L40.4939 177.2173
" />
<path d="M40.4939 176.3360
L40.5617 176.4038
" />
<path d="M40.5617 176.4038
L40.4939 176.4716
" />
<path d="M40.4939 176.4716
L40.4261 176.4038
" />
<path d="M40.4261 176.4038
L40.4939 176.3360
" />
<path d="M40.4939 176.3360
L40.4939 176.4716
" />
</g></g>
<g style="fill:none; 
stroke:#000000; stroke-width:0.0712; stroke-opacity:1; 
stroke-linecap:round; stroke-linejoin:round;">
<path d="M28.1630 179.2000
L28.8748 179.9119
" />
<path d="M28.8748 179.2000
L28.1630 179.9119
" />
</g>
<g style="fill:none; 
stroke:#000000; stroke-width:0.1424; stroke-opacity:1; 
stroke-linecap:round; stroke-linejoin:round;">
<text x="30.2986" y="180.2678"
textLength="36.0745" font-size="1.8983" lengthAdjust="spacingAndGlyphs"
text-anchor="start" opacity="0" stroke-opacity="0">1.000mm / 0.0394" (182 holes)</text>
<g class="stroked-text"><desc>1.000mm / 0.0394" (182 holes)</desc>
<path d="M31.4770 180.2072
L30.6634 180.2072
" />
<path d="M31.0702 180.2072
L31.0702 178.7834
" />
<path d="M31.0702 178.7834
L30.9346 178.9868
" />
<path d="M30.9346 178.9868
L30.7990 179.1224
" />
<path d="M30.7990 179.1224
L30.6634 179.1902
" />
<path d="M32.0871 180.0716
L32.1549 180.1394
" />
<path d="M32.1549 180.1394
L32.0871 180.2072
" />
<path d="M32.0871 180.2072
L32.0193 180.1394
" />
<path d="M32.0193 180.1394
L32.0871 180.0716
" />
<path d="M32.0871 180.0716
L32.0871 180.2072
" />
<path d="M33.0363 178.7834
L33.1719 178.7834
" />
<path d="M33.1719 178.7834
L33.3075 178.8512
" />
<path d="M33.3075 178.8512
L33.3753 178.9190
" />
<path d="M33.3753 178.9190
L33.4431 179.0546
" />
<path d="M33.4431 179.0546
L33.5109 179.3258
" />
<path d="M33.5109 179.3258
L33.5109 179.6648
" />
<path d="M33.5109 179.6648
L33.4431 179.9360
" />
<path d="M33.4431 179.9360
L33.3753 180.0716
" />
<path d="M33.3753 180.0716
L33.3075 180.1394
" />
<path d="M33.3075 180.1394
L33.1719 180.2072
" />
<path d="M33.1719 180.2072
L33.0363 180.2072
" />
<path d="M33.0363 180.2072
L32.9007 180.1394
" />
<path d="M32.9007 180.1394
L32.8329 180.0716
" />
<path d="M32.8329 180.0716
L32.7651 179.9360
" />
<path d="M32.7651 179.9360
L32.6973 179.6648
" />
<path d="M32.6973 179.6648
L32.6973 179.3258
" />
<path d="M32.6973 179.3258
L32.7651 179.0546
" />
<path d="M32.7651 179.0546
L32.8329 178.9190
" />
<path d="M32.8329 178.9190
L32.9007 178.8512
" />
<path d="M32.9007 178.8512
L33.0363 178.7834
" />
<path d="M34.3922 178.7834
L34.5278 178.7834
" />
<path d="M34.5278 178.7834
L34.6634 178.8512
" />
<path d="M34.6634 178.8512
L34.7312 178.9190
" />
<path d="M34.7312 178.9190
L34.7990 179.0546
" />
<path d="M34.7990 179.0546
L34.8668 179.3258
" />
<path d="M34.8668 179.3258
L34.8668 179.6648
" />
<path d="M34.8668 179.6648
L34.7990 179.9360
" />
<path d="M34.7990 179.9360
L34.7312 180.0716
" />
<path d="M34.7312 180.0716
L34.6634 180.1394
" />
<path d="M34.6634 180.1394
L34.5278 180.2072
" />
<path d="M34.5278 180.2072
L34.3922 180.2072
" />
<path d="M34.3922 180.2072
L34.2566 180.1394
" />
<path d="M34.2566 180.1394
L34.1888 180.0716
" />
<path d="M34.1888 180.0716
L34.1210 179.9360
" />
<path d="M34.1210 179.9360
L34.0532 179.6648
" />
<path d="M34.0532 179.6648
L34.0532 179.3258
" />
<path d="M34.0532 179.3258
L34.1210 179.0546
" />
<path d="M34.1210 179.0546
L34.1888 178.9190
" />
<path d="M34.1888 178.9190
L34.2566 178.8512
" />
<path d="M34.2566 178.8512
L34.3922 178.7834
" />
<path d="M35.7482 178.7834
L35.8837 178.7834
" />
<path d="M35.8837 178.7834
L36.0193 178.8512
" />
<path d="M36.0193 178.8512
L36.0871 178.9190
" />
<path d="M36.0871 178.9190
L36.1549 179.0546
" />
<path d="M36.1549 179.0546
L36.2227 179.3258
" />
<path d="M36.2227 179.3258
L36.2227 179.6648
" />
<path d="M36.2227 179.6648
L36.1549 179.9360
" />
<path d="M36.1549 179.9360
L36.0871 180.0716
" />
<path d="M36.0871 180.0716
L36.0193 180.1394
" />
<path d="M36.0193 180.1394
L35.8837 180.2072
" />
<path d="M35.8837 180.2072
L35.7482 180.2072
" />
<path d="M35.7482 180.2072
L35.6126 180.1394
" />
<path d="M35.6126 180.1394
L35.5448 180.0716
" />
<path d="M35.5448 180.0716
L35.4770 179.9360
" />
<path d="M35.4770 179.9360
L35.4092 179.6648
" />
<path d="M35.4092 179.6648
L35.4092 179.3258
" />
<path d="M35.4092 179.3258
L35.4770 179.0546
" />
<path d="M35.4770 179.0546
L35.5448 178.9190
" />
<path d="M35.5448 178.9190
L35.6126 178.8512
" />
<path d="M35.6126 178.8512
L35.7482 178.7834
" />
<path d="M36.8329 180.2072
L36.8329 179.2580
" />
<path d="M36.8329 179.3936
L36.9007 179.3258
" />
<path d="M36.9007 179.3258
L37.0363 179.2580
" />
<path d="M37.0363 179.2580
L37.2397 179.2580
" />
<path d="M37.2397 179.2580
L37.3753 179.3258
" />
<path d="M37.3753 179.3258
L37.4431 179.4614
" />
<path d="M37.4431 179.4614
L37.4431 180.2072
" />
<path d="M37.4431 179.4614
L37.5109 179.3258
" />
<path d="M37.5109 179.3258
L37.6465 179.2580
" />
<path d="M37.6465 179.2580
L37.8498 179.2580
" />
<path d="M37.8498 179.2580
L37.9854 179.3258
" />
<path d="M37.9854 179.3258
L38.0532 179.4614
" />
<path d="M38.0532 179.4614
L38.0532 180.2072
" />
<path d="M38.7312 180.2072
L38.7312 179.2580
" />
<path d="M38.7312 179.3936
L38.7990 179.3258
" />
<path d="M38.7990 179.3258
L38.9346 179.2580
" />
<path d="M38.9346 179.2580
L39.1380 179.2580
" />
<path d="M39.1380 179.2580
L39.2736 179.3258
" />
<path d="M39.2736 179.3258
L39.3414 179.4614
" />
<path d="M39.3414 179.4614
L39.3414 180.2072
" />
<path d="M39.3414 179.4614
L39.4092 179.3258
" />
<path d="M39.4092 179.3258
L39.5448 179.2580
" />
<path d="M39.5448 179.2580
L39.7481 179.2580
" />
<path d="M39.7481 179.2580
L39.8837 179.3258
" />
<path d="M39.8837 179.3258
L39.9515 179.4614
" />
<path d="M39.9515 179.4614
L39.9515 180.2072
" />
<path d="M42.7312 178.7156
L41.5109 180.5461
" />
<path d="M44.5617 178.7834
L44.6973 178.7834
" />
<path d="M44.6973 178.7834
L44.8329 178.8512
" />
<path d="M44.8329 178.8512
L44.9007 178.9190
" />
<path d="M44.9007 178.9190
L44.9685 179.0546
" />
<path d="M44.9685 179.0546
L45.0363 179.3258
" />
<path d="M45.0363 179.3258
L45.0363 179.6648
" />
<path d="M45.0363 179.6648
L44.9685 179.9360
" />
<path d="M44.9685 179.9360
L44.9007 180.0716
" />
<path d="M44.9007 180.0716
L44.8329 180.1394
" />
<path d="M44.8329 180.1394
L44.6973 180.2072
" />
<path d="M44.6973 180.2072
L44.5617 180.2072
" />
<path d="M44.5617 180.2072
L44.4261 180.1394
" />
<path d="M44.4261 180.1394
L44.3583 180.0716
" />
<path d="M44.3583 180.0716
L44.2905 179.9360
" />
<path d="M44.2905 179.9360
L44.2227 179.6648
" />
<path d="M44.2227 179.6648
L44.2227 179.3258
" />
<path d="M44.2227 179.3258
L44.2905 179.0546
" />
<path d="M44.2905 179.0546
L44.3583 178.9190
" />
<path d="M44.3583 178.9190
L44.4261 178.8512
" />
<path d="M44.4261 178.8512
L44.5617 178.7834
" />
<path d="M45.6464 180.0716
L45.7142 180.1394
" />
<path d="M45.7142 180.1394
L45.6464 180.2072
" />
<path d="M45.6464 180.2072
L45.5786 180.1394
" />
<path d="M45.5786 180.1394
L45.6464 180.0716
" />
<path d="M45.6464 180.0716
L45.6464 180.2072
" />
<path d="M46.5956 178.7834
L46.7312 178.7834
" />
<path d="M46.7312 178.7834
L46.8668 178.8512
" />
<path d="M46.8668 178.8512
L46.9346 178.9190
" />
<path d="M46.9346 178.9190
L47.0024 179.0546
" />
<path d="M47.0024 179.0546
L47.0702 179.3258
" />
<path d="M47.0702 179.3258
L47.0702 179.6648
" />
<path d="M47.0702 179.6648
L47.0024 179.9360
" />
<path d="M47.0024 179.9360
L46.9346 180.0716
" />
<path d="M46.9346 180.0716
L46.8668 180.1394
" />
<path d="M46.8668 180.1394
L46.7312 180.2072
" />
<path d="M46.7312 180.2072
L46.5956 180.2072
" />
<path d="M46.5956 180.2072
L46.4600 180.1394
" />
<path d="M46.4600 180.1394
L46.3922 180.0716
" />
<path d="M46.3922 180.0716
L46.3244 179.9360
" />
<path d="M46.3244 179.9360
L46.2566 179.6648
" />
<path d="M46.2566 179.6648
L46.2566 179.3258
" />
<path d="M46.2566 179.3258
L46.3244 179.0546
" />
<path d="M46.3244 179.0546
L46.3922 178.9190
" />
<path d="M46.3922 178.9190
L46.4600 178.8512
" />
<path d="M46.4600 178.8512
L46.5956 178.7834
" />
<path d="M47.5447 178.7834
L48.4261 178.7834
" />
<path d="M48.4261 178.7834
L47.9515 179.3258
" />
<path d="M47.9515 179.3258
L48.1549 179.3258
" />
<path d="M48.1549 179.3258
L48.2905 179.3936
" />
<path d="M48.2905 179.3936
L48.3583 179.4614
" />
<path d="M48.3583 179.4614
L48.4261 179.5970
" />
<path d="M48.4261 179.5970
L48.4261 179.9360
" />
<path d="M48.4261 179.9360
L48.3583 180.0716
" />
<path d="M48.3583 180.0716
L48.2905 180.1394
" />
<path d="M48.2905 180.1394
L48.1549 180.2072
" />
<path d="M48.1549 180.2072
L47.7481 180.2072
" />
<path d="M47.7481 180.2072
L47.6125 180.1394
" />
<path d="M47.6125 180.1394
L47.5447 180.0716
" />
<path d="M49.1041 180.2072
L49.3752 180.2072
" />
<path d="M49.3752 180.2072
L49.5108 180.1394
" />
<path d="M49.5108 180.1394
L49.5786 180.0716
" />
<path d="M49.5786 180.0716
L49.7142 179.8682
" />
<path d="M49.7142 179.8682
L49.7820 179.5970
" />
<path d="M49.7820 179.5970
L49.7820 179.0546
" />
<path d="M49.7820 179.0546
L49.7142 178.9190
" />
<path d="M49.7142 178.9190
L49.6464 178.8512
" />
<path d="M49.6464 178.8512
L49.5108 178.7834
" />
<path d="M49.5108 178.7834
L49.2397 178.7834
" />
<path d="M49.2397 178.7834
L49.1041 178.8512
" />
<path d="M49.1041 178.8512
L49.0363 178.9190
" />
<path d="M49.0363 178.9190
L48.9685 179.0546
" />
<path d="M48.9685 179.0546
L48.9685 179.3936
" />
<path d="M48.9685 179.3936
L49.0363 179.5292
" />
<path d="M49.0363 179.5292
L49.1041 179.5970
" />
<path d="M49.1041 179.5970
L49.2397 179.6648
" />
<path d="M49.2397 179.6648
L49.5108 179.6648
" />
<path d="M49.5108 179.6648
L49.6464 179.5970
" />
<path d="M49.6464 179.5970
L49.7142 179.5292
" />
<path d="M49.7142 179.5292
L49.7820 179.3936
" />
<path d="M51.0024 179.2580
L51.0024 180.2072
" />
<path d="M50.6634 178.7156
L50.3244 179.7326
" />
<path d="M50.3244 179.7326
L51.2057 179.7326
" />
<path d="M51.6803 178.7834
L51.6803 179.0546
" />
<path d="M52.2227 178.7834
L52.2227 179.0546
" />
<path d="M54.3244 180.7495
L54.2566 180.6817
" />
<path d="M54.2566 180.6817
L54.1210 180.4783
" />
<path d="M54.1210 180.4783
L54.0532 180.3428
" />
<path d="M54.0532 180.3428
L53.9854 180.1394
" />
<path d="M53.9854 180.1394
L53.9176 179.8004
" />
<path d="M53.9176 179.8004
L53.9176 179.5292
" />
<path d="M53.9176 179.5292
L53.9854 179.1902
" />
<path d="M53.9854 179.1902
L54.0532 178.9868
" />
<path d="M54.0532 178.9868
L54.1210 178.8512
" />
<path d="M54.1210 178.8512
L54.2566 178.6478
" />
<path d="M54.2566 178.6478
L54.3244 178.5800
" />
<path d="M55.6125 180.2072
L54.7990 180.2072
" />
<path d="M55.2057 180.2072
L55.2057 178.7834
" />
<path d="M55.2057 178.7834
L55.0701 178.9868
" />
<path d="M55.0701 178.9868
L54.9346 179.1224
" />
<path d="M54.9346 179.1224
L54.7990 179.1902
" />
<path d="M56.4261 179.3936
L56.2905 179.3258
" />
<path d="M56.2905 179.3258
L56.2227 179.2580
" />
<path d="M56.2227 179.2580
L56.1549 179.1224
" />
<path d="M56.1549 179.1224
L56.1549 179.0546
" />
<path d="M56.1549 179.0546
L56.2227 178.9190
" />
<path d="M56.2227 178.9190
L56.2905 178.8512
" />
<path d="M56.2905 178.8512
L56.4261 178.7834
" />
<path d="M56.4261 178.7834
L56.6973 178.7834
" />
<path d="M56.6973 178.7834
L56.8329 178.8512
" />
<path d="M56.8329 178.8512
L56.9007 178.9190
" />
<path d="M56.9007 178.9190
L56.9684 179.0546
" />
<path d="M56.9684 179.0546
L56.9684 179.1224
" />
<path d="M56.9684 179.1224
L56.9007 179.2580
" />
<path d="M56.9007 179.2580
L56.8329 179.3258
" />
<path d="M56.8329 179.3258
L56.6973 179.3936
" />
<path d="M56.6973 179.3936
L56.4261 179.3936
" />
<path d="M56.4261 179.3936
L56.2905 179.4614
" />
<path d="M56.2905 179.4614
L56.2227 179.5292
" />
<path d="M56.2227 179.5292
L56.1549 179.6648
" />
<path d="M56.1549 179.6648
L56.1549 179.9360
" />
<path d="M56.1549 179.9360
L56.2227 180.0716
" />
<path d="M56.2227 180.0716
L56.2905 180.1394
" />
<path d="M56.2905 180.1394
L56.4261 180.2072
" />
<path d="M56.4261 180.2072
L56.6973 180.2072
" />
<path d="M56.6973 180.2072
L56.8329 180.1394
" />
<path d="M56.8329 180.1394
L56.9007 180.0716
" />
<path d="M56.9007 180.0716
L56.9684 179.9360
" />
<path d="M56.9684 179.9360
L56.9684 179.6648
" />
<path d="M56.9684 179.6648
L56.9007 179.5292
" />
<path d="M56.9007 179.5292
L56.8329 179.4614
" />
<path d="M56.8329 179.4614
L56.6973 179.3936
" />
<path d="M57.5108 178.9190
L57.5786 178.8512
" />
<path d="M57.5786 178.8512
L57.7142 178.7834
" />
<path d="M57.7142 178.7834
L58.0532 178.7834
" />
<path d="M58.0532 178.7834
L58.1888 178.8512
" />
<path d="M58.1888 178.8512
L58.2566 178.9190
" />
<path d="M58.2566 178.9190
L58.3244 179.0546
" />
<path d="M58.3244 179.0546
L58.3244 179.1902
" />
<path d="M58.3244 179.1902
L58.2566 179.3936
" />
<path d="M58.2566 179.3936
L57.4430 180.2072
" />
<path d="M57.4430 180.2072
L58.3244 180.2072
" />
<path d="M60.0193 180.2072
L60.0193 178.7834
" />
<path d="M60.6295 180.2072
L60.6295 179.4614
" />
<path d="M60.6295 179.4614
L60.5617 179.3258
" />
<path d="M60.5617 179.3258
L60.4261 179.2580
" />
<path d="M60.4261 179.2580
L60.2227 179.2580
" />
<path d="M60.2227 179.2580
L60.0871 179.3258
" />
<path d="M60.0871 179.3258
L60.0193 179.3936
" />
<path d="M61.5108 180.2072
L61.3752 180.1394
" />
<path d="M61.3752 180.1394
L61.3074 180.0716
" />
<path d="M61.3074 180.0716
L61.2396 179.9360
" />
<path d="M61.2396 179.9360
L61.2396 179.5292
" />
<path d="M61.2396 179.5292
L61.3074 179.3936
" />
<path d="M61.3074 179.3936
L61.3752 179.3258
" />
<path d="M61.3752 179.3258
L61.5108 179.2580
" />
<path d="M61.5108 179.2580
L61.7142 179.2580
" />
<path d="M61.7142 179.2580
L61.8498 179.3258
" />
<path d="M61.8498 179.3258
L61.9176 179.3936
" />
<path d="M61.9176 179.3936
L61.9854 179.5292
" />
<path d="M61.9854 179.5292
L61.9854 179.9360
" />
<path d="M61.9854 179.9360
L61.9176 180.0716
" />
<path d="M61.9176 180.0716
L61.8498 180.1394
" />
<path d="M61.8498 180.1394
L61.7142 180.2072
" />
<path d="M61.7142 180.2072
L61.5108 180.2072
" />
<path d="M62.7989 180.2072
L62.6634 180.1394
" />
<path d="M62.6634 180.1394
L62.5956 180.0038
" />
<path d="M62.5956 180.0038
L62.5956 178.7834
" />
<path d="M63.8837 180.1394
L63.7481 180.2072
" />
<path d="M63.7481 180.2072
L63.4769 180.2072
" />
<path d="M63.4769 180.2072
L63.3413 180.1394
" />
<path d="M63.3413 180.1394
L63.2735 180.0038
" />
<path d="M63.2735 180.0038
L63.2735 179.4614
" />
<path d="M63.2735 179.4614
L63.3413 179.3258
" />
<path d="M63.3413 179.3258
L63.4769 179.2580
" />
<path d="M63.4769 179.2580
L63.7481 179.2580
" />
<path d="M63.7481 179.2580
L63.8837 179.3258
" />
<path d="M63.8837 179.3258
L63.9515 179.4614
" />
<path d="M63.9515 179.4614
L63.9515 179.5970
" />
<path d="M63.9515 179.5970
L63.2735 179.7326
" />
<path d="M64.4939 180.1394
L64.6295 180.2072
" />
<path d="M64.6295 180.2072
L64.9006 180.2072
" />
<path d="M64.9006 180.2072
L65.0362 180.1394
" />
<path d="M65.0362 180.1394
L65.1040 180.0038
" />
<path d="M65.1040 180.0038
L65.1040 179.9360
" />
<path d="M65.1040 179.9360
L65.0362 179.8004
" />
<path d="M65.0362 179.8004
L64.9006 179.7326
" />
<path d="M64.9006 179.7326
L64.6972 179.7326
" />
<path d="M64.6972 179.7326
L64.5617 179.6648
" />
<path d="M64.5617 179.6648
L64.4939 179.5292
" />
<path d="M64.4939 179.5292
L64.4939 179.4614
" />
<path d="M64.4939 179.4614
L64.5617 179.3258
" />
<path d="M64.5617 179.3258
L64.6972 179.2580
" />
<path d="M64.6972 179.2580
L64.9006 179.2580
" />
<path d="M64.9006 179.2580
L65.0362 179.3258
" />
<path d="M65.5786 180.7495
L65.6464 180.6817
" />
<path d="M65.6464 180.6817
L65.7820 180.4783
" />
<path d="M65.7820 180.4783
L65.8498 180.3428
" />
<path d="M65.8498 180.3428
L65.9176 180.1394
" />
<path d="M65.9176 180.1394
L65.9854 179.8004
" />
<path d="M65.9854 179.8004
L65.9854 179.5292
" />
<path d="M65.9854 179.5292
L65.9176 179.1902
" />
<path d="M65.9176 179.1902
L65.8498 178.9868
" />
<path d="M65.8498 178.9868
L65.7820 178.8512
" />
<path d="M65.7820 178.8512
L65.6464 178.6478
" />
<path d="M65.6464 178.6478
L65.5786 178.5800
" />
</g></g> 
</svg>
