%TF.GenerationSoftware,KiCad,Pcbnew,9.0.7*%
%TF.CreationDate,2026-02-24T20:59:54-05:00*%
%TF.ProjectId,MONGO_PCB,4d4f4e47-4f5f-4504-9342-2e6b69636164,SR211007*%
%TF.SameCoordinates,Original*%
%TF.FileFunction,Paste,Bot*%
%TF.FilePolarity,Positive*%
%FSLAX46Y46*%
G04 Gerber Fmt 4.6, Leading zero omitted, Abs format (unit mm)*
G04 Created by KiCad (PCBNEW 9.0.7) date 2026-02-24 20:59:54*
%MOMM*%
%LPD*%
G01*
G04 APERTURE LIST*
%TA.AperFunction,ComponentPad*%
%ADD10C,2.032000*%
%TD*%
%TA.AperFunction,Profile*%
%ADD11C,0.050000*%
%TD*%
G04 APERTURE END LIST*
D10*
%TO.P,REF\u002A\u002A,1*%
%TO.N,N/C*%
X20320000Y-114300000D03*
%TO.P,REF\u002A\u002A,2*%
X22860000Y-114300000D03*
%TO.P,REF\u002A\u002A,3*%
X25400000Y-114300000D03*
%TO.P,REF\u002A\u002A,4*%
X27940000Y-114300000D03*
%TD*%
%TO.P,REF\u002A\u002A,1*%
%TO.N,N/C*%
X58420000Y-149860000D03*
%TO.P,REF\u002A\u002A,2*%
X60960000Y-149860000D03*
%TO.P,REF\u002A\u002A,3*%
X63500000Y-149860000D03*
%TO.P,REF\u002A\u002A,4*%
X66040000Y-149860000D03*
%TD*%
%TO.P,REF\u002A\u002A,1*%
%TO.N,N/C*%
X96520000Y-96520000D03*
%TO.P,REF\u002A\u002A,2*%
X99060000Y-96520000D03*
%TO.P,REF\u002A\u002A,3*%
X101600000Y-96520000D03*
%TO.P,REF\u002A\u002A,4*%
X104140000Y-96520000D03*
%TD*%
%TO.P,REF\u002A\u002A,1*%
%TO.N,N/C*%
X96520000Y-149860000D03*
%TO.P,REF\u002A\u002A,2*%
X99060000Y-149860000D03*
%TO.P,REF\u002A\u002A,3*%
X101600000Y-149860000D03*
%TO.P,REF\u002A\u002A,4*%
X104140000Y-149860000D03*
%TD*%
%TO.P,REF\u002A\u002A,1*%
%TO.N,N/C*%
X96520000Y-185420000D03*
%TO.P,REF\u002A\u002A,2*%
X99060000Y-185420000D03*
%TO.P,REF\u002A\u002A,3*%
X101600000Y-185420000D03*
%TO.P,REF\u002A\u002A,4*%
X104140000Y-185420000D03*
%TD*%
%TO.P,,25*%
%TO.N,N/C*%
X83820000Y-228600000D03*
%TD*%
%TO.P,REF\u002A\u002A,1*%
%TO.N,N/C*%
X58420000Y-43180000D03*
%TO.P,REF\u002A\u002A,2*%
X60960000Y-43180000D03*
%TO.P,REF\u002A\u002A,3*%
X63500000Y-43180000D03*
%TO.P,REF\u002A\u002A,4*%
X66040000Y-43180000D03*
%TD*%
%TO.P,REF\u002A\u002A,1*%
%TO.N,N/C*%
X58420000Y-96520000D03*
%TO.P,REF\u002A\u002A,2*%
X60960000Y-96520000D03*
%TO.P,REF\u002A\u002A,3*%
X63500000Y-96520000D03*
%TO.P,REF\u002A\u002A,4*%
X66040000Y-96520000D03*
%TD*%
%TO.P,REF\u002A\u002A,1*%
%TO.N,N/C*%
X20320000Y-25400000D03*
%TO.P,REF\u002A\u002A,2*%
X22860000Y-25400000D03*
%TO.P,REF\u002A\u002A,3*%
X25400000Y-25400000D03*
%TO.P,REF\u002A\u002A,4*%
X27940000Y-25400000D03*
%TD*%
%TO.P,REF\u002A\u002A,1*%
%TO.N,N/C*%
X93980000Y-208280000D03*
%TO.P,REF\u002A\u002A,2*%
X96520000Y-208280000D03*
%TO.P,REF\u002A\u002A,3*%
X99060000Y-208280000D03*
%TO.P,REF\u002A\u002A,4*%
X101600000Y-208280000D03*
%TO.P,REF\u002A\u002A,5*%
X104140000Y-208280000D03*
%TO.P,REF\u002A\u002A,6*%
X106680000Y-208280000D03*
%TO.P,REF\u002A\u002A,7*%
X109220000Y-208280000D03*
%TO.P,REF\u002A\u002A,8*%
X111760000Y-208280000D03*
%TO.P,REF\u002A\u002A,9*%
X114300000Y-208280000D03*
%TO.P,REF\u002A\u002A,10*%
X116840000Y-208280000D03*
%TO.P,REF\u002A\u002A,11*%
X119380000Y-208280000D03*
%TO.P,REF\u002A\u002A,12*%
X121920000Y-208280000D03*
%TO.P,REF\u002A\u002A,13*%
X124460000Y-208280000D03*
%TO.P,REF\u002A\u002A,14*%
X127000000Y-208280000D03*
%TO.P,REF\u002A\u002A,15*%
X129540000Y-208280000D03*
%TO.P,REF\u002A\u002A,16*%
X132080000Y-208280000D03*
%TO.P,REF\u002A\u002A,18*%
X104140000Y-223520000D03*
%TO.P,REF\u002A\u002A,19*%
X106680000Y-223520000D03*
%TO.P,REF\u002A\u002A,20*%
X109220000Y-223520000D03*
%TO.P,REF\u002A\u002A,21*%
X111760000Y-223520000D03*
%TO.P,REF\u002A\u002A,22*%
X114300000Y-223520000D03*
%TO.P,REF\u002A\u002A,23*%
X116840000Y-223520000D03*
%TO.P,REF\u002A\u002A,24*%
X119380000Y-223520000D03*
%TO.P,REF\u002A\u002A,25*%
X121920000Y-223520000D03*
%TD*%
%TO.P,,25*%
%TO.N,N/C*%
X83820000Y-233680000D03*
%TD*%
%TO.P,,25*%
%TO.N,N/C*%
X83820000Y-243840000D03*
%TD*%
%TO.P,REF\u002A\u002A,1*%
%TO.N,N/C*%
X20320000Y-149860000D03*
%TO.P,REF\u002A\u002A,2*%
X22860000Y-149860000D03*
%TO.P,REF\u002A\u002A,3*%
X25400000Y-149860000D03*
%TO.P,REF\u002A\u002A,4*%
X27940000Y-149860000D03*
%TD*%
%TO.P,,25*%
%TO.N,N/C*%
X58420000Y-22860000D03*
%TD*%
%TO.P,REF\u002A\u002A,1*%
%TO.N,N/C*%
X96520000Y-78740000D03*
%TO.P,REF\u002A\u002A,2*%
X99060000Y-78740000D03*
%TO.P,REF\u002A\u002A,3*%
X101600000Y-78740000D03*
%TO.P,REF\u002A\u002A,4*%
X104140000Y-78740000D03*
%TD*%
%TO.P,,25*%
%TO.N,N/C*%
X83820000Y-236220000D03*
%TD*%
%TO.P,,25*%
%TO.N,N/C*%
X58420000Y-17780000D03*
%TD*%
%TO.P,REF\u002A\u002A,1*%
%TO.N,N/C*%
X20320000Y-96520000D03*
%TO.P,REF\u002A\u002A,2*%
X22860000Y-96520000D03*
%TO.P,REF\u002A\u002A,3*%
X25400000Y-96520000D03*
%TO.P,REF\u002A\u002A,4*%
X27940000Y-96520000D03*
%TD*%
%TO.P,REF\u002A\u002A,1*%
%TO.N,N/C*%
X96520000Y-25400000D03*
%TO.P,REF\u002A\u002A,2*%
X99060000Y-25400000D03*
%TO.P,REF\u002A\u002A,3*%
X101600000Y-25400000D03*
%TO.P,REF\u002A\u002A,4*%
X104140000Y-25400000D03*
%TD*%
%TO.P,,25*%
%TO.N,N/C*%
X83820000Y-241300000D03*
%TD*%
%TO.P,,25*%
%TO.N,N/C*%
X96520000Y-17780000D03*
%TD*%
%TO.P,REF\u002A\u002A,1*%
%TO.N,N/C*%
X20320000Y-185420000D03*
%TO.P,REF\u002A\u002A,2*%
X22860000Y-185420000D03*
%TO.P,REF\u002A\u002A,3*%
X25400000Y-185420000D03*
%TO.P,REF\u002A\u002A,4*%
X27940000Y-185420000D03*
%TD*%
%TO.P,REF\u002A\u002A,1*%
%TO.N,N/C*%
X96520000Y-60960000D03*
%TO.P,REF\u002A\u002A,2*%
X99060000Y-60960000D03*
%TO.P,REF\u002A\u002A,3*%
X101600000Y-60960000D03*
%TO.P,REF\u002A\u002A,4*%
X104140000Y-60960000D03*
%TD*%
%TO.P,REF\u002A\u002A,1*%
%TO.N,N/C*%
X96520000Y-167640000D03*
%TO.P,REF\u002A\u002A,2*%
X99060000Y-167640000D03*
%TO.P,REF\u002A\u002A,3*%
X101600000Y-167640000D03*
%TO.P,REF\u002A\u002A,4*%
X104140000Y-167640000D03*
%TD*%
%TO.P,REF\u002A\u002A,1*%
%TO.N,N/C*%
X20320000Y-43180000D03*
%TO.P,REF\u002A\u002A,2*%
X22860000Y-43180000D03*
%TO.P,REF\u002A\u002A,3*%
X25400000Y-43180000D03*
%TO.P,REF\u002A\u002A,4*%
X27940000Y-43180000D03*
%TD*%
%TO.P,,25*%
%TO.N,N/C*%
X119380000Y-20320000D03*
%TD*%
%TO.P,REF\u002A\u002A,1*%
%TO.N,N/C*%
X20320000Y-60960000D03*
%TO.P,REF\u002A\u002A,2*%
X22860000Y-60960000D03*
%TO.P,REF\u002A\u002A,3*%
X25400000Y-60960000D03*
%TO.P,REF\u002A\u002A,4*%
X27940000Y-60960000D03*
%TD*%
%TO.P,,25*%
%TO.N,N/C*%
X96520000Y-22860000D03*
%TD*%
%TO.P,REF\u002A\u002A,1*%
%TO.N,N/C*%
X58420000Y-25400000D03*
%TO.P,REF\u002A\u002A,2*%
X60960000Y-25400000D03*
%TO.P,REF\u002A\u002A,3*%
X63500000Y-25400000D03*
%TO.P,REF\u002A\u002A,4*%
X66040000Y-25400000D03*
%TD*%
%TO.P,,25*%
%TO.N,N/C*%
X83820000Y-238760000D03*
%TD*%
%TO.P,REF\u002A\u002A,1*%
%TO.N,N/C*%
X96520000Y-43180000D03*
%TO.P,REF\u002A\u002A,2*%
X99060000Y-43180000D03*
%TO.P,REF\u002A\u002A,3*%
X101600000Y-43180000D03*
%TO.P,REF\u002A\u002A,4*%
X104140000Y-43180000D03*
%TD*%
%TO.P,,25*%
%TO.N,N/C*%
X119380000Y-17780000D03*
%TD*%
%TO.P,REF\u002A\u002A,1*%
%TO.N,N/C*%
X96520000Y-114300000D03*
%TO.P,REF\u002A\u002A,2*%
X99060000Y-114300000D03*
%TO.P,REF\u002A\u002A,3*%
X101600000Y-114300000D03*
%TO.P,REF\u002A\u002A,4*%
X104140000Y-114300000D03*
%TD*%
%TO.P,REF\u002A\u002A,1*%
%TO.N,N/C*%
X58420000Y-167640000D03*
%TO.P,REF\u002A\u002A,2*%
X60960000Y-167640000D03*
%TO.P,REF\u002A\u002A,3*%
X63500000Y-167640000D03*
%TO.P,REF\u002A\u002A,4*%
X66040000Y-167640000D03*
%TD*%
%TO.P,REF\u002A\u002A,1*%
%TO.N,N/C*%
X20320000Y-78740000D03*
%TO.P,REF\u002A\u002A,2*%
X22860000Y-78740000D03*
%TO.P,REF\u002A\u002A,3*%
X25400000Y-78740000D03*
%TO.P,REF\u002A\u002A,4*%
X27940000Y-78740000D03*
%TD*%
%TO.P,REF\u002A\u002A,1*%
%TO.N,N/C*%
X20320000Y-167640000D03*
%TO.P,REF\u002A\u002A,2*%
X22860000Y-167640000D03*
%TO.P,REF\u002A\u002A,3*%
X25400000Y-167640000D03*
%TO.P,REF\u002A\u002A,4*%
X27940000Y-167640000D03*
%TD*%
%TO.P,REF\u002A\u002A,1*%
%TO.N,N/C*%
X58420000Y-132080000D03*
%TO.P,REF\u002A\u002A,2*%
X60960000Y-132080000D03*
%TO.P,REF\u002A\u002A,3*%
X63500000Y-132080000D03*
%TO.P,REF\u002A\u002A,4*%
X66040000Y-132080000D03*
%TD*%
%TO.P,REF\u002A\u002A,1*%
%TO.N,N/C*%
X30480000Y-208280000D03*
%TO.P,REF\u002A\u002A,2*%
X33020000Y-208280000D03*
%TO.P,REF\u002A\u002A,3*%
X35560000Y-208280000D03*
%TO.P,REF\u002A\u002A,4*%
X38100000Y-208280000D03*
%TO.P,REF\u002A\u002A,5*%
X40640000Y-208280000D03*
%TO.P,REF\u002A\u002A,6*%
X43180000Y-208280000D03*
%TO.P,REF\u002A\u002A,7*%
X45720000Y-208280000D03*
%TO.P,REF\u002A\u002A,8*%
X48260000Y-208280000D03*
%TO.P,REF\u002A\u002A,9*%
X50800000Y-208280000D03*
%TO.P,REF\u002A\u002A,10*%
X53340000Y-208280000D03*
%TO.P,REF\u002A\u002A,11*%
X55880000Y-208280000D03*
%TO.P,REF\u002A\u002A,12*%
X58420000Y-208280000D03*
%TO.P,REF\u002A\u002A,13*%
X60960000Y-208280000D03*
%TO.P,REF\u002A\u002A,14*%
X63500000Y-208280000D03*
%TO.P,REF\u002A\u002A,15*%
X66040000Y-208280000D03*
%TO.P,REF\u002A\u002A,16*%
X68580000Y-208280000D03*
%TO.P,REF\u002A\u002A,18*%
X40640000Y-223520000D03*
%TO.P,REF\u002A\u002A,19*%
X43180000Y-223520000D03*
%TO.P,REF\u002A\u002A,20*%
X45720000Y-223520000D03*
%TO.P,REF\u002A\u002A,21*%
X48260000Y-223520000D03*
%TO.P,REF\u002A\u002A,22*%
X50800000Y-223520000D03*
%TO.P,REF\u002A\u002A,23*%
X53340000Y-223520000D03*
%TO.P,REF\u002A\u002A,24*%
X55880000Y-223520000D03*
%TO.P,REF\u002A\u002A,25*%
X58420000Y-223520000D03*
%TD*%
%TO.P,REF\u002A\u002A,1*%
%TO.N,N/C*%
X20320000Y-132080000D03*
%TO.P,REF\u002A\u002A,2*%
X22860000Y-132080000D03*
%TO.P,REF\u002A\u002A,3*%
X25400000Y-132080000D03*
%TO.P,REF\u002A\u002A,4*%
X27940000Y-132080000D03*
%TD*%
%TO.P,REF\u002A\u002A,1*%
%TO.N,N/C*%
X58420000Y-60960000D03*
%TO.P,REF\u002A\u002A,2*%
X60960000Y-60960000D03*
%TO.P,REF\u002A\u002A,3*%
X63500000Y-60960000D03*
%TO.P,REF\u002A\u002A,4*%
X66040000Y-60960000D03*
%TD*%
%TO.P,,25*%
%TO.N,N/C*%
X83820000Y-231140000D03*
%TD*%
%TO.P,,25*%
%TO.N,N/C*%
X83820000Y-246380000D03*
%TD*%
%TO.P,REF\u002A\u002A,1*%
%TO.N,N/C*%
X58420000Y-185420000D03*
%TO.P,REF\u002A\u002A,2*%
X60960000Y-185420000D03*
%TO.P,REF\u002A\u002A,3*%
X63500000Y-185420000D03*
%TO.P,REF\u002A\u002A,4*%
X66040000Y-185420000D03*
%TD*%
%TO.P,REF\u002A\u002A,1*%
%TO.N,N/C*%
X96520000Y-132080000D03*
%TO.P,REF\u002A\u002A,2*%
X99060000Y-132080000D03*
%TO.P,REF\u002A\u002A,3*%
X101600000Y-132080000D03*
%TO.P,REF\u002A\u002A,4*%
X104140000Y-132080000D03*
%TD*%
%TO.P,REF\u002A\u002A,1*%
%TO.N,N/C*%
X58420000Y-114300000D03*
%TO.P,REF\u002A\u002A,2*%
X60960000Y-114300000D03*
%TO.P,REF\u002A\u002A,3*%
X63500000Y-114300000D03*
%TO.P,REF\u002A\u002A,4*%
X66040000Y-114300000D03*
%TD*%
%TO.P,REF\u002A\u002A,1*%
%TO.N,N/C*%
X58420000Y-78740000D03*
%TO.P,REF\u002A\u002A,2*%
X60960000Y-78740000D03*
%TO.P,REF\u002A\u002A,3*%
X63500000Y-78740000D03*
%TO.P,REF\u002A\u002A,4*%
X66040000Y-78740000D03*
%TD*%
D11*
X10160000Y-10160000D02*
X139700000Y-10160000D01*
X139700000Y-248920000D01*
X10160000Y-248920000D01*
X10160000Y-10160000D01*
M02*
