M48
; DRILL file {KiCad 9.0.7} date 2026-02-24T21:00:05-0500
; FORMAT={-:-/ absolute / metric / decimal}
; #@! TF.CreationDate,2026-02-24T21:00:05-05:00
; #@! TF.GenerationSoftware,Kicad,Pcbnew,9.0.7
; #@! TF.FileFunction,Plated,1,2,PTH
FMAT,2
METRIC
; #@! TA.AperFunction,Plated,PTH,ComponentDrill
T1C1.000
%
G90
G05
T1
X20.32Y-25.4
X20.32Y-43.18
X20.32Y-60.96
X20.32Y-78.74
X20.32Y-96.52
X20.32Y-114.3
X20.32Y-132.08
X20.32Y-149.86
X20.32Y-167.64
X20.32Y-185.42
X22.86Y-25.4
X22.86Y-43.18
X22.86Y-60.96
X22.86Y-78.74
X22.86Y-96.52
X22.86Y-114.3
X22.86Y-132.08
X22.86Y-149.86
X22.86Y-167.64
X22.86Y-185.42
X25.4Y-25.4
X25.4Y-43.18
X25.4Y-60.96
X25.4Y-78.74
X25.4Y-96.52
X25.4Y-114.3
X25.4Y-132.08
X25.4Y-149.86
X25.4Y-167.64
X25.4Y-185.42
X27.94Y-25.4
X27.94Y-43.18
X27.94Y-60.96
X27.94Y-78.74
X27.94Y-96.52
X27.94Y-114.3
X27.94Y-132.08
X27.94Y-149.86
X27.94Y-167.64
X27.94Y-185.42
X30.48Y-208.28
X33.02Y-208.28
X35.56Y-208.28
X38.1Y-208.28
X40.64Y-208.28
X40.64Y-223.52
X43.18Y-208.28
X43.18Y-223.52
X45.72Y-208.28
X45.72Y-223.52
X48.26Y-208.28
X48.26Y-223.52
X50.8Y-208.28
X50.8Y-223.52
X53.34Y-208.28
X53.34Y-223.52
X55.88Y-208.28
X55.88Y-223.52
X58.42Y-17.78
X58.42Y-22.86
X58.42Y-25.4
X58.42Y-43.18
X58.42Y-60.96
X58.42Y-78.74
X58.42Y-96.52
X58.42Y-114.3
X58.42Y-132.08
X58.42Y-149.86
X58.42Y-167.64
X58.42Y-185.42
X58.42Y-208.28
X58.42Y-223.52
X60.96Y-25.4
X60.96Y-43.18
X60.96Y-60.96
X60.96Y-78.74
X60.96Y-96.52
X60.96Y-114.3
X60.96Y-132.08
X60.96Y-149.86
X60.96Y-167.64
X60.96Y-185.42
X60.96Y-208.28
X63.5Y-25.4
X63.5Y-43.18
X63.5Y-60.96
X63.5Y-78.74
X63.5Y-96.52
X63.5Y-114.3
X63.5Y-132.08
X63.5Y-149.86
X63.5Y-167.64
X63.5Y-185.42
X63.5Y-208.28
X66.04Y-25.4
X66.04Y-43.18
X66.04Y-60.96
X66.04Y-78.74
X66.04Y-96.52
X66.04Y-114.3
X66.04Y-132.08
X66.04Y-149.86
X66.04Y-167.64
X66.04Y-185.42
X66.04Y-208.28
X68.58Y-208.28
X83.82Y-228.6
X83.82Y-231.14
X83.82Y-233.68
X83.82Y-236.22
X83.82Y-238.76
X83.82Y-241.3
X83.82Y-243.84
X83.82Y-246.38
X93.98Y-208.28
X96.52Y-17.78
X96.52Y-22.86
X96.52Y-25.4
X96.52Y-43.18
X96.52Y-60.96
X96.52Y-78.74
X96.52Y-96.52
X96.52Y-114.3
X96.52Y-132.08
X96.52Y-149.86
X96.52Y-167.64
X96.52Y-185.42
X96.52Y-208.28
X99.06Y-25.4
X99.06Y-43.18
X99.06Y-60.96
X99.06Y-78.74
X99.06Y-96.52
X99.06Y-114.3
X99.06Y-132.08
X99.06Y-149.86
X99.06Y-167.64
X99.06Y-185.42
X99.06Y-208.28
X101.6Y-25.4
X101.6Y-43.18
X101.6Y-60.96
X101.6Y-78.74
X101.6Y-96.52
X101.6Y-114.3
X101.6Y-132.08
X101.6Y-149.86
X101.6Y-167.64
X101.6Y-185.42
X101.6Y-208.28
X104.14Y-25.4
X104.14Y-43.18
X104.14Y-60.96
X104.14Y-78.74
X104.14Y-96.52
X104.14Y-114.3
X104.14Y-132.08
X104.14Y-149.86
X104.14Y-167.64
X104.14Y-185.42
X104.14Y-208.28
X104.14Y-223.52
X106.68Y-208.28
X106.68Y-223.52
X109.22Y-208.28
X109.22Y-223.52
X111.76Y-208.28
X111.76Y-223.52
X114.3Y-208.28
X114.3Y-223.52
X116.84Y-208.28
X116.84Y-223.52
X119.38Y-17.78
X119.38Y-20.32
X119.38Y-208.28
X119.38Y-223.52
X121.92Y-208.28
X121.92Y-223.52
X124.46Y-208.28
X127.0Y-208.28
X129.54Y-208.28
X132.08Y-208.28
M30
