<?xml version="1.0" standalone="no"?>
 <!DOCTYPE svg PUBLIC "-//W3C//DTD SVG 1.1//EN" 
 "http://www.w3.org/Graphics/SVG/1.1/DTD/svg11.dtd"> 
<svg
  xmlns:svg="http://www.w3.org/2000/svg"
  xmlns="http://www.w3.org/2000/svg"
  xmlns:xlink="http://www.w3.org/1999/xlink"
  version="1.1"
  width="149.9870mm" height="299.9994mm" viewBox="0.0000 0.0000 149.9870 299.9994">
<title>SVG Image created as MONGO_PCB-F_Cu.svg date 2026/02/24 13:09:31 </title>
  <desc>Image generated by PCBNEW </desc>
<g style="fill:#000000; fill-opacity:1.0000;stroke:#000000; stroke-opacity:1.0000;
stroke-linecap:round; stroke-linejoin:round;"
 transform="translate(0 0) scale(1 1)">
<path style="fill:none; 
stroke:#000000; stroke-width:0.5000; stroke-opacity:1; 
stroke-linecap:round; stroke-linejoin:round;fill:none"
d="M 12.7000,203.2000
25.4000,203.2000
25.4000,246.3800
12.7000,246.3800
Z" /> 
</g>
<g style="fill:none; 
stroke:#000000; stroke-width:0.2500; stroke-opacity:1; 
stroke-linecap:round; stroke-linejoin:round;">
<g transform="rotate(-90.000000 22.7856 245.9613)">
<text x="22.7856" y="245.9613"
textLength="31.0167" font-size="2.6667" lengthAdjust="spacingAndGlyphs"
text-anchor="start" opacity="0" stroke-opacity="0">Desing by: SR21107</text>
</g>
<g class="stroked-text"><desc>Desing by: SR21107</desc>
<path d="M22.5278 245.3207
L20.5278 245.3207
" />
<path d="M20.5278 245.3207
L20.5278 244.8445
" />
<path d="M20.5278 244.8445
L20.6230 244.5587
" />
<path d="M20.6230 244.5587
L20.8135 244.3683
" />
<path d="M20.8135 244.3683
L21.0040 244.2730
" />
<path d="M21.0040 244.2730
L21.3849 244.1778
" />
<path d="M21.3849 244.1778
L21.6707 244.1778
" />
<path d="M21.6707 244.1778
L22.0516 244.2730
" />
<path d="M22.0516 244.2730
L22.2421 244.3683
" />
<path d="M22.2421 244.3683
L22.4326 244.5587
" />
<path d="M22.4326 244.5587
L22.5278 244.8445
" />
<path d="M22.5278 244.8445
L22.5278 245.3207
" />
<path d="M22.4326 242.5587
L22.5278 242.7492
" />
<path d="M22.5278 242.7492
L22.5278 243.1302
" />
<path d="M22.5278 243.1302
L22.4326 243.3207
" />
<path d="M22.4326 243.3207
L22.2421 243.4159
" />
<path d="M22.2421 243.4159
L21.4802 243.4159
" />
<path d="M21.4802 243.4159
L21.2897 243.3207
" />
<path d="M21.2897 243.3207
L21.1945 243.1302
" />
<path d="M21.1945 243.1302
L21.1945 242.7492
" />
<path d="M21.1945 242.7492
L21.2897 242.5587
" />
<path d="M21.2897 242.5587
L21.4802 242.4635
" />
<path d="M21.4802 242.4635
L21.6707 242.4635
" />
<path d="M21.6707 242.4635
L21.8611 243.4159
" />
<path d="M22.4326 241.7016
L22.5278 241.5111
" />
<path d="M22.5278 241.5111
L22.5278 241.1302
" />
<path d="M22.5278 241.1302
L22.4326 240.9397
" />
<path d="M22.4326 240.9397
L22.2421 240.8445
" />
<path d="M22.2421 240.8445
L22.1469 240.8445
" />
<path d="M22.1469 240.8445
L21.9564 240.9397
" />
<path d="M21.9564 240.9397
L21.8611 241.1302
" />
<path d="M21.8611 241.1302
L21.8611 241.4159
" />
<path d="M21.8611 241.4159
L21.7659 241.6064
" />
<path d="M21.7659 241.6064
L21.5754 241.7016
" />
<path d="M21.5754 241.7016
L21.4802 241.7016
" />
<path d="M21.4802 241.7016
L21.2897 241.6064
" />
<path d="M21.2897 241.6064
L21.1945 241.4159
" />
<path d="M21.1945 241.4159
L21.1945 241.1302
" />
<path d="M21.1945 241.1302
L21.2897 240.9397
" />
<path d="M22.5278 239.9873
L21.1945 239.9873
" />
<path d="M20.5278 239.9873
L20.6230 240.0826
" />
<path d="M20.6230 240.0826
L20.7183 239.9873
" />
<path d="M20.7183 239.9873
L20.6230 239.8921
" />
<path d="M20.6230 239.8921
L20.5278 239.9873
" />
<path d="M20.5278 239.9873
L20.7183 239.9873
" />
<path d="M21.1945 239.0349
L22.5278 239.0349
" />
<path d="M21.3849 239.0349
L21.2897 238.9397
" />
<path d="M21.2897 238.9397
L21.1945 238.7492
" />
<path d="M21.1945 238.7492
L21.1945 238.4635
" />
<path d="M21.1945 238.4635
L21.2897 238.2730
" />
<path d="M21.2897 238.2730
L21.4802 238.1778
" />
<path d="M21.4802 238.1778
L22.5278 238.1778
" />
<path d="M21.1945 236.3683
L22.8135 236.3683
" />
<path d="M22.8135 236.3683
L23.0040 236.4635
" />
<path d="M23.0040 236.4635
L23.0992 236.5587
" />
<path d="M23.0992 236.5587
L23.1945 236.7492
" />
<path d="M23.1945 236.7492
L23.1945 237.0349
" />
<path d="M23.1945 237.0349
L23.0992 237.2254
" />
<path d="M22.4326 236.3683
L22.5278 236.5587
" />
<path d="M22.5278 236.5587
L22.5278 236.9397
" />
<path d="M22.5278 236.9397
L22.4326 237.1302
" />
<path d="M22.4326 237.1302
L22.3373 237.2254
" />
<path d="M22.3373 237.2254
L22.1469 237.3207
" />
<path d="M22.1469 237.3207
L21.5754 237.3207
" />
<path d="M21.5754 237.3207
L21.3849 237.2254
" />
<path d="M21.3849 237.2254
L21.2897 237.1302
" />
<path d="M21.2897 237.1302
L21.1945 236.9397
" />
<path d="M21.1945 236.9397
L21.1945 236.5587
" />
<path d="M21.1945 236.5587
L21.2897 236.3683
" />
<path d="M22.5278 233.8921
L20.5278 233.8921
" />
<path d="M21.2897 233.8921
L21.1945 233.7016
" />
<path d="M21.1945 233.7016
L21.1945 233.3207
" />
<path d="M21.1945 233.3207
L21.2897 233.1302
" />
<path d="M21.2897 233.1302
L21.3849 233.0349
" />
<path d="M21.3849 233.0349
L21.5754 232.9397
" />
<path d="M21.5754 232.9397
L22.1469 232.9397
" />
<path d="M22.1469 232.9397
L22.3373 233.0349
" />
<path d="M22.3373 233.0349
L22.4326 233.1302
" />
<path d="M22.4326 233.1302
L22.5278 233.3207
" />
<path d="M22.5278 233.3207
L22.5278 233.7016
" />
<path d="M22.5278 233.7016
L22.4326 233.8921
" />
<path d="M21.1945 232.2730
L22.5278 231.7968
" />
<path d="M21.1945 231.3207
L22.5278 231.7968
" />
<path d="M22.5278 231.7968
L23.0040 231.9873
" />
<path d="M23.0040 231.9873
L23.0992 232.0826
" />
<path d="M23.0992 232.0826
L23.1945 232.2730
" />
<path d="M22.3373 230.5587
L22.4326 230.4635
" />
<path d="M22.4326 230.4635
L22.5278 230.5587
" />
<path d="M22.5278 230.5587
L22.4326 230.6540
" />
<path d="M22.4326 230.6540
L22.3373 230.5587
" />
<path d="M22.3373 230.5587
L22.5278 230.5587
" />
<path d="M21.2897 230.5587
L21.3849 230.4635
" />
<path d="M21.3849 230.4635
L21.4802 230.5587
" />
<path d="M21.4802 230.5587
L21.3849 230.6540
" />
<path d="M21.3849 230.6540
L21.2897 230.5587
" />
<path d="M21.2897 230.5587
L21.4802 230.5587
" />
<path d="M22.4326 228.1778
L22.5278 227.8921
" />
<path d="M22.5278 227.8921
L22.5278 227.4159
" />
<path d="M22.5278 227.4159
L22.4326 227.2254
" />
<path d="M22.4326 227.2254
L22.3373 227.1302
" />
<path d="M22.3373 227.1302
L22.1469 227.0349
" />
<path d="M22.1469 227.0349
L21.9564 227.0349
" />
<path d="M21.9564 227.0349
L21.7659 227.1302
" />
<path d="M21.7659 227.1302
L21.6707 227.2254
" />
<path d="M21.6707 227.2254
L21.5754 227.4159
" />
<path d="M21.5754 227.4159
L21.4802 227.7968
" />
<path d="M21.4802 227.7968
L21.3849 227.9873
" />
<path d="M21.3849 227.9873
L21.2897 228.0826
" />
<path d="M21.2897 228.0826
L21.0992 228.1778
" />
<path d="M21.0992 228.1778
L20.9088 228.1778
" />
<path d="M20.9088 228.1778
L20.7183 228.0826
" />
<path d="M20.7183 228.0826
L20.6230 227.9873
" />
<path d="M20.6230 227.9873
L20.5278 227.7968
" />
<path d="M20.5278 227.7968
L20.5278 227.3207
" />
<path d="M20.5278 227.3207
L20.6230 227.0349
" />
<path d="M22.5278 225.0349
L21.5754 225.7016
" />
<path d="M22.5278 226.1778
L20.5278 226.1778
" />
<path d="M20.5278 226.1778
L20.5278 225.4159
" />
<path d="M20.5278 225.4159
L20.6230 225.2254
" />
<path d="M20.6230 225.2254
L20.7183 225.1302
" />
<path d="M20.7183 225.1302
L20.9088 225.0349
" />
<path d="M20.9088 225.0349
L21.1945 225.0349
" />
<path d="M21.1945 225.0349
L21.3849 225.1302
" />
<path d="M21.3849 225.1302
L21.4802 225.2254
" />
<path d="M21.4802 225.2254
L21.5754 225.4159
" />
<path d="M21.5754 225.4159
L21.5754 226.1778
" />
<path d="M20.7183 224.2730
L20.6230 224.1778
" />
<path d="M20.6230 224.1778
L20.5278 223.9873
" />
<path d="M20.5278 223.9873
L20.5278 223.5111
" />
<path d="M20.5278 223.5111
L20.6230 223.3207
" />
<path d="M20.6230 223.3207
L20.7183 223.2254
" />
<path d="M20.7183 223.2254
L20.9088 223.1302
" />
<path d="M20.9088 223.1302
L21.0992 223.1302
" />
<path d="M21.0992 223.1302
L21.3849 223.2254
" />
<path d="M21.3849 223.2254
L22.5278 224.3683
" />
<path d="M22.5278 224.3683
L22.5278 223.1302
" />
<path d="M22.5278 221.2254
L22.5278 222.3683
" />
<path d="M22.5278 221.7968
L20.5278 221.7968
" />
<path d="M20.5278 221.7968
L20.8135 221.9873
" />
<path d="M20.8135 221.9873
L21.0040 222.1778
" />
<path d="M21.0040 222.1778
L21.0992 222.3683
" />
<path d="M22.5278 219.3207
L22.5278 220.4635
" />
<path d="M22.5278 219.8921
L20.5278 219.8921
" />
<path d="M20.5278 219.8921
L20.8135 220.0826
" />
<path d="M20.8135 220.0826
L21.0040 220.2730
" />
<path d="M21.0040 220.2730
L21.0992 220.4635
" />
<path d="M20.5278 218.0826
L20.5278 217.8921
" />
<path d="M20.5278 217.8921
L20.6230 217.7016
" />
<path d="M20.6230 217.7016
L20.7183 217.6064
" />
<path d="M20.7183 217.6064
L20.9088 217.5111
" />
<path d="M20.9088 217.5111
L21.2897 217.4159
" />
<path d="M21.2897 217.4159
L21.7659 217.4159
" />
<path d="M21.7659 217.4159
L22.1469 217.5111
" />
<path d="M22.1469 217.5111
L22.3373 217.6064
" />
<path d="M22.3373 217.6064
L22.4326 217.7016
" />
<path d="M22.4326 217.7016
L22.5278 217.8921
" />
<path d="M22.5278 217.8921
L22.5278 218.0826
" />
<path d="M22.5278 218.0826
L22.4326 218.2730
" />
<path d="M22.4326 218.2730
L22.3373 218.3683
" />
<path d="M22.3373 218.3683
L22.1469 218.4635
" />
<path d="M22.1469 218.4635
L21.7659 218.5587
" />
<path d="M21.7659 218.5587
L21.2897 218.5587
" />
<path d="M21.2897 218.5587
L20.9088 218.4635
" />
<path d="M20.9088 218.4635
L20.7183 218.3683
" />
<path d="M20.7183 218.3683
L20.6230 218.2730
" />
<path d="M20.6230 218.2730
L20.5278 218.0826
" />
<path d="M20.5278 216.7492
L20.5278 215.4159
" />
<path d="M20.5278 215.4159
L22.5278 216.2730
" />
</g></g>
<g style="fill:none; 
stroke:#000000; stroke-width:0.4375; stroke-opacity:1; 
stroke-linecap:round; stroke-linejoin:round;">
<g transform="rotate(-90.000000 18.6546 246.2590)">
<text x="18.6546" y="246.2590"
textLength="42.1125" font-size="4.6667" lengthAdjust="spacingAndGlyphs"
text-anchor="start" opacity="0" stroke-opacity="0">MONGO_GARDEN</text>
</g>
<g class="stroked-text"><desc>MONGO_GARDEN</desc>
<path d="M18.2035 245.1379
L14.7035 245.1379
" />
<path d="M14.7035 245.1379
L17.2035 243.9712
" />
<path d="M17.2035 243.9712
L14.7035 242.8046
" />
<path d="M14.7035 242.8046
L18.2035 242.8046
" />
<path d="M14.7035 240.4712
L14.7035 239.8046
" />
<path d="M14.7035 239.8046
L14.8702 239.4712
" />
<path d="M14.8702 239.4712
L15.2035 239.1379
" />
<path d="M15.2035 239.1379
L15.8702 238.9712
" />
<path d="M15.8702 238.9712
L17.0368 238.9712
" />
<path d="M17.0368 238.9712
L17.7035 239.1379
" />
<path d="M17.7035 239.1379
L18.0368 239.4712
" />
<path d="M18.0368 239.4712
L18.2035 239.8046
" />
<path d="M18.2035 239.8046
L18.2035 240.4712
" />
<path d="M18.2035 240.4712
L18.0368 240.8046
" />
<path d="M18.0368 240.8046
L17.7035 241.1379
" />
<path d="M17.7035 241.1379
L17.0368 241.3046
" />
<path d="M17.0368 241.3046
L15.8702 241.3046
" />
<path d="M15.8702 241.3046
L15.2035 241.1379
" />
<path d="M15.2035 241.1379
L14.8702 240.8046
" />
<path d="M14.8702 240.8046
L14.7035 240.4712
" />
<path d="M18.2035 237.4712
L14.7035 237.4712
" />
<path d="M14.7035 237.4712
L18.2035 235.4712
" />
<path d="M18.2035 235.4712
L14.7035 235.4712
" />
<path d="M14.8702 231.9712
L14.7035 232.3046
" />
<path d="M14.7035 232.3046
L14.7035 232.8046
" />
<path d="M14.7035 232.8046
L14.8702 233.3046
" />
<path d="M14.8702 233.3046
L15.2035 233.6379
" />
<path d="M15.2035 233.6379
L15.5368 233.8046
" />
<path d="M15.5368 233.8046
L16.2035 233.9712
" />
<path d="M16.2035 233.9712
L16.7035 233.9712
" />
<path d="M16.7035 233.9712
L17.3702 233.8046
" />
<path d="M17.3702 233.8046
L17.7035 233.6379
" />
<path d="M17.7035 233.6379
L18.0368 233.3046
" />
<path d="M18.0368 233.3046
L18.2035 232.8046
" />
<path d="M18.2035 232.8046
L18.2035 232.4712
" />
<path d="M18.2035 232.4712
L18.0368 231.9712
" />
<path d="M18.0368 231.9712
L17.8702 231.8046
" />
<path d="M17.8702 231.8046
L16.7035 231.8046
" />
<path d="M16.7035 231.8046
L16.7035 232.4712
" />
<path d="M14.7035 229.6379
L14.7035 228.9712
" />
<path d="M14.7035 228.9712
L14.8702 228.6379
" />
<path d="M14.8702 228.6379
L15.2035 228.3046
" />
<path d="M15.2035 228.3046
L15.8702 228.1379
" />
<path d="M15.8702 228.1379
L17.0368 228.1379
" />
<path d="M17.0368 228.1379
L17.7035 228.3046
" />
<path d="M17.7035 228.3046
L18.0368 228.6379
" />
<path d="M18.0368 228.6379
L18.2035 228.9712
" />
<path d="M18.2035 228.9712
L18.2035 229.6379
" />
<path d="M18.2035 229.6379
L18.0368 229.9712
" />
<path d="M18.0368 229.9712
L17.7035 230.3046
" />
<path d="M17.7035 230.3046
L17.0368 230.4712
" />
<path d="M17.0368 230.4712
L15.8702 230.4712
" />
<path d="M15.8702 230.4712
L15.2035 230.3046
" />
<path d="M15.2035 230.3046
L14.8702 229.9712
" />
<path d="M14.8702 229.9712
L14.7035 229.6379
" />
<path d="M18.5368 227.4712
L18.5368 224.8046
" />
<path d="M14.8702 222.1379
L14.7035 222.4712
" />
<path d="M14.7035 222.4712
L14.7035 222.9712
" />
<path d="M14.7035 222.9712
L14.8702 223.4712
" />
<path d="M14.8702 223.4712
L15.2035 223.8046
" />
<path d="M15.2035 223.8046
L15.5368 223.9712
" />
<path d="M15.5368 223.9712
L16.2035 224.1379
" />
<path d="M16.2035 224.1379
L16.7035 224.1379
" />
<path d="M16.7035 224.1379
L17.3702 223.9712
" />
<path d="M17.3702 223.9712
L17.7035 223.8046
" />
<path d="M17.7035 223.8046
L18.0368 223.4712
" />
<path d="M18.0368 223.4712
L18.2035 222.9712
" />
<path d="M18.2035 222.9712
L18.2035 222.6379
" />
<path d="M18.2035 222.6379
L18.0368 222.1379
" />
<path d="M18.0368 222.1379
L17.8702 221.9712
" />
<path d="M17.8702 221.9712
L16.7035 221.9712
" />
<path d="M16.7035 221.9712
L16.7035 222.6379
" />
<path d="M17.2035 220.6379
L17.2035 218.9712
" />
<path d="M18.2035 220.9712
L14.7035 219.8046
" />
<path d="M14.7035 219.8046
L18.2035 218.6379
" />
<path d="M18.2035 215.4712
L16.5368 216.6379
" />
<path d="M18.2035 217.4712
L14.7035 217.4712
" />
<path d="M14.7035 217.4712
L14.7035 216.1379
" />
<path d="M14.7035 216.1379
L14.8702 215.8046
" />
<path d="M14.8702 215.8046
L15.0368 215.6379
" />
<path d="M15.0368 215.6379
L15.3702 215.4712
" />
<path d="M15.3702 215.4712
L15.8702 215.4712
" />
<path d="M15.8702 215.4712
L16.2035 215.6379
" />
<path d="M16.2035 215.6379
L16.3702 215.8046
" />
<path d="M16.3702 215.8046
L16.5368 216.1379
" />
<path d="M16.5368 216.1379
L16.5368 217.4712
" />
<path d="M18.2035 213.9712
L14.7035 213.9712
" />
<path d="M14.7035 213.9712
L14.7035 213.1379
" />
<path d="M14.7035 213.1379
L14.8702 212.6379
" />
<path d="M14.8702 212.6379
L15.2035 212.3046
" />
<path d="M15.2035 212.3046
L15.5368 212.1379
" />
<path d="M15.5368 212.1379
L16.2035 211.9712
" />
<path d="M16.2035 211.9712
L16.7035 211.9712
" />
<path d="M16.7035 211.9712
L17.3702 212.1379
" />
<path d="M17.3702 212.1379
L17.7035 212.3046
" />
<path d="M17.7035 212.3046
L18.0368 212.6379
" />
<path d="M18.0368 212.6379
L18.2035 213.1379
" />
<path d="M18.2035 213.1379
L18.2035 213.9712
" />
<path d="M16.3702 210.4712
L16.3702 209.3046
" />
<path d="M18.2035 208.8046
L18.2035 210.4712
" />
<path d="M18.2035 210.4712
L14.7035 210.4712
" />
<path d="M14.7035 210.4712
L14.7035 208.8046
" />
<path d="M18.2035 207.3045
L14.7035 207.3045
" />
<path d="M14.7035 207.3045
L18.2035 205.3045
" />
<path d="M18.2035 205.3045
L14.7035 205.3045
" />
</g></g>
<g style="fill:none; 
stroke:#000000; stroke-width:0.1500; stroke-opacity:1; 
stroke-linecap:round; stroke-linejoin:round;">
<g transform="rotate(-90.000000 24.6960 207.8086)">
<text x="24.6960" y="207.8086"
textLength="4.0595" font-size="1.3333" lengthAdjust="spacingAndGlyphs"
text-anchor="start" opacity="0" stroke-opacity="0">2026</text>
</g>
<g class="stroked-text"><desc>2026</desc>
<path d="M23.6611 207.5194
L23.6134 207.4718
" />
<path d="M23.6134 207.4718
L23.5658 207.3766
" />
<path d="M23.5658 207.3766
L23.5658 207.1385
" />
<path d="M23.5658 207.1385
L23.6134 207.0432
" />
<path d="M23.6134 207.0432
L23.6611 206.9956
" />
<path d="M23.6611 206.9956
L23.7563 206.9480
" />
<path d="M23.7563 206.9480
L23.8515 206.9480
" />
<path d="M23.8515 206.9480
L23.9944 206.9956
" />
<path d="M23.9944 206.9956
L24.5658 207.5671
" />
<path d="M24.5658 207.5671
L24.5658 206.9480
" />
<path d="M23.5658 206.3290
L23.5658 206.2337
" />
<path d="M23.5658 206.2337
L23.6134 206.1385
" />
<path d="M23.6134 206.1385
L23.6611 206.0909
" />
<path d="M23.6611 206.0909
L23.7563 206.0432
" />
<path d="M23.7563 206.0432
L23.9468 205.9956
" />
<path d="M23.9468 205.9956
L24.1849 205.9956
" />
<path d="M24.1849 205.9956
L24.3753 206.0432
" />
<path d="M24.3753 206.0432
L24.4706 206.0909
" />
<path d="M24.4706 206.0909
L24.5182 206.1385
" />
<path d="M24.5182 206.1385
L24.5658 206.2337
" />
<path d="M24.5658 206.2337
L24.5658 206.3290
" />
<path d="M24.5658 206.3290
L24.5182 206.4242
" />
<path d="M24.5182 206.4242
L24.4706 206.4718
" />
<path d="M24.4706 206.4718
L24.3753 206.5194
" />
<path d="M24.3753 206.5194
L24.1849 206.5671
" />
<path d="M24.1849 206.5671
L23.9468 206.5671
" />
<path d="M23.9468 206.5671
L23.7563 206.5194
" />
<path d="M23.7563 206.5194
L23.6611 206.4718
" />
<path d="M23.6611 206.4718
L23.6134 206.4242
" />
<path d="M23.6134 206.4242
L23.5658 206.3290
" />
<path d="M23.6611 205.6147
L23.6134 205.5671
" />
<path d="M23.6134 205.5671
L23.5658 205.4718
" />
<path d="M23.5658 205.4718
L23.5658 205.2337
" />
<path d="M23.5658 205.2337
L23.6134 205.1385
" />
<path d="M23.6134 205.1385
L23.6611 205.0909
" />
<path d="M23.6611 205.0909
L23.7563 205.0432
" />
<path d="M23.7563 205.0432
L23.8515 205.0432
" />
<path d="M23.8515 205.0432
L23.9944 205.0909
" />
<path d="M23.9944 205.0909
L24.5658 205.6623
" />
<path d="M24.5658 205.6623
L24.5658 205.0432
" />
<path d="M23.5658 204.1861
L23.5658 204.3766
" />
<path d="M23.5658 204.3766
L23.6134 204.4718
" />
<path d="M23.6134 204.4718
L23.6611 204.5194
" />
<path d="M23.6611 204.5194
L23.8039 204.6147
" />
<path d="M23.8039 204.6147
L23.9944 204.6623
" />
<path d="M23.9944 204.6623
L24.3753 204.6623
" />
<path d="M24.3753 204.6623
L24.4706 204.6147
" />
<path d="M24.4706 204.6147
L24.5182 204.5671
" />
<path d="M24.5182 204.5671
L24.5658 204.4718
" />
<path d="M24.5658 204.4718
L24.5658 204.2813
" />
<path d="M24.5658 204.2813
L24.5182 204.1861
" />
<path d="M24.5182 204.1861
L24.4706 204.1385
" />
<path d="M24.4706 204.1385
L24.3753 204.0909
" />
<path d="M24.3753 204.0909
L24.1372 204.0909
" />
<path d="M24.1372 204.0909
L24.0420 204.1385
" />
<path d="M24.0420 204.1385
L23.9944 204.1861
" />
<path d="M23.9944 204.1861
L23.9468 204.2813
" />
<path d="M23.9468 204.2813
L23.9468 204.4718
" />
<path d="M23.9468 204.4718
L23.9944 204.5671
" />
<path d="M23.9944 204.5671
L24.0420 204.6147
" />
<path d="M24.0420 204.6147
L24.1372 204.6623
" />
</g></g>
<g style="fill:#000000; fill-opacity:1.0000; stroke:none;">
<circle cx="20.3200" cy="114.3000" r="1.0160" /> 
</g>
<g style="fill:#000000; fill-opacity:1.0000; stroke:none;">
<circle cx="22.8600" cy="114.3000" r="1.0160" /> 
</g>
<g style="fill:#000000; fill-opacity:1.0000; stroke:none;">
<circle cx="25.4000" cy="114.3000" r="1.0160" /> 
</g>
<g style="fill:#000000; fill-opacity:1.0000; stroke:none;">
<circle cx="27.9400" cy="114.3000" r="1.0160" /> 
</g>
<g style="fill:#000000; fill-opacity:1.0000; stroke:none;">
<circle cx="58.4200" cy="149.8600" r="1.0160" /> 
</g>
<g style="fill:#000000; fill-opacity:1.0000; stroke:none;">
<circle cx="60.9600" cy="149.8600" r="1.0160" /> 
</g>
<g style="fill:#000000; fill-opacity:1.0000; stroke:none;">
<circle cx="63.5000" cy="149.8600" r="1.0160" /> 
</g>
<g style="fill:#000000; fill-opacity:1.0000; stroke:none;">
<circle cx="66.0400" cy="149.8600" r="1.0160" /> 
</g>
<g style="fill:#000000; fill-opacity:1.0000; stroke:none;">
<circle cx="96.5200" cy="96.5200" r="1.0160" /> 
</g>
<g style="fill:#000000; fill-opacity:1.0000; stroke:none;">
<circle cx="99.0600" cy="96.5200" r="1.0160" /> 
</g>
<g style="fill:#000000; fill-opacity:1.0000; stroke:none;">
<circle cx="101.6000" cy="96.5200" r="1.0160" /> 
</g>
<g style="fill:#000000; fill-opacity:1.0000; stroke:none;">
<circle cx="104.1400" cy="96.5200" r="1.0160" /> 
</g>
<g style="fill:#000000; fill-opacity:1.0000; stroke:none;">
<circle cx="96.5200" cy="149.8600" r="1.0160" /> 
</g>
<g style="fill:#000000; fill-opacity:1.0000; stroke:none;">
<circle cx="99.0600" cy="149.8600" r="1.0160" /> 
</g>
<g style="fill:#000000; fill-opacity:1.0000; stroke:none;">
<circle cx="101.6000" cy="149.8600" r="1.0160" /> 
</g>
<g style="fill:#000000; fill-opacity:1.0000; stroke:none;">
<circle cx="104.1400" cy="149.8600" r="1.0160" /> 
</g>
<g style="fill:#000000; fill-opacity:1.0000; stroke:none;">
<circle cx="96.5200" cy="185.4200" r="1.0160" /> 
</g>
<g style="fill:#000000; fill-opacity:1.0000; stroke:none;">
<circle cx="99.0600" cy="185.4200" r="1.0160" /> 
</g>
<g style="fill:#000000; fill-opacity:1.0000; stroke:none;">
<circle cx="101.6000" cy="185.4200" r="1.0160" /> 
</g>
<g style="fill:#000000; fill-opacity:1.0000; stroke:none;">
<circle cx="104.1400" cy="185.4200" r="1.0160" /> 
</g>
<g style="fill:#000000; fill-opacity:1.0000; stroke:none;">
<circle cx="83.8200" cy="228.6000" r="1.0160" /> 
</g>
<g style="fill:#000000; fill-opacity:1.0000; stroke:none;">
<circle cx="58.4200" cy="43.1800" r="1.0160" /> 
</g>
<g style="fill:#000000; fill-opacity:1.0000; stroke:none;">
<circle cx="60.9600" cy="43.1800" r="1.0160" /> 
</g>
<g style="fill:#000000; fill-opacity:1.0000; stroke:none;">
<circle cx="63.5000" cy="43.1800" r="1.0160" /> 
</g>
<g style="fill:#000000; fill-opacity:1.0000; stroke:none;">
<circle cx="66.0400" cy="43.1800" r="1.0160" /> 
</g>
<g style="fill:#000000; fill-opacity:1.0000; stroke:none;">
<circle cx="58.4200" cy="96.5200" r="1.0160" /> 
</g>
<g style="fill:#000000; fill-opacity:1.0000; stroke:none;">
<circle cx="60.9600" cy="96.5200" r="1.0160" /> 
</g>
<g style="fill:#000000; fill-opacity:1.0000; stroke:none;">
<circle cx="63.5000" cy="96.5200" r="1.0160" /> 
</g>
<g style="fill:#000000; fill-opacity:1.0000; stroke:none;">
<circle cx="66.0400" cy="96.5200" r="1.0160" /> 
</g>
<g style="fill:#000000; fill-opacity:1.0000; stroke:none;">
<circle cx="20.3200" cy="25.4000" r="1.0160" /> 
</g>
<g style="fill:#000000; fill-opacity:1.0000; stroke:none;">
<circle cx="22.8600" cy="25.4000" r="1.0160" /> 
</g>
<g style="fill:#000000; fill-opacity:1.0000; stroke:none;">
<circle cx="25.4000" cy="25.4000" r="1.0160" /> 
</g>
<g style="fill:#000000; fill-opacity:1.0000; stroke:none;">
<circle cx="27.9400" cy="25.4000" r="1.0160" /> 
</g>
<g style="fill:#000000; fill-opacity:1.0000; stroke:none;">
<circle cx="93.9800" cy="208.2800" r="1.0160" /> 
</g>
<g style="fill:#000000; fill-opacity:1.0000; stroke:none;">
<circle cx="96.5200" cy="208.2800" r="1.0160" /> 
</g>
<g style="fill:#000000; fill-opacity:1.0000; stroke:none;">
<circle cx="99.0600" cy="208.2800" r="1.0160" /> 
</g>
<g style="fill:#000000; fill-opacity:1.0000; stroke:none;">
<circle cx="101.6000" cy="208.2800" r="1.0160" /> 
</g>
<g style="fill:#000000; fill-opacity:1.0000; stroke:none;">
<circle cx="104.1400" cy="208.2800" r="1.0160" /> 
</g>
<g style="fill:#000000; fill-opacity:1.0000; stroke:none;">
<circle cx="106.6800" cy="208.2800" r="1.0160" /> 
</g>
<g style="fill:#000000; fill-opacity:1.0000; stroke:none;">
<circle cx="109.2200" cy="208.2800" r="1.0160" /> 
</g>
<g style="fill:#000000; fill-opacity:1.0000; stroke:none;">
<circle cx="111.7600" cy="208.2800" r="1.0160" /> 
</g>
<g style="fill:#000000; fill-opacity:1.0000; stroke:none;">
<circle cx="114.3000" cy="208.2800" r="1.0160" /> 
</g>
<g style="fill:#000000; fill-opacity:1.0000; stroke:none;">
<circle cx="116.8400" cy="208.2800" r="1.0160" /> 
</g>
<g style="fill:#000000; fill-opacity:1.0000; stroke:none;">
<circle cx="119.3800" cy="208.2800" r="1.0160" /> 
</g>
<g style="fill:#000000; fill-opacity:1.0000; stroke:none;">
<circle cx="121.9200" cy="208.2800" r="1.0160" /> 
</g>
<g style="fill:#000000; fill-opacity:1.0000; stroke:none;">
<circle cx="124.4600" cy="208.2800" r="1.0160" /> 
</g>
<g style="fill:#000000; fill-opacity:1.0000; stroke:none;">
<circle cx="127.0000" cy="208.2800" r="1.0160" /> 
</g>
<g style="fill:#000000; fill-opacity:1.0000; stroke:none;">
<circle cx="129.5400" cy="208.2800" r="1.0160" /> 
</g>
<g style="fill:#000000; fill-opacity:1.0000; stroke:none;">
<circle cx="132.0800" cy="208.2800" r="1.0160" /> 
</g>
<g style="fill:#000000; fill-opacity:1.0000; stroke:none;">
<circle cx="104.1400" cy="223.5200" r="1.0160" /> 
</g>
<g style="fill:#000000; fill-opacity:1.0000; stroke:none;">
<circle cx="106.6800" cy="223.5200" r="1.0160" /> 
</g>
<g style="fill:#000000; fill-opacity:1.0000; stroke:none;">
<circle cx="109.2200" cy="223.5200" r="1.0160" /> 
</g>
<g style="fill:#000000; fill-opacity:1.0000; stroke:none;">
<circle cx="111.7600" cy="223.5200" r="1.0160" /> 
</g>
<g style="fill:#000000; fill-opacity:1.0000; stroke:none;">
<circle cx="114.3000" cy="223.5200" r="1.0160" /> 
</g>
<g style="fill:#000000; fill-opacity:1.0000; stroke:none;">
<circle cx="116.8400" cy="223.5200" r="1.0160" /> 
</g>
<g style="fill:#000000; fill-opacity:1.0000; stroke:none;">
<circle cx="119.3800" cy="223.5200" r="1.0160" /> 
</g>
<g style="fill:#000000; fill-opacity:1.0000; stroke:none;">
<circle cx="121.9200" cy="223.5200" r="1.0160" /> 
</g>
<g style="fill:#000000; fill-opacity:1.0000; stroke:none;">
<circle cx="83.8200" cy="233.6800" r="1.0160" /> 
</g>
<g style="fill:#000000; fill-opacity:1.0000; stroke:none;">
<circle cx="83.8200" cy="243.8400" r="1.0160" /> 
</g>
<g style="fill:#000000; fill-opacity:1.0000; stroke:none;">
<circle cx="20.3200" cy="149.8600" r="1.0160" /> 
</g>
<g style="fill:#000000; fill-opacity:1.0000; stroke:none;">
<circle cx="22.8600" cy="149.8600" r="1.0160" /> 
</g>
<g style="fill:#000000; fill-opacity:1.0000; stroke:none;">
<circle cx="25.4000" cy="149.8600" r="1.0160" /> 
</g>
<g style="fill:#000000; fill-opacity:1.0000; stroke:none;">
<circle cx="27.9400" cy="149.8600" r="1.0160" /> 
</g>
<g style="fill:#000000; fill-opacity:1.0000; stroke:none;">
<circle cx="58.4200" cy="22.8600" r="1.0160" /> 
</g>
<g style="fill:#000000; fill-opacity:1.0000; stroke:none;">
<circle cx="96.5200" cy="78.7400" r="1.0160" /> 
</g>
<g style="fill:#000000; fill-opacity:1.0000; stroke:none;">
<circle cx="99.0600" cy="78.7400" r="1.0160" /> 
</g>
<g style="fill:#000000; fill-opacity:1.0000; stroke:none;">
<circle cx="101.6000" cy="78.7400" r="1.0160" /> 
</g>
<g style="fill:#000000; fill-opacity:1.0000; stroke:none;">
<circle cx="104.1400" cy="78.7400" r="1.0160" /> 
</g>
<g style="fill:#000000; fill-opacity:1.0000; stroke:none;">
<circle cx="83.8200" cy="236.2200" r="1.0160" /> 
</g>
<g style="fill:#000000; fill-opacity:1.0000; stroke:none;">
<circle cx="58.4200" cy="17.7800" r="1.0160" /> 
</g>
<g style="fill:#000000; fill-opacity:1.0000; stroke:none;">
<circle cx="20.3200" cy="96.5200" r="1.0160" /> 
</g>
<g style="fill:#000000; fill-opacity:1.0000; stroke:none;">
<circle cx="22.8600" cy="96.5200" r="1.0160" /> 
</g>
<g style="fill:#000000; fill-opacity:1.0000; stroke:none;">
<circle cx="25.4000" cy="96.5200" r="1.0160" /> 
</g>
<g style="fill:#000000; fill-opacity:1.0000; stroke:none;">
<circle cx="27.9400" cy="96.5200" r="1.0160" /> 
</g>
<g style="fill:#000000; fill-opacity:1.0000; stroke:none;">
<circle cx="96.5200" cy="25.4000" r="1.0160" /> 
</g>
<g style="fill:#000000; fill-opacity:1.0000; stroke:none;">
<circle cx="99.0600" cy="25.4000" r="1.0160" /> 
</g>
<g style="fill:#000000; fill-opacity:1.0000; stroke:none;">
<circle cx="101.6000" cy="25.4000" r="1.0160" /> 
</g>
<g style="fill:#000000; fill-opacity:1.0000; stroke:none;">
<circle cx="104.1400" cy="25.4000" r="1.0160" /> 
</g>
<g style="fill:#000000; fill-opacity:1.0000; stroke:none;">
<circle cx="83.8200" cy="241.3000" r="1.0160" /> 
</g>
<g style="fill:#000000; fill-opacity:1.0000; stroke:none;">
<circle cx="96.5200" cy="17.7800" r="1.0160" /> 
</g>
<g style="fill:#000000; fill-opacity:1.0000; stroke:none;">
<circle cx="20.3200" cy="185.4200" r="1.0160" /> 
</g>
<g style="fill:#000000; fill-opacity:1.0000; stroke:none;">
<circle cx="22.8600" cy="185.4200" r="1.0160" /> 
</g>
<g style="fill:#000000; fill-opacity:1.0000; stroke:none;">
<circle cx="25.4000" cy="185.4200" r="1.0160" /> 
</g>
<g style="fill:#000000; fill-opacity:1.0000; stroke:none;">
<circle cx="27.9400" cy="185.4200" r="1.0160" /> 
</g>
<g style="fill:#000000; fill-opacity:1.0000; stroke:none;">
<circle cx="96.5200" cy="60.9600" r="1.0160" /> 
</g>
<g style="fill:#000000; fill-opacity:1.0000; stroke:none;">
<circle cx="99.0600" cy="60.9600" r="1.0160" /> 
</g>
<g style="fill:#000000; fill-opacity:1.0000; stroke:none;">
<circle cx="101.6000" cy="60.9600" r="1.0160" /> 
</g>
<g style="fill:#000000; fill-opacity:1.0000; stroke:none;">
<circle cx="104.1400" cy="60.9600" r="1.0160" /> 
</g>
<g style="fill:#000000; fill-opacity:1.0000; stroke:none;">
<circle cx="96.5200" cy="167.6400" r="1.0160" /> 
</g>
<g style="fill:#000000; fill-opacity:1.0000; stroke:none;">
<circle cx="99.0600" cy="167.6400" r="1.0160" /> 
</g>
<g style="fill:#000000; fill-opacity:1.0000; stroke:none;">
<circle cx="101.6000" cy="167.6400" r="1.0160" /> 
</g>
<g style="fill:#000000; fill-opacity:1.0000; stroke:none;">
<circle cx="104.1400" cy="167.6400" r="1.0160" /> 
</g>
<g style="fill:#000000; fill-opacity:1.0000; stroke:none;">
<circle cx="20.3200" cy="43.1800" r="1.0160" /> 
</g>
<g style="fill:#000000; fill-opacity:1.0000; stroke:none;">
<circle cx="22.8600" cy="43.1800" r="1.0160" /> 
</g>
<g style="fill:#000000; fill-opacity:1.0000; stroke:none;">
<circle cx="25.4000" cy="43.1800" r="1.0160" /> 
</g>
<g style="fill:#000000; fill-opacity:1.0000; stroke:none;">
<circle cx="27.9400" cy="43.1800" r="1.0160" /> 
</g>
<g style="fill:#000000; fill-opacity:1.0000; stroke:none;">
<circle cx="119.3800" cy="20.3200" r="1.0160" /> 
</g>
<g style="fill:#000000; fill-opacity:1.0000; stroke:none;">
<circle cx="20.3200" cy="60.9600" r="1.0160" /> 
</g>
<g style="fill:#000000; fill-opacity:1.0000; stroke:none;">
<circle cx="22.8600" cy="60.9600" r="1.0160" /> 
</g>
<g style="fill:#000000; fill-opacity:1.0000; stroke:none;">
<circle cx="25.4000" cy="60.9600" r="1.0160" /> 
</g>
<g style="fill:#000000; fill-opacity:1.0000; stroke:none;">
<circle cx="27.9400" cy="60.9600" r="1.0160" /> 
</g>
<g style="fill:#000000; fill-opacity:1.0000; stroke:none;">
<circle cx="96.5200" cy="22.8600" r="1.0160" /> 
</g>
<g style="fill:#000000; fill-opacity:1.0000; stroke:none;">
<circle cx="58.4200" cy="25.4000" r="1.0160" /> 
</g>
<g style="fill:#000000; fill-opacity:1.0000; stroke:none;">
<circle cx="60.9600" cy="25.4000" r="1.0160" /> 
</g>
<g style="fill:#000000; fill-opacity:1.0000; stroke:none;">
<circle cx="63.5000" cy="25.4000" r="1.0160" /> 
</g>
<g style="fill:#000000; fill-opacity:1.0000; stroke:none;">
<circle cx="66.0400" cy="25.4000" r="1.0160" /> 
</g>
<g style="fill:#000000; fill-opacity:1.0000; stroke:none;">
<circle cx="83.8200" cy="238.7600" r="1.0160" /> 
</g>
<g style="fill:#000000; fill-opacity:1.0000; stroke:none;">
<circle cx="96.5200" cy="43.1800" r="1.0160" /> 
</g>
<g style="fill:#000000; fill-opacity:1.0000; stroke:none;">
<circle cx="99.0600" cy="43.1800" r="1.0160" /> 
</g>
<g style="fill:#000000; fill-opacity:1.0000; stroke:none;">
<circle cx="101.6000" cy="43.1800" r="1.0160" /> 
</g>
<g style="fill:#000000; fill-opacity:1.0000; stroke:none;">
<circle cx="104.1400" cy="43.1800" r="1.0160" /> 
</g>
<g style="fill:#000000; fill-opacity:1.0000; stroke:none;">
<circle cx="119.3800" cy="17.7800" r="1.0160" /> 
</g>
<g style="fill:#000000; fill-opacity:1.0000; stroke:none;">
<circle cx="96.5200" cy="114.3000" r="1.0160" /> 
</g>
<g style="fill:#000000; fill-opacity:1.0000; stroke:none;">
<circle cx="99.0600" cy="114.3000" r="1.0160" /> 
</g>
<g style="fill:#000000; fill-opacity:1.0000; stroke:none;">
<circle cx="101.6000" cy="114.3000" r="1.0160" /> 
</g>
<g style="fill:#000000; fill-opacity:1.0000; stroke:none;">
<circle cx="104.1400" cy="114.3000" r="1.0160" /> 
</g>
<g style="fill:#000000; fill-opacity:1.0000; stroke:none;">
<circle cx="58.4200" cy="167.6400" r="1.0160" /> 
</g>
<g style="fill:#000000; fill-opacity:1.0000; stroke:none;">
<circle cx="60.9600" cy="167.6400" r="1.0160" /> 
</g>
<g style="fill:#000000; fill-opacity:1.0000; stroke:none;">
<circle cx="63.5000" cy="167.6400" r="1.0160" /> 
</g>
<g style="fill:#000000; fill-opacity:1.0000; stroke:none;">
<circle cx="66.0400" cy="167.6400" r="1.0160" /> 
</g>
<g style="fill:#000000; fill-opacity:1.0000; stroke:none;">
<circle cx="20.3200" cy="78.7400" r="1.0160" /> 
</g>
<g style="fill:#000000; fill-opacity:1.0000; stroke:none;">
<circle cx="22.8600" cy="78.7400" r="1.0160" /> 
</g>
<g style="fill:#000000; fill-opacity:1.0000; stroke:none;">
<circle cx="25.4000" cy="78.7400" r="1.0160" /> 
</g>
<g style="fill:#000000; fill-opacity:1.0000; stroke:none;">
<circle cx="27.9400" cy="78.7400" r="1.0160" /> 
</g>
<g style="fill:#000000; fill-opacity:1.0000; stroke:none;">
<circle cx="20.3200" cy="167.6400" r="1.0160" /> 
</g>
<g style="fill:#000000; fill-opacity:1.0000; stroke:none;">
<circle cx="22.8600" cy="167.6400" r="1.0160" /> 
</g>
<g style="fill:#000000; fill-opacity:1.0000; stroke:none;">
<circle cx="25.4000" cy="167.6400" r="1.0160" /> 
</g>
<g style="fill:#000000; fill-opacity:1.0000; stroke:none;">
<circle cx="27.9400" cy="167.6400" r="1.0160" /> 
</g>
<g style="fill:#000000; fill-opacity:1.0000; stroke:none;">
<circle cx="58.4200" cy="132.0800" r="1.0160" /> 
</g>
<g style="fill:#000000; fill-opacity:1.0000; stroke:none;">
<circle cx="60.9600" cy="132.0800" r="1.0160" /> 
</g>
<g style="fill:#000000; fill-opacity:1.0000; stroke:none;">
<circle cx="63.5000" cy="132.0800" r="1.0160" /> 
</g>
<g style="fill:#000000; fill-opacity:1.0000; stroke:none;">
<circle cx="66.0400" cy="132.0800" r="1.0160" /> 
</g>
<g style="fill:#000000; fill-opacity:1.0000; stroke:none;">
<circle cx="30.4800" cy="208.2800" r="1.0160" /> 
</g>
<g style="fill:#000000; fill-opacity:1.0000; stroke:none;">
<circle cx="33.0200" cy="208.2800" r="1.0160" /> 
</g>
<g style="fill:#000000; fill-opacity:1.0000; stroke:none;">
<circle cx="35.5600" cy="208.2800" r="1.0160" /> 
</g>
<g style="fill:#000000; fill-opacity:1.0000; stroke:none;">
<circle cx="38.1000" cy="208.2800" r="1.0160" /> 
</g>
<g style="fill:#000000; fill-opacity:1.0000; stroke:none;">
<circle cx="40.6400" cy="208.2800" r="1.0160" /> 
</g>
<g style="fill:#000000; fill-opacity:1.0000; stroke:none;">
<circle cx="43.1800" cy="208.2800" r="1.0160" /> 
</g>
<g style="fill:#000000; fill-opacity:1.0000; stroke:none;">
<circle cx="45.7200" cy="208.2800" r="1.0160" /> 
</g>
<g style="fill:#000000; fill-opacity:1.0000; stroke:none;">
<circle cx="48.2600" cy="208.2800" r="1.0160" /> 
</g>
<g style="fill:#000000; fill-opacity:1.0000; stroke:none;">
<circle cx="50.8000" cy="208.2800" r="1.0160" /> 
</g>
<g style="fill:#000000; fill-opacity:1.0000; stroke:none;">
<circle cx="53.3400" cy="208.2800" r="1.0160" /> 
</g>
<g style="fill:#000000; fill-opacity:1.0000; stroke:none;">
<circle cx="55.8800" cy="208.2800" r="1.0160" /> 
</g>
<g style="fill:#000000; fill-opacity:1.0000; stroke:none;">
<circle cx="58.4200" cy="208.2800" r="1.0160" /> 
</g>
<g style="fill:#000000; fill-opacity:1.0000; stroke:none;">
<circle cx="60.9600" cy="208.2800" r="1.0160" /> 
</g>
<g style="fill:#000000; fill-opacity:1.0000; stroke:none;">
<circle cx="63.5000" cy="208.2800" r="1.0160" /> 
</g>
<g style="fill:#000000; fill-opacity:1.0000; stroke:none;">
<circle cx="66.0400" cy="208.2800" r="1.0160" /> 
</g>
<g style="fill:#000000; fill-opacity:1.0000; stroke:none;">
<circle cx="68.5800" cy="208.2800" r="1.0160" /> 
</g>
<g style="fill:#000000; fill-opacity:1.0000; stroke:none;">
<circle cx="40.6400" cy="223.5200" r="1.0160" /> 
</g>
<g style="fill:#000000; fill-opacity:1.0000; stroke:none;">
<circle cx="43.1800" cy="223.5200" r="1.0160" /> 
</g>
<g style="fill:#000000; fill-opacity:1.0000; stroke:none;">
<circle cx="45.7200" cy="223.5200" r="1.0160" /> 
</g>
<g style="fill:#000000; fill-opacity:1.0000; stroke:none;">
<circle cx="48.2600" cy="223.5200" r="1.0160" /> 
</g>
<g style="fill:#000000; fill-opacity:1.0000; stroke:none;">
<circle cx="50.8000" cy="223.5200" r="1.0160" /> 
</g>
<g style="fill:#000000; fill-opacity:1.0000; stroke:none;">
<circle cx="53.3400" cy="223.5200" r="1.0160" /> 
</g>
<g style="fill:#000000; fill-opacity:1.0000; stroke:none;">
<circle cx="55.8800" cy="223.5200" r="1.0160" /> 
</g>
<g style="fill:#000000; fill-opacity:1.0000; stroke:none;">
<circle cx="58.4200" cy="223.5200" r="1.0160" /> 
</g>
<g style="fill:#000000; fill-opacity:1.0000; stroke:none;">
<circle cx="20.3200" cy="132.0800" r="1.0160" /> 
</g>
<g style="fill:#000000; fill-opacity:1.0000; stroke:none;">
<circle cx="22.8600" cy="132.0800" r="1.0160" /> 
</g>
<g style="fill:#000000; fill-opacity:1.0000; stroke:none;">
<circle cx="25.4000" cy="132.0800" r="1.0160" /> 
</g>
<g style="fill:#000000; fill-opacity:1.0000; stroke:none;">
<circle cx="27.9400" cy="132.0800" r="1.0160" /> 
</g>
<g style="fill:#000000; fill-opacity:1.0000; stroke:none;">
<circle cx="58.4200" cy="60.9600" r="1.0160" /> 
</g>
<g style="fill:#000000; fill-opacity:1.0000; stroke:none;">
<circle cx="60.9600" cy="60.9600" r="1.0160" /> 
</g>
<g style="fill:#000000; fill-opacity:1.0000; stroke:none;">
<circle cx="63.5000" cy="60.9600" r="1.0160" /> 
</g>
<g style="fill:#000000; fill-opacity:1.0000; stroke:none;">
<circle cx="66.0400" cy="60.9600" r="1.0160" /> 
</g>
<g style="fill:#000000; fill-opacity:1.0000; stroke:none;">
<circle cx="83.8200" cy="231.1400" r="1.0160" /> 
</g>
<g style="fill:#000000; fill-opacity:1.0000; stroke:none;">
<circle cx="83.8200" cy="246.3800" r="1.0160" /> 
</g>
<g style="fill:#000000; fill-opacity:1.0000; stroke:none;">
<circle cx="58.4200" cy="185.4200" r="1.0160" /> 
</g>
<g style="fill:#000000; fill-opacity:1.0000; stroke:none;">
<circle cx="60.9600" cy="185.4200" r="1.0160" /> 
</g>
<g style="fill:#000000; fill-opacity:1.0000; stroke:none;">
<circle cx="63.5000" cy="185.4200" r="1.0160" /> 
</g>
<g style="fill:#000000; fill-opacity:1.0000; stroke:none;">
<circle cx="66.0400" cy="185.4200" r="1.0160" /> 
</g>
<g style="fill:#000000; fill-opacity:1.0000; stroke:none;">
<circle cx="96.5200" cy="132.0800" r="1.0160" /> 
</g>
<g style="fill:#000000; fill-opacity:1.0000; stroke:none;">
<circle cx="99.0600" cy="132.0800" r="1.0160" /> 
</g>
<g style="fill:#000000; fill-opacity:1.0000; stroke:none;">
<circle cx="101.6000" cy="132.0800" r="1.0160" /> 
</g>
<g style="fill:#000000; fill-opacity:1.0000; stroke:none;">
<circle cx="104.1400" cy="132.0800" r="1.0160" /> 
</g>
<g style="fill:#000000; fill-opacity:1.0000; stroke:none;">
<circle cx="58.4200" cy="114.3000" r="1.0160" /> 
</g>
<g style="fill:#000000; fill-opacity:1.0000; stroke:none;">
<circle cx="60.9600" cy="114.3000" r="1.0160" /> 
</g>
<g style="fill:#000000; fill-opacity:1.0000; stroke:none;">
<circle cx="63.5000" cy="114.3000" r="1.0160" /> 
</g>
<g style="fill:#000000; fill-opacity:1.0000; stroke:none;">
<circle cx="66.0400" cy="114.3000" r="1.0160" /> 
</g>
<g style="fill:#000000; fill-opacity:1.0000; stroke:none;">
<circle cx="58.4200" cy="78.7400" r="1.0160" /> 
</g>
<g style="fill:#000000; fill-opacity:1.0000; stroke:none;">
<circle cx="60.9600" cy="78.7400" r="1.0160" /> 
</g>
<g style="fill:#000000; fill-opacity:1.0000; stroke:none;">
<circle cx="63.5000" cy="78.7400" r="1.0160" /> 
</g>
<g style="fill:#000000; fill-opacity:1.0000; stroke:none;">
<circle cx="66.0400" cy="78.7400" r="1.0160" /> 
</g>
<g style="fill:none; 
stroke:#000000; stroke-width:1.0000; stroke-opacity:1; 
stroke-linecap:round; stroke-linejoin:round;">
<path d="M104.1400 223.5200
L104.1400 220.9800
" />
<path d="M96.5200 60.9600
L96.5200 43.1800
" />
<path d="M55.8800 205.7400
L55.8800 208.2800
" />
<path d="M55.8800 246.3800
L50.8000 241.3000
" />
<path d="M124.4600 81.2800
L104.1400 60.9600
" />
<path d="M60.9600 185.4200
L60.9600 167.6400
" />
<path d="M93.9800 198.1200
L96.5200 200.6600
" />
<path d="M99.0600 149.8600
L99.0600 167.6400
" />
<path d="M58.4200 243.8400
L53.3400 238.7600
" />
<path d="M58.4200 205.7400
L58.4200 208.2800
" />
<path d="M121.9200 241.3000
L60.9600 241.3000
" />
<path d="M104.1400 220.9800
L109.2200 215.9000
" />
<path d="M109.2200 218.4400
L124.4600 218.4400
" />
<path d="M27.9400 132.0800
L38.1000 142.2400
" />
<path d="M50.8000 218.4400
L50.8000 223.5200
" />
<path d="M116.8400 223.5200
L116.8400 231.1400
" />
<path d="M60.9600 205.7400
L60.9600 208.2800
" />
<path d="M76.2000 142.2400
L76.2000 198.1200
" />
<path d="M96.5200 78.7400
L96.5200 96.5200
" />
<path d="M45.7200 96.5200
L45.7200 208.2800
" />
<path d="M27.9400 167.6400
L33.0200 172.7200
" />
<path d="M121.9200 236.2200
L121.9200 223.5200
" />
<path d="M109.2200 215.9000
L124.4600 215.9000
" />
<path d="M99.0600 198.1200
L99.0600 208.2800
" />
<path d="M99.0600 20.3200
L119.3800 20.3200
" />
<path d="M116.8400 17.7800
L119.3800 17.7800
" />
<path d="M20.3200 114.3000
L20.3200 132.0800
" />
<path d="M81.2800 198.1200
L81.2800 111.7600
" />
<path d="M60.9600 149.8600
L60.9600 167.6400
" />
<path d="M38.1000 142.2400
L38.1000 208.2800
" />
<path d="M48.2600 81.2800
L48.2600 208.2800
" />
<path d="M99.0600 43.1800
L99.0600 60.9600
" />
<path d="M50.8000 231.1400
L45.7200 231.1400
" />
<path d="M66.0400 43.1800
L88.9000 66.0400
" />
<path d="M20.3200 78.7400
L20.3200 60.9600
" />
<path d="M129.5400 220.9800
L129.5400 243.8400
" />
<path d="M66.0400 132.0800
L76.2000 142.2400
" />
<path d="M40.6400 231.1400
L40.6400 223.5200
" />
<path d="M99.0600 25.4000
L99.0600 20.3200
" />
<path d="M99.0600 25.4000
L99.0600 43.1800
" />
<path d="M93.9800 203.2000
L91.4400 200.6600
" />
<path d="M99.0600 193.0400
L101.6000 195.5800
" />
<path d="M104.1400 43.1800
L127.0000 66.0400
" />
<path d="M99.0600 96.5200
L99.0600 114.3000
" />
<path d="M68.5800 187.9600
L68.5800 195.5800
" />
<path d="M58.4200 223.5200
L58.4200 233.6800
" />
<path d="M20.3200 60.9600
L20.3200 43.1800
" />
<path d="M71.1200 200.6600
L66.0400 200.6600
" />
<path d="M96.5200 43.1800
L96.5200 25.4000
" />
<path d="M96.5200 200.6600
L96.5200 208.2800
" />
<path d="M53.3400 233.6800
L50.8000 231.1400
" />
<path d="M43.1800 228.6000
L43.1800 223.5200
" />
<path d="M101.6000 195.5800
L101.6000 208.2800
" />
<path d="M58.4200 114.3000
L58.4200 132.0800
" />
<path d="M86.3600 81.2800
L86.3600 193.0400
" />
<path d="M66.0400 114.3000
L78.7400 127.0000
" />
<path d="M22.8600 78.7400
L22.8600 96.5200
" />
<path d="M27.9400 185.4200
L30.4800 187.9600
" />
<path d="M20.3200 96.5200
L20.3200 114.3000
" />
<path d="M20.3200 43.1800
L20.3200 25.4000
" />
<path d="M127.0000 241.3000
L124.4600 243.8400
" />
<path d="M96.5200 195.5800
L99.0600 198.1200
" />
<path d="M48.2600 233.6800
L43.1800 233.6800
" />
<path d="M111.7600 226.0600
L109.2200 228.6000
" />
<path d="M22.8600 149.8600
L22.8600 167.6400
" />
<path d="M66.0400 149.8600
L73.6600 157.4800
" />
<path d="M109.2200 228.6000
L73.6600 228.6000
" />
<path d="M50.8000 236.2200
L48.2600 233.6800
" />
<path d="M53.3400 228.6000
L48.2600 228.6000
" />
<path d="M127.0000 246.3800
L55.8800 246.3800
" />
<path d="M93.9800 208.2800
L93.9800 203.2000
" />
<path d="M106.6800 187.9600
L106.6800 208.2800
" />
<path d="M60.9600 60.9600
L60.9600 78.7400
" />
<path d="M45.7200 231.1400
L43.1800 228.6000
" />
<path d="M91.4400 187.9600
L93.9800 190.5000
" />
<path d="M124.4600 243.8400
L58.4200 243.8400
" />
<path d="M76.2000 198.1200
L71.1200 203.2000
" />
<path d="M114.3000 208.2800
L114.3000 142.2400
" />
<path d="M66.0400 226.0600
L66.0400 218.4400
" />
<path d="M55.8800 223.5200
L55.8800 220.9800
" />
<path d="M60.9600 78.7400
L60.9600 96.5200
" />
<path d="M27.9400 60.9600
L48.2600 81.2800
" />
<path d="M93.9800 190.5000
L101.6000 190.5000
" />
<path d="M124.4600 208.2800
L124.4600 81.2800
" />
<path d="M99.0600 185.4200
L99.0600 167.6400
" />
<path d="M22.8600 43.1800
L22.8600 60.9600
" />
<path d="M22.8600 132.0800
L22.8600 114.3000
" />
<path d="M116.8400 231.1400
L114.3000 233.6800
" />
<path d="M22.8600 60.9600
L22.8600 78.7400
" />
<path d="M58.4200 25.4000
L58.4200 22.8600
" />
<path d="M58.4200 96.5200
L58.4200 114.3000
" />
<path d="M88.9000 66.0400
L88.9000 190.5000
" />
<path d="M86.3600 193.0400
L88.9000 195.5800
" />
<path d="M124.4600 218.4400
L127.0000 220.9800
" />
<path d="M22.8600 132.0800
L22.8600 149.8600
" />
<path d="M81.2800 111.7600
L66.0400 96.5200
" />
<path d="M124.4600 220.9800
L124.4600 238.7600
" />
<path d="M22.8600 25.4000
L22.8600 43.1800
" />
<path d="M60.9600 25.4000
L60.9600 43.1800
" />
<path d="M27.9400 114.3000
L40.6400 127.0000
" />
<path d="M73.6600 157.4800
L73.6600 198.1200
" />
<path d="M50.8000 213.3600
L48.2600 215.9000
" />
<path d="M25.4000 20.3200
L60.9600 20.3200
" />
<path d="M63.5000 238.7600
L119.3800 238.7600
" />
<path d="M66.0400 25.4000
L91.4400 50.8000
" />
<path d="M60.9600 241.3000
L55.8800 236.2200
" />
<path d="M96.5200 114.3000
L96.5200 132.0800
" />
<path d="M88.9000 190.5000
L91.4400 193.0400
" />
<path d="M66.0400 198.1200
L58.4200 205.7400
" />
<path d="M63.5000 228.6000
L63.5000 220.9800
" />
<path d="M53.3400 238.7600
L53.3400 233.6800
" />
<path d="M99.0600 78.7400
L99.0600 96.5200
" />
<path d="M109.2200 223.5200
L109.2200 220.9800
" />
<path d="M66.0400 185.4200
L68.5800 187.9600
" />
<path d="M68.5800 223.5200
L68.5800 215.9000
" />
<path d="M86.3600 198.1200
L93.9800 198.1200
" />
<path d="M96.5200 78.7400
L96.5200 60.9600
" />
<path d="M111.7600 223.5200
L111.7600 226.0600
" />
<path d="M50.8000 241.3000
L50.8000 236.2200
" />
<path d="M48.2600 215.9000
L48.2600 223.5200
" />
<path d="M30.4800 187.9600
L30.4800 208.2800
" />
<path d="M114.3000 223.5200
L114.3000 228.6000
" />
<path d="M66.0400 203.2000
L63.5000 205.7400
" />
<path d="M63.5000 220.9800
L60.9600 218.4400
" />
<path d="M78.7400 198.1200
L71.1200 205.7400
" />
<path d="M27.9400 149.8600
L35.5600 157.4800
" />
<path d="M116.8400 236.2200
L119.3800 233.6800
" />
<path d="M66.0400 218.4400
L63.5000 215.9000
" />
<path d="M121.9200 96.5200
L121.9200 208.2800
" />
<path d="M91.4400 50.8000
L91.4400 187.9600
" />
<path d="M104.1400 114.3000
L116.8400 127.0000
" />
<path d="M68.5800 215.9000
L66.0400 213.3600
" />
<path d="M104.1400 193.0400
L104.1400 208.2800
" />
<path d="M109.2200 220.9800
L124.4600 220.9800
" />
<path d="M63.5000 205.7400
L63.5000 208.2800
" />
<path d="M27.9400 25.4000
L53.3400 50.8000
" />
<path d="M20.3200 185.4200
L20.3200 167.6400
" />
<path d="M114.3000 142.2400
L104.1400 132.0800
" />
<path d="M71.1200 203.2000
L66.0400 203.2000
" />
<path d="M53.3400 50.8000
L53.3400 208.2800
" />
<path d="M58.4200 78.7400
L58.4200 60.9600
" />
<path d="M66.0400 167.6400
L71.1200 172.7200
" />
<path d="M58.4200 149.8600
L58.4200 132.0800
" />
<path d="M109.2200 172.7200
L104.1400 167.6400
" />
<path d="M63.5000 215.9000
L53.3400 215.9000
" />
<path d="M60.9600 218.4400
L55.8800 218.4400
" />
<path d="M119.3800 233.6800
L119.3800 223.5200
" />
<path d="M50.8000 66.0400
L50.8000 208.2800
" />
<path d="M66.0400 205.7400
L66.0400 208.2800
" />
<path d="M27.9400 96.5200
L43.1800 111.7600
" />
<path d="M119.3800 111.7600
L104.1400 96.5200
" />
<path d="M127.0000 220.9800
L127.0000 241.3000
" />
<path d="M104.1400 185.4200
L106.6800 187.9600
" />
<path d="M68.5800 195.5800
L66.0400 195.5800
" />
<path d="M71.1200 172.7200
L71.1200 198.1200
" />
<path d="M33.0200 172.7200
L33.0200 208.2800
" />
<path d="M58.4200 43.1800
L58.4200 25.4000
" />
<path d="M60.9600 231.1400
L66.0400 236.2200
" />
<path d="M83.8200 195.5800
L86.3600 198.1200
" />
<path d="M55.8800 231.1400
L53.3400 228.6000
" />
<path d="M119.3800 238.7600
L121.9200 236.2200
" />
<path d="M66.0400 236.2200
L116.8400 236.2200
" />
<path d="M66.0400 60.9600
L86.3600 81.2800
" />
<path d="M119.3800 208.2800
L119.3800 111.7600
" />
<path d="M22.8600 96.5200
L22.8600 114.3000
" />
<path d="M83.8200 200.6600
L81.2800 198.1200
" />
<path d="M96.5200 185.4200
L96.5200 167.6400
" />
<path d="M27.9400 78.7400
L45.7200 96.5200
" />
<path d="M43.1800 111.7600
L43.1800 208.2800
" />
<path d="M60.9600 132.0800
L60.9600 149.8600
" />
<path d="M58.4200 185.4200
L58.4200 167.6400
" />
<path d="M127.0000 66.0400
L127.0000 208.2800
" />
<path d="M106.6800 223.5200
L106.6800 220.9800
" />
<path d="M27.9400 43.1800
L50.8000 66.0400
" />
<path d="M129.5400 243.8400
L127.0000 246.3800
" />
<path d="M109.2200 208.2800
L109.2200 172.7200
" />
<path d="M58.4200 233.6800
L63.5000 238.7600
" />
<path d="M73.6600 198.1200
L71.1200 200.6600
" />
<path d="M60.9600 43.1800
L60.9600 60.9600
" />
<path d="M20.3200 20.3200
L22.8600 17.7800
" />
<path d="M99.0600 60.9600
L99.0600 78.7400
" />
<path d="M53.3400 220.9800
L53.3400 223.5200
" />
<path d="M114.3000 228.6000
L111.7600 231.1400
" />
<path d="M88.9000 195.5800
L96.5200 195.5800
" />
<path d="M129.5400 208.2800
L129.5400 50.8000
" />
<path d="M91.4400 200.6600
L83.8200 200.6600
" />
<path d="M66.0400 78.7400
L83.8200 96.5200
" />
<path d="M71.1200 231.1400
L66.0400 226.0600
" />
<path d="M99.0600 132.0800
L99.0600 114.3000
" />
<path d="M129.5400 50.8000
L104.1400 25.4000
" />
<path d="M96.5200 167.6400
L96.5200 149.8600
" />
<path d="M66.0400 200.6600
L60.9600 205.7400
" />
<path d="M111.7600 231.1400
L71.1200 231.1400
" />
<path d="M58.4200 167.6400
L58.4200 149.8600
" />
<path d="M99.0600 132.0800
L99.0600 149.8600
" />
<path d="M96.5200 22.8600
L96.5200 25.4000
" />
<path d="M60.9600 96.5200
L60.9600 114.3000
" />
<path d="M40.6400 127.0000
L40.6400 208.2800
" />
<path d="M53.3400 215.9000
L50.8000 218.4400
" />
<path d="M73.6600 228.6000
L68.5800 223.5200
" />
<path d="M104.1400 149.8600
L111.7600 157.4800
" />
<path d="M58.4200 78.7400
L58.4200 96.5200
" />
<path d="M55.8800 220.9800
L60.9600 220.9800
" />
<path d="M68.5800 233.6800
L63.5000 228.6000
" />
<path d="M48.2600 228.6000
L45.7200 226.0600
" />
<path d="M60.9600 25.4000
L60.9600 20.3200
" />
<path d="M101.6000 190.5000
L104.1400 193.0400
" />
<path d="M114.3000 233.6800
L68.5800 233.6800
" />
<path d="M60.9600 20.3200
L99.0600 20.3200
" />
<path d="M22.8600 22.8600
L25.4000 20.3200
" />
<path d="M60.9600 132.0800
L60.9600 114.3000
" />
<path d="M60.9600 220.9800
L60.9600 231.1400
" />
<path d="M71.1200 205.7400
L66.0400 205.7400
" />
<path d="M58.4200 60.9600
L58.4200 43.1800
" />
<path d="M66.0400 195.5800
L55.8800 205.7400
" />
<path d="M45.7200 226.0600
L45.7200 223.5200
" />
<path d="M83.8200 96.5200
L83.8200 195.5800
" />
<path d="M22.8600 17.7800
L116.8400 17.7800
" />
<path d="M96.5200 149.8600
L96.5200 132.0800
" />
<path d="M78.7400 127.0000
L78.7400 198.1200
" />
<path d="M55.8800 218.4400
L53.3400 220.9800
" />
<path d="M124.4600 238.7600
L121.9200 241.3000
" />
<path d="M43.1800 233.6800
L40.6400 231.1400
" />
<path d="M20.3200 78.7400
L20.3200 96.5200
" />
<path d="M20.3200 167.6400
L20.3200 149.8600
" />
<path d="M104.1400 78.7400
L121.9200 96.5200
" />
<path d="M66.0400 213.3600
L50.8000 213.3600
" />
<path d="M96.5200 96.5200
L96.5200 114.3000
" />
<path d="M55.8800 236.2200
L55.8800 231.1400
" />
<path d="M20.3200 149.8600
L20.3200 132.0800
" />
<path d="M71.1200 198.1200
L66.0400 198.1200
" />
<path d="M35.5600 157.4800
L35.5600 208.2800
" />
<path d="M106.6800 220.9800
L109.2200 218.4400
" />
<path d="M22.8600 185.4200
L22.8600 167.6400
" />
<path d="M124.4600 215.9000
L129.5400 220.9800
" />
<path d="M111.7600 157.4800
L111.7600 208.2800
" />
<path d="M20.3200 25.4000
L20.3200 20.3200
" />
<path d="M22.8600 25.4000
L22.8600 22.8600
" />
<path d="M116.8400 127.0000
L116.8400 208.2800
" />
<path d="M91.4400 193.0400
L99.0600 193.0400
" />
</g> 
</svg>
