<?xml version="1.0" standalone="no"?>
 <!DOCTYPE svg PUBLIC "-//W3C//DTD SVG 1.1//EN" 
 "http://www.w3.org/Graphics/SVG/1.1/DTD/svg11.dtd"> 
<svg
  xmlns:svg="http://www.w3.org/2000/svg"
  xmlns="http://www.w3.org/2000/svg"
  xmlns:xlink="http://www.w3.org/1999/xlink"
  version="1.1"
  width="149.9870mm" height="299.9994mm" viewBox="0.0000 0.0000 149.9870 299.9994">
<title>SVG Image created as MONGO_PCB-NPTH-drl_map.svg date 2026/02/24 13:09:34 </title>
  <desc>Image generated by PCBNEW </desc>
<g style="fill:#000000; fill-opacity:1.0000;stroke:#000000; stroke-opacity:1.0000;
stroke-linecap:round; stroke-linejoin:round;"
 transform="translate(0 0) scale(1 1)">
<path style="fill:none; 
stroke:#000000; stroke-width:0.0356; stroke-opacity:1; 
stroke-linecap:round; stroke-linejoin:round;fill:none"
d="M 28.8926,5.0178
121.1074,5.0178
121.1074,174.9822
28.8926,174.9822
Z" /> 
</g>
<g style="fill:none; 
stroke:#000000; stroke-width:0.1424; stroke-opacity:1; 
stroke-linecap:round; stroke-linejoin:round;">
<text x="30.2986" y="177.2780"
textLength="10.5830" font-size="1.8983" lengthAdjust="spacingAndGlyphs"
text-anchor="start" opacity="0" stroke-opacity="0">Drill Map:</text>
<g class="stroked-text"><desc>Drill Map:</desc>
<path d="M30.7312 177.2173
L30.7312 175.7936
" />
<path d="M30.7312 175.7936
L31.0702 175.7936
" />
<path d="M31.0702 175.7936
L31.2736 175.8614
" />
<path d="M31.2736 175.8614
L31.4092 175.9970
" />
<path d="M31.4092 175.9970
L31.4770 176.1326
" />
<path d="M31.4770 176.1326
L31.5448 176.4038
" />
<path d="M31.5448 176.4038
L31.5448 176.6072
" />
<path d="M31.5448 176.6072
L31.4770 176.8784
" />
<path d="M31.4770 176.8784
L31.4092 177.0139
" />
<path d="M31.4092 177.0139
L31.2736 177.1495
" />
<path d="M31.2736 177.1495
L31.0702 177.2173
" />
<path d="M31.0702 177.2173
L30.7312 177.2173
" />
<path d="M32.1549 177.2173
L32.1549 176.2682
" />
<path d="M32.1549 176.5394
L32.2227 176.4038
" />
<path d="M32.2227 176.4038
L32.2905 176.3360
" />
<path d="M32.2905 176.3360
L32.4261 176.2682
" />
<path d="M32.4261 176.2682
L32.5617 176.2682
" />
<path d="M33.0363 177.2173
L33.0363 176.2682
" />
<path d="M33.0363 175.7936
L32.9685 175.8614
" />
<path d="M32.9685 175.8614
L33.0363 175.9292
" />
<path d="M33.0363 175.9292
L33.1041 175.8614
" />
<path d="M33.1041 175.8614
L33.0363 175.7936
" />
<path d="M33.0363 175.7936
L33.0363 175.9292
" />
<path d="M33.9176 177.2173
L33.7821 177.1495
" />
<path d="M33.7821 177.1495
L33.7143 177.0139
" />
<path d="M33.7143 177.0139
L33.7143 175.7936
" />
<path d="M34.6634 177.2173
L34.5278 177.1495
" />
<path d="M34.5278 177.1495
L34.4600 177.0139
" />
<path d="M34.4600 177.0139
L34.4600 175.7936
" />
<path d="M36.2905 177.2173
L36.2905 175.7936
" />
<path d="M36.2905 175.7936
L36.7651 176.8106
" />
<path d="M36.7651 176.8106
L37.2397 175.7936
" />
<path d="M37.2397 175.7936
L37.2397 177.2173
" />
<path d="M38.5278 177.2173
L38.5278 176.4716
" />
<path d="M38.5278 176.4716
L38.4600 176.3360
" />
<path d="M38.4600 176.3360
L38.3244 176.2682
" />
<path d="M38.3244 176.2682
L38.0532 176.2682
" />
<path d="M38.0532 176.2682
L37.9176 176.3360
" />
<path d="M38.5278 177.1495
L38.3922 177.2173
" />
<path d="M38.3922 177.2173
L38.0532 177.2173
" />
<path d="M38.0532 177.2173
L37.9176 177.1495
" />
<path d="M37.9176 177.1495
L37.8498 177.0139
" />
<path d="M37.8498 177.0139
L37.8498 176.8784
" />
<path d="M37.8498 176.8784
L37.9176 176.7428
" />
<path d="M37.9176 176.7428
L38.0532 176.6750
" />
<path d="M38.0532 176.6750
L38.3922 176.6750
" />
<path d="M38.3922 176.6750
L38.5278 176.6072
" />
<path d="M39.2058 176.2682
L39.2058 177.6919
" />
<path d="M39.2058 176.3360
L39.3414 176.2682
" />
<path d="M39.3414 176.2682
L39.6125 176.2682
" />
<path d="M39.6125 176.2682
L39.7481 176.3360
" />
<path d="M39.7481 176.3360
L39.8159 176.4038
" />
<path d="M39.8159 176.4038
L39.8837 176.5394
" />
<path d="M39.8837 176.5394
L39.8837 176.9462
" />
<path d="M39.8837 176.9462
L39.8159 177.0817
" />
<path d="M39.8159 177.0817
L39.7481 177.1495
" />
<path d="M39.7481 177.1495
L39.6125 177.2173
" />
<path d="M39.6125 177.2173
L39.3414 177.2173
" />
<path d="M39.3414 177.2173
L39.2058 177.1495
" />
<path d="M40.4939 177.0817
L40.5617 177.1495
" />
<path d="M40.5617 177.1495
L40.4939 177.2173
" />
<path d="M40.4939 177.2173
L40.4261 177.1495
" />
<path d="M40.4261 177.1495
L40.4939 177.0817
" />
<path d="M40.4939 177.0817
L40.4939 177.2173
" />
<path d="M40.4939 176.3360
L40.5617 176.4038
" />
<path d="M40.5617 176.4038
L40.4939 176.4716
" />
<path d="M40.4939 176.4716
L40.4261 176.4038
" />
<path d="M40.4261 176.4038
L40.4939 176.3360
" />
<path d="M40.4939 176.3360
L40.4939 176.4716
" />
</g></g> 
</svg>
