%TF.GenerationSoftware,KiCad,Pcbnew,9.0.7*%
%TF.CreationDate,2026-02-24T20:59:54-05:00*%
%TF.ProjectId,MONGO_PCB,4d4f4e47-4f5f-4504-9342-2e6b69636164,SR211007*%
%TF.SameCoordinates,Original*%
%TF.FileFunction,Copper,L1,Top*%
%TF.FilePolarity,Positive*%
%FSLAX46Y46*%
G04 Gerber Fmt 4.6, Leading zero omitted, Abs format (unit mm)*
G04 Created by KiCad (PCBNEW 9.0.7) date 2026-02-24 20:59:54*
%MOMM*%
%LPD*%
G01*
G04 APERTURE LIST*
%TA.AperFunction,NonConductor*%
%ADD10C,0.500000*%
%TD*%
%ADD11C,0.250000*%
%TA.AperFunction,NonConductor*%
%ADD12C,0.250000*%
%TD*%
%ADD13C,0.437500*%
%TA.AperFunction,NonConductor*%
%ADD14C,0.437500*%
%TD*%
%ADD15C,0.150000*%
%TA.AperFunction,NonConductor*%
%ADD16C,0.150000*%
%TD*%
%TA.AperFunction,ComponentPad*%
%ADD17C,2.032000*%
%TD*%
%TA.AperFunction,Conductor*%
%ADD18C,1.000000*%
%TD*%
%TA.AperFunction,Profile*%
%ADD19C,0.050000*%
%TD*%
G04 APERTURE END LIST*
D10*
X12700000Y-203200000D02*
X25400000Y-203200000D01*
X25400000Y-246380000D01*
X12700000Y-246380000D01*
X12700000Y-203200000D01*
D11*
D12*
X22527805Y-245320654D02*
X20527805Y-245320654D01*
X20527805Y-245320654D02*
X20527805Y-244844464D01*
X20527805Y-244844464D02*
X20623043Y-244558749D01*
X20623043Y-244558749D02*
X20813519Y-244368273D01*
X20813519Y-244368273D02*
X21003995Y-244273035D01*
X21003995Y-244273035D02*
X21384947Y-244177797D01*
X21384947Y-244177797D02*
X21670662Y-244177797D01*
X21670662Y-244177797D02*
X22051614Y-244273035D01*
X22051614Y-244273035D02*
X22242090Y-244368273D01*
X22242090Y-244368273D02*
X22432567Y-244558749D01*
X22432567Y-244558749D02*
X22527805Y-244844464D01*
X22527805Y-244844464D02*
X22527805Y-245320654D01*
X22432567Y-242558749D02*
X22527805Y-242749225D01*
X22527805Y-242749225D02*
X22527805Y-243130178D01*
X22527805Y-243130178D02*
X22432567Y-243320654D01*
X22432567Y-243320654D02*
X22242090Y-243415892D01*
X22242090Y-243415892D02*
X21480186Y-243415892D01*
X21480186Y-243415892D02*
X21289709Y-243320654D01*
X21289709Y-243320654D02*
X21194471Y-243130178D01*
X21194471Y-243130178D02*
X21194471Y-242749225D01*
X21194471Y-242749225D02*
X21289709Y-242558749D01*
X21289709Y-242558749D02*
X21480186Y-242463511D01*
X21480186Y-242463511D02*
X21670662Y-242463511D01*
X21670662Y-242463511D02*
X21861138Y-243415892D01*
X22432567Y-241701606D02*
X22527805Y-241511130D01*
X22527805Y-241511130D02*
X22527805Y-241130178D01*
X22527805Y-241130178D02*
X22432567Y-240939701D01*
X22432567Y-240939701D02*
X22242090Y-240844463D01*
X22242090Y-240844463D02*
X22146852Y-240844463D01*
X22146852Y-240844463D02*
X21956376Y-240939701D01*
X21956376Y-240939701D02*
X21861138Y-241130178D01*
X21861138Y-241130178D02*
X21861138Y-241415892D01*
X21861138Y-241415892D02*
X21765900Y-241606368D01*
X21765900Y-241606368D02*
X21575424Y-241701606D01*
X21575424Y-241701606D02*
X21480186Y-241701606D01*
X21480186Y-241701606D02*
X21289709Y-241606368D01*
X21289709Y-241606368D02*
X21194471Y-241415892D01*
X21194471Y-241415892D02*
X21194471Y-241130178D01*
X21194471Y-241130178D02*
X21289709Y-240939701D01*
X22527805Y-239987320D02*
X21194471Y-239987320D01*
X20527805Y-239987320D02*
X20623043Y-240082558D01*
X20623043Y-240082558D02*
X20718281Y-239987320D01*
X20718281Y-239987320D02*
X20623043Y-239892082D01*
X20623043Y-239892082D02*
X20527805Y-239987320D01*
X20527805Y-239987320D02*
X20718281Y-239987320D01*
X21194471Y-239034939D02*
X22527805Y-239034939D01*
X21384947Y-239034939D02*
X21289709Y-238939701D01*
X21289709Y-238939701D02*
X21194471Y-238749225D01*
X21194471Y-238749225D02*
X21194471Y-238463510D01*
X21194471Y-238463510D02*
X21289709Y-238273034D01*
X21289709Y-238273034D02*
X21480186Y-238177796D01*
X21480186Y-238177796D02*
X22527805Y-238177796D01*
X21194471Y-236368272D02*
X22813519Y-236368272D01*
X22813519Y-236368272D02*
X23003995Y-236463510D01*
X23003995Y-236463510D02*
X23099233Y-236558748D01*
X23099233Y-236558748D02*
X23194471Y-236749225D01*
X23194471Y-236749225D02*
X23194471Y-237034939D01*
X23194471Y-237034939D02*
X23099233Y-237225415D01*
X22432567Y-236368272D02*
X22527805Y-236558748D01*
X22527805Y-236558748D02*
X22527805Y-236939701D01*
X22527805Y-236939701D02*
X22432567Y-237130177D01*
X22432567Y-237130177D02*
X22337328Y-237225415D01*
X22337328Y-237225415D02*
X22146852Y-237320653D01*
X22146852Y-237320653D02*
X21575424Y-237320653D01*
X21575424Y-237320653D02*
X21384947Y-237225415D01*
X21384947Y-237225415D02*
X21289709Y-237130177D01*
X21289709Y-237130177D02*
X21194471Y-236939701D01*
X21194471Y-236939701D02*
X21194471Y-236558748D01*
X21194471Y-236558748D02*
X21289709Y-236368272D01*
X22527805Y-233892081D02*
X20527805Y-233892081D01*
X21289709Y-233892081D02*
X21194471Y-233701605D01*
X21194471Y-233701605D02*
X21194471Y-233320652D01*
X21194471Y-233320652D02*
X21289709Y-233130176D01*
X21289709Y-233130176D02*
X21384947Y-233034938D01*
X21384947Y-233034938D02*
X21575424Y-232939700D01*
X21575424Y-232939700D02*
X22146852Y-232939700D01*
X22146852Y-232939700D02*
X22337328Y-233034938D01*
X22337328Y-233034938D02*
X22432567Y-233130176D01*
X22432567Y-233130176D02*
X22527805Y-233320652D01*
X22527805Y-233320652D02*
X22527805Y-233701605D01*
X22527805Y-233701605D02*
X22432567Y-233892081D01*
X21194471Y-232273033D02*
X22527805Y-231796843D01*
X21194471Y-231320652D02*
X22527805Y-231796843D01*
X22527805Y-231796843D02*
X23003995Y-231987319D01*
X23003995Y-231987319D02*
X23099233Y-232082557D01*
X23099233Y-232082557D02*
X23194471Y-232273033D01*
X22337328Y-230558747D02*
X22432567Y-230463509D01*
X22432567Y-230463509D02*
X22527805Y-230558747D01*
X22527805Y-230558747D02*
X22432567Y-230653985D01*
X22432567Y-230653985D02*
X22337328Y-230558747D01*
X22337328Y-230558747D02*
X22527805Y-230558747D01*
X21289709Y-230558747D02*
X21384947Y-230463509D01*
X21384947Y-230463509D02*
X21480186Y-230558747D01*
X21480186Y-230558747D02*
X21384947Y-230653985D01*
X21384947Y-230653985D02*
X21289709Y-230558747D01*
X21289709Y-230558747D02*
X21480186Y-230558747D01*
X22432567Y-228177794D02*
X22527805Y-227892080D01*
X22527805Y-227892080D02*
X22527805Y-227415889D01*
X22527805Y-227415889D02*
X22432567Y-227225413D01*
X22432567Y-227225413D02*
X22337328Y-227130175D01*
X22337328Y-227130175D02*
X22146852Y-227034937D01*
X22146852Y-227034937D02*
X21956376Y-227034937D01*
X21956376Y-227034937D02*
X21765900Y-227130175D01*
X21765900Y-227130175D02*
X21670662Y-227225413D01*
X21670662Y-227225413D02*
X21575424Y-227415889D01*
X21575424Y-227415889D02*
X21480186Y-227796842D01*
X21480186Y-227796842D02*
X21384947Y-227987318D01*
X21384947Y-227987318D02*
X21289709Y-228082556D01*
X21289709Y-228082556D02*
X21099233Y-228177794D01*
X21099233Y-228177794D02*
X20908757Y-228177794D01*
X20908757Y-228177794D02*
X20718281Y-228082556D01*
X20718281Y-228082556D02*
X20623043Y-227987318D01*
X20623043Y-227987318D02*
X20527805Y-227796842D01*
X20527805Y-227796842D02*
X20527805Y-227320651D01*
X20527805Y-227320651D02*
X20623043Y-227034937D01*
X22527805Y-225034937D02*
X21575424Y-225701604D01*
X22527805Y-226177794D02*
X20527805Y-226177794D01*
X20527805Y-226177794D02*
X20527805Y-225415889D01*
X20527805Y-225415889D02*
X20623043Y-225225413D01*
X20623043Y-225225413D02*
X20718281Y-225130175D01*
X20718281Y-225130175D02*
X20908757Y-225034937D01*
X20908757Y-225034937D02*
X21194471Y-225034937D01*
X21194471Y-225034937D02*
X21384947Y-225130175D01*
X21384947Y-225130175D02*
X21480186Y-225225413D01*
X21480186Y-225225413D02*
X21575424Y-225415889D01*
X21575424Y-225415889D02*
X21575424Y-226177794D01*
X20718281Y-224273032D02*
X20623043Y-224177794D01*
X20623043Y-224177794D02*
X20527805Y-223987318D01*
X20527805Y-223987318D02*
X20527805Y-223511127D01*
X20527805Y-223511127D02*
X20623043Y-223320651D01*
X20623043Y-223320651D02*
X20718281Y-223225413D01*
X20718281Y-223225413D02*
X20908757Y-223130175D01*
X20908757Y-223130175D02*
X21099233Y-223130175D01*
X21099233Y-223130175D02*
X21384947Y-223225413D01*
X21384947Y-223225413D02*
X22527805Y-224368270D01*
X22527805Y-224368270D02*
X22527805Y-223130175D01*
X22527805Y-221225413D02*
X22527805Y-222368270D01*
X22527805Y-221796842D02*
X20527805Y-221796842D01*
X20527805Y-221796842D02*
X20813519Y-221987318D01*
X20813519Y-221987318D02*
X21003995Y-222177794D01*
X21003995Y-222177794D02*
X21099233Y-222368270D01*
X22527805Y-219320651D02*
X22527805Y-220463508D01*
X22527805Y-219892080D02*
X20527805Y-219892080D01*
X20527805Y-219892080D02*
X20813519Y-220082556D01*
X20813519Y-220082556D02*
X21003995Y-220273032D01*
X21003995Y-220273032D02*
X21099233Y-220463508D01*
X20527805Y-218082556D02*
X20527805Y-217892079D01*
X20527805Y-217892079D02*
X20623043Y-217701603D01*
X20623043Y-217701603D02*
X20718281Y-217606365D01*
X20718281Y-217606365D02*
X20908757Y-217511127D01*
X20908757Y-217511127D02*
X21289709Y-217415889D01*
X21289709Y-217415889D02*
X21765900Y-217415889D01*
X21765900Y-217415889D02*
X22146852Y-217511127D01*
X22146852Y-217511127D02*
X22337328Y-217606365D01*
X22337328Y-217606365D02*
X22432567Y-217701603D01*
X22432567Y-217701603D02*
X22527805Y-217892079D01*
X22527805Y-217892079D02*
X22527805Y-218082556D01*
X22527805Y-218082556D02*
X22432567Y-218273032D01*
X22432567Y-218273032D02*
X22337328Y-218368270D01*
X22337328Y-218368270D02*
X22146852Y-218463508D01*
X22146852Y-218463508D02*
X21765900Y-218558746D01*
X21765900Y-218558746D02*
X21289709Y-218558746D01*
X21289709Y-218558746D02*
X20908757Y-218463508D01*
X20908757Y-218463508D02*
X20718281Y-218368270D01*
X20718281Y-218368270D02*
X20623043Y-218273032D01*
X20623043Y-218273032D02*
X20527805Y-218082556D01*
X20527805Y-216749222D02*
X20527805Y-215415889D01*
X20527805Y-215415889D02*
X22527805Y-216273032D01*
D13*
D14*
X18203495Y-245137885D02*
X14703495Y-245137885D01*
X14703495Y-245137885D02*
X17203495Y-243971219D01*
X17203495Y-243971219D02*
X14703495Y-242804552D01*
X14703495Y-242804552D02*
X18203495Y-242804552D01*
X14703495Y-240471219D02*
X14703495Y-239804552D01*
X14703495Y-239804552D02*
X14870162Y-239471219D01*
X14870162Y-239471219D02*
X15203495Y-239137885D01*
X15203495Y-239137885D02*
X15870162Y-238971219D01*
X15870162Y-238971219D02*
X17036829Y-238971219D01*
X17036829Y-238971219D02*
X17703495Y-239137885D01*
X17703495Y-239137885D02*
X18036829Y-239471219D01*
X18036829Y-239471219D02*
X18203495Y-239804552D01*
X18203495Y-239804552D02*
X18203495Y-240471219D01*
X18203495Y-240471219D02*
X18036829Y-240804552D01*
X18036829Y-240804552D02*
X17703495Y-241137885D01*
X17703495Y-241137885D02*
X17036829Y-241304552D01*
X17036829Y-241304552D02*
X15870162Y-241304552D01*
X15870162Y-241304552D02*
X15203495Y-241137885D01*
X15203495Y-241137885D02*
X14870162Y-240804552D01*
X14870162Y-240804552D02*
X14703495Y-240471219D01*
X18203495Y-237471218D02*
X14703495Y-237471218D01*
X14703495Y-237471218D02*
X18203495Y-235471218D01*
X18203495Y-235471218D02*
X14703495Y-235471218D01*
X14870162Y-231971218D02*
X14703495Y-232304551D01*
X14703495Y-232304551D02*
X14703495Y-232804551D01*
X14703495Y-232804551D02*
X14870162Y-233304551D01*
X14870162Y-233304551D02*
X15203495Y-233637885D01*
X15203495Y-233637885D02*
X15536829Y-233804551D01*
X15536829Y-233804551D02*
X16203495Y-233971218D01*
X16203495Y-233971218D02*
X16703495Y-233971218D01*
X16703495Y-233971218D02*
X17370162Y-233804551D01*
X17370162Y-233804551D02*
X17703495Y-233637885D01*
X17703495Y-233637885D02*
X18036829Y-233304551D01*
X18036829Y-233304551D02*
X18203495Y-232804551D01*
X18203495Y-232804551D02*
X18203495Y-232471218D01*
X18203495Y-232471218D02*
X18036829Y-231971218D01*
X18036829Y-231971218D02*
X17870162Y-231804551D01*
X17870162Y-231804551D02*
X16703495Y-231804551D01*
X16703495Y-231804551D02*
X16703495Y-232471218D01*
X14703495Y-229637885D02*
X14703495Y-228971218D01*
X14703495Y-228971218D02*
X14870162Y-228637885D01*
X14870162Y-228637885D02*
X15203495Y-228304551D01*
X15203495Y-228304551D02*
X15870162Y-228137885D01*
X15870162Y-228137885D02*
X17036829Y-228137885D01*
X17036829Y-228137885D02*
X17703495Y-228304551D01*
X17703495Y-228304551D02*
X18036829Y-228637885D01*
X18036829Y-228637885D02*
X18203495Y-228971218D01*
X18203495Y-228971218D02*
X18203495Y-229637885D01*
X18203495Y-229637885D02*
X18036829Y-229971218D01*
X18036829Y-229971218D02*
X17703495Y-230304551D01*
X17703495Y-230304551D02*
X17036829Y-230471218D01*
X17036829Y-230471218D02*
X15870162Y-230471218D01*
X15870162Y-230471218D02*
X15203495Y-230304551D01*
X15203495Y-230304551D02*
X14870162Y-229971218D01*
X14870162Y-229971218D02*
X14703495Y-229637885D01*
X18536829Y-227471218D02*
X18536829Y-224804551D01*
X14870162Y-222137884D02*
X14703495Y-222471217D01*
X14703495Y-222471217D02*
X14703495Y-222971217D01*
X14703495Y-222971217D02*
X14870162Y-223471217D01*
X14870162Y-223471217D02*
X15203495Y-223804551D01*
X15203495Y-223804551D02*
X15536829Y-223971217D01*
X15536829Y-223971217D02*
X16203495Y-224137884D01*
X16203495Y-224137884D02*
X16703495Y-224137884D01*
X16703495Y-224137884D02*
X17370162Y-223971217D01*
X17370162Y-223971217D02*
X17703495Y-223804551D01*
X17703495Y-223804551D02*
X18036829Y-223471217D01*
X18036829Y-223471217D02*
X18203495Y-222971217D01*
X18203495Y-222971217D02*
X18203495Y-222637884D01*
X18203495Y-222637884D02*
X18036829Y-222137884D01*
X18036829Y-222137884D02*
X17870162Y-221971217D01*
X17870162Y-221971217D02*
X16703495Y-221971217D01*
X16703495Y-221971217D02*
X16703495Y-222637884D01*
X17203495Y-220637884D02*
X17203495Y-218971217D01*
X18203495Y-220971217D02*
X14703495Y-219804551D01*
X14703495Y-219804551D02*
X18203495Y-218637884D01*
X18203495Y-215471217D02*
X16536829Y-216637884D01*
X18203495Y-217471217D02*
X14703495Y-217471217D01*
X14703495Y-217471217D02*
X14703495Y-216137884D01*
X14703495Y-216137884D02*
X14870162Y-215804551D01*
X14870162Y-215804551D02*
X15036829Y-215637884D01*
X15036829Y-215637884D02*
X15370162Y-215471217D01*
X15370162Y-215471217D02*
X15870162Y-215471217D01*
X15870162Y-215471217D02*
X16203495Y-215637884D01*
X16203495Y-215637884D02*
X16370162Y-215804551D01*
X16370162Y-215804551D02*
X16536829Y-216137884D01*
X16536829Y-216137884D02*
X16536829Y-217471217D01*
X18203495Y-213971217D02*
X14703495Y-213971217D01*
X14703495Y-213971217D02*
X14703495Y-213137884D01*
X14703495Y-213137884D02*
X14870162Y-212637884D01*
X14870162Y-212637884D02*
X15203495Y-212304551D01*
X15203495Y-212304551D02*
X15536829Y-212137884D01*
X15536829Y-212137884D02*
X16203495Y-211971217D01*
X16203495Y-211971217D02*
X16703495Y-211971217D01*
X16703495Y-211971217D02*
X17370162Y-212137884D01*
X17370162Y-212137884D02*
X17703495Y-212304551D01*
X17703495Y-212304551D02*
X18036829Y-212637884D01*
X18036829Y-212637884D02*
X18203495Y-213137884D01*
X18203495Y-213137884D02*
X18203495Y-213971217D01*
X16370162Y-210471217D02*
X16370162Y-209304551D01*
X18203495Y-208804551D02*
X18203495Y-210471217D01*
X18203495Y-210471217D02*
X14703495Y-210471217D01*
X14703495Y-210471217D02*
X14703495Y-208804551D01*
X18203495Y-207304550D02*
X14703495Y-207304550D01*
X14703495Y-207304550D02*
X18203495Y-205304550D01*
X18203495Y-205304550D02*
X14703495Y-205304550D01*
D15*
D16*
X23661052Y-207519434D02*
X23613433Y-207471815D01*
X23613433Y-207471815D02*
X23565814Y-207376577D01*
X23565814Y-207376577D02*
X23565814Y-207138482D01*
X23565814Y-207138482D02*
X23613433Y-207043244D01*
X23613433Y-207043244D02*
X23661052Y-206995625D01*
X23661052Y-206995625D02*
X23756290Y-206948006D01*
X23756290Y-206948006D02*
X23851528Y-206948006D01*
X23851528Y-206948006D02*
X23994385Y-206995625D01*
X23994385Y-206995625D02*
X24565814Y-207567053D01*
X24565814Y-207567053D02*
X24565814Y-206948006D01*
X23565814Y-206328958D02*
X23565814Y-206233720D01*
X23565814Y-206233720D02*
X23613433Y-206138482D01*
X23613433Y-206138482D02*
X23661052Y-206090863D01*
X23661052Y-206090863D02*
X23756290Y-206043244D01*
X23756290Y-206043244D02*
X23946766Y-205995625D01*
X23946766Y-205995625D02*
X24184861Y-205995625D01*
X24184861Y-205995625D02*
X24375337Y-206043244D01*
X24375337Y-206043244D02*
X24470575Y-206090863D01*
X24470575Y-206090863D02*
X24518195Y-206138482D01*
X24518195Y-206138482D02*
X24565814Y-206233720D01*
X24565814Y-206233720D02*
X24565814Y-206328958D01*
X24565814Y-206328958D02*
X24518195Y-206424196D01*
X24518195Y-206424196D02*
X24470575Y-206471815D01*
X24470575Y-206471815D02*
X24375337Y-206519434D01*
X24375337Y-206519434D02*
X24184861Y-206567053D01*
X24184861Y-206567053D02*
X23946766Y-206567053D01*
X23946766Y-206567053D02*
X23756290Y-206519434D01*
X23756290Y-206519434D02*
X23661052Y-206471815D01*
X23661052Y-206471815D02*
X23613433Y-206424196D01*
X23613433Y-206424196D02*
X23565814Y-206328958D01*
X23661052Y-205614672D02*
X23613433Y-205567053D01*
X23613433Y-205567053D02*
X23565814Y-205471815D01*
X23565814Y-205471815D02*
X23565814Y-205233720D01*
X23565814Y-205233720D02*
X23613433Y-205138482D01*
X23613433Y-205138482D02*
X23661052Y-205090863D01*
X23661052Y-205090863D02*
X23756290Y-205043244D01*
X23756290Y-205043244D02*
X23851528Y-205043244D01*
X23851528Y-205043244D02*
X23994385Y-205090863D01*
X23994385Y-205090863D02*
X24565814Y-205662291D01*
X24565814Y-205662291D02*
X24565814Y-205043244D01*
X23565814Y-204186101D02*
X23565814Y-204376577D01*
X23565814Y-204376577D02*
X23613433Y-204471815D01*
X23613433Y-204471815D02*
X23661052Y-204519434D01*
X23661052Y-204519434D02*
X23803909Y-204614672D01*
X23803909Y-204614672D02*
X23994385Y-204662291D01*
X23994385Y-204662291D02*
X24375337Y-204662291D01*
X24375337Y-204662291D02*
X24470575Y-204614672D01*
X24470575Y-204614672D02*
X24518195Y-204567053D01*
X24518195Y-204567053D02*
X24565814Y-204471815D01*
X24565814Y-204471815D02*
X24565814Y-204281339D01*
X24565814Y-204281339D02*
X24518195Y-204186101D01*
X24518195Y-204186101D02*
X24470575Y-204138482D01*
X24470575Y-204138482D02*
X24375337Y-204090863D01*
X24375337Y-204090863D02*
X24137242Y-204090863D01*
X24137242Y-204090863D02*
X24042004Y-204138482D01*
X24042004Y-204138482D02*
X23994385Y-204186101D01*
X23994385Y-204186101D02*
X23946766Y-204281339D01*
X23946766Y-204281339D02*
X23946766Y-204471815D01*
X23946766Y-204471815D02*
X23994385Y-204567053D01*
X23994385Y-204567053D02*
X24042004Y-204614672D01*
X24042004Y-204614672D02*
X24137242Y-204662291D01*
D17*
%TO.P,REF\u002A\u002A,1*%
%TO.N,N/C*%
X20320000Y-114300000D03*
%TO.P,REF\u002A\u002A,2*%
X22860000Y-114300000D03*
%TO.P,REF\u002A\u002A,3*%
X25400000Y-114300000D03*
%TO.P,REF\u002A\u002A,4*%
X27940000Y-114300000D03*
%TD*%
%TO.P,REF\u002A\u002A,1*%
%TO.N,N/C*%
X58420000Y-149860000D03*
%TO.P,REF\u002A\u002A,2*%
X60960000Y-149860000D03*
%TO.P,REF\u002A\u002A,3*%
X63500000Y-149860000D03*
%TO.P,REF\u002A\u002A,4*%
X66040000Y-149860000D03*
%TD*%
%TO.P,REF\u002A\u002A,1*%
%TO.N,N/C*%
X96520000Y-96520000D03*
%TO.P,REF\u002A\u002A,2*%
X99060000Y-96520000D03*
%TO.P,REF\u002A\u002A,3*%
X101600000Y-96520000D03*
%TO.P,REF\u002A\u002A,4*%
X104140000Y-96520000D03*
%TD*%
%TO.P,REF\u002A\u002A,1*%
%TO.N,N/C*%
X96520000Y-149860000D03*
%TO.P,REF\u002A\u002A,2*%
X99060000Y-149860000D03*
%TO.P,REF\u002A\u002A,3*%
X101600000Y-149860000D03*
%TO.P,REF\u002A\u002A,4*%
X104140000Y-149860000D03*
%TD*%
%TO.P,REF\u002A\u002A,1*%
%TO.N,N/C*%
X96520000Y-185420000D03*
%TO.P,REF\u002A\u002A,2*%
X99060000Y-185420000D03*
%TO.P,REF\u002A\u002A,3*%
X101600000Y-185420000D03*
%TO.P,REF\u002A\u002A,4*%
X104140000Y-185420000D03*
%TD*%
%TO.P,,25*%
%TO.N,N/C*%
X83820000Y-228600000D03*
%TD*%
%TO.P,REF\u002A\u002A,1*%
%TO.N,N/C*%
X58420000Y-43180000D03*
%TO.P,REF\u002A\u002A,2*%
X60960000Y-43180000D03*
%TO.P,REF\u002A\u002A,3*%
X63500000Y-43180000D03*
%TO.P,REF\u002A\u002A,4*%
X66040000Y-43180000D03*
%TD*%
%TO.P,REF\u002A\u002A,1*%
%TO.N,N/C*%
X58420000Y-96520000D03*
%TO.P,REF\u002A\u002A,2*%
X60960000Y-96520000D03*
%TO.P,REF\u002A\u002A,3*%
X63500000Y-96520000D03*
%TO.P,REF\u002A\u002A,4*%
X66040000Y-96520000D03*
%TD*%
%TO.P,REF\u002A\u002A,1*%
%TO.N,N/C*%
X20320000Y-25400000D03*
%TO.P,REF\u002A\u002A,2*%
X22860000Y-25400000D03*
%TO.P,REF\u002A\u002A,3*%
X25400000Y-25400000D03*
%TO.P,REF\u002A\u002A,4*%
X27940000Y-25400000D03*
%TD*%
%TO.P,REF\u002A\u002A,1*%
%TO.N,N/C*%
X93980000Y-208280000D03*
%TO.P,REF\u002A\u002A,2*%
X96520000Y-208280000D03*
%TO.P,REF\u002A\u002A,3*%
X99060000Y-208280000D03*
%TO.P,REF\u002A\u002A,4*%
X101600000Y-208280000D03*
%TO.P,REF\u002A\u002A,5*%
X104140000Y-208280000D03*
%TO.P,REF\u002A\u002A,6*%
X106680000Y-208280000D03*
%TO.P,REF\u002A\u002A,7*%
X109220000Y-208280000D03*
%TO.P,REF\u002A\u002A,8*%
X111760000Y-208280000D03*
%TO.P,REF\u002A\u002A,9*%
X114300000Y-208280000D03*
%TO.P,REF\u002A\u002A,10*%
X116840000Y-208280000D03*
%TO.P,REF\u002A\u002A,11*%
X119380000Y-208280000D03*
%TO.P,REF\u002A\u002A,12*%
X121920000Y-208280000D03*
%TO.P,REF\u002A\u002A,13*%
X124460000Y-208280000D03*
%TO.P,REF\u002A\u002A,14*%
X127000000Y-208280000D03*
%TO.P,REF\u002A\u002A,15*%
X129540000Y-208280000D03*
%TO.P,REF\u002A\u002A,16*%
X132080000Y-208280000D03*
%TO.P,REF\u002A\u002A,18*%
X104140000Y-223520000D03*
%TO.P,REF\u002A\u002A,19*%
X106680000Y-223520000D03*
%TO.P,REF\u002A\u002A,20*%
X109220000Y-223520000D03*
%TO.P,REF\u002A\u002A,21*%
X111760000Y-223520000D03*
%TO.P,REF\u002A\u002A,22*%
X114300000Y-223520000D03*
%TO.P,REF\u002A\u002A,23*%
X116840000Y-223520000D03*
%TO.P,REF\u002A\u002A,24*%
X119380000Y-223520000D03*
%TO.P,REF\u002A\u002A,25*%
X121920000Y-223520000D03*
%TD*%
%TO.P,,25*%
%TO.N,N/C*%
X83820000Y-233680000D03*
%TD*%
%TO.P,,25*%
%TO.N,N/C*%
X83820000Y-243840000D03*
%TD*%
%TO.P,REF\u002A\u002A,1*%
%TO.N,N/C*%
X20320000Y-149860000D03*
%TO.P,REF\u002A\u002A,2*%
X22860000Y-149860000D03*
%TO.P,REF\u002A\u002A,3*%
X25400000Y-149860000D03*
%TO.P,REF\u002A\u002A,4*%
X27940000Y-149860000D03*
%TD*%
%TO.P,,25*%
%TO.N,N/C*%
X58420000Y-22860000D03*
%TD*%
%TO.P,REF\u002A\u002A,1*%
%TO.N,N/C*%
X96520000Y-78740000D03*
%TO.P,REF\u002A\u002A,2*%
X99060000Y-78740000D03*
%TO.P,REF\u002A\u002A,3*%
X101600000Y-78740000D03*
%TO.P,REF\u002A\u002A,4*%
X104140000Y-78740000D03*
%TD*%
%TO.P,,25*%
%TO.N,N/C*%
X83820000Y-236220000D03*
%TD*%
%TO.P,,25*%
%TO.N,N/C*%
X58420000Y-17780000D03*
%TD*%
%TO.P,REF\u002A\u002A,1*%
%TO.N,N/C*%
X20320000Y-96520000D03*
%TO.P,REF\u002A\u002A,2*%
X22860000Y-96520000D03*
%TO.P,REF\u002A\u002A,3*%
X25400000Y-96520000D03*
%TO.P,REF\u002A\u002A,4*%
X27940000Y-96520000D03*
%TD*%
%TO.P,REF\u002A\u002A,1*%
%TO.N,N/C*%
X96520000Y-25400000D03*
%TO.P,REF\u002A\u002A,2*%
X99060000Y-25400000D03*
%TO.P,REF\u002A\u002A,3*%
X101600000Y-25400000D03*
%TO.P,REF\u002A\u002A,4*%
X104140000Y-25400000D03*
%TD*%
%TO.P,,25*%
%TO.N,N/C*%
X83820000Y-241300000D03*
%TD*%
%TO.P,,25*%
%TO.N,N/C*%
X96520000Y-17780000D03*
%TD*%
%TO.P,REF\u002A\u002A,1*%
%TO.N,N/C*%
X20320000Y-185420000D03*
%TO.P,REF\u002A\u002A,2*%
X22860000Y-185420000D03*
%TO.P,REF\u002A\u002A,3*%
X25400000Y-185420000D03*
%TO.P,REF\u002A\u002A,4*%
X27940000Y-185420000D03*
%TD*%
%TO.P,REF\u002A\u002A,1*%
%TO.N,N/C*%
X96520000Y-60960000D03*
%TO.P,REF\u002A\u002A,2*%
X99060000Y-60960000D03*
%TO.P,REF\u002A\u002A,3*%
X101600000Y-60960000D03*
%TO.P,REF\u002A\u002A,4*%
X104140000Y-60960000D03*
%TD*%
%TO.P,REF\u002A\u002A,1*%
%TO.N,N/C*%
X96520000Y-167640000D03*
%TO.P,REF\u002A\u002A,2*%
X99060000Y-167640000D03*
%TO.P,REF\u002A\u002A,3*%
X101600000Y-167640000D03*
%TO.P,REF\u002A\u002A,4*%
X104140000Y-167640000D03*
%TD*%
%TO.P,REF\u002A\u002A,1*%
%TO.N,N/C*%
X20320000Y-43180000D03*
%TO.P,REF\u002A\u002A,2*%
X22860000Y-43180000D03*
%TO.P,REF\u002A\u002A,3*%
X25400000Y-43180000D03*
%TO.P,REF\u002A\u002A,4*%
X27940000Y-43180000D03*
%TD*%
%TO.P,,25*%
%TO.N,N/C*%
X119380000Y-20320000D03*
%TD*%
%TO.P,REF\u002A\u002A,1*%
%TO.N,N/C*%
X20320000Y-60960000D03*
%TO.P,REF\u002A\u002A,2*%
X22860000Y-60960000D03*
%TO.P,REF\u002A\u002A,3*%
X25400000Y-60960000D03*
%TO.P,REF\u002A\u002A,4*%
X27940000Y-60960000D03*
%TD*%
%TO.P,,25*%
%TO.N,N/C*%
X96520000Y-22860000D03*
%TD*%
%TO.P,REF\u002A\u002A,1*%
%TO.N,N/C*%
X58420000Y-25400000D03*
%TO.P,REF\u002A\u002A,2*%
X60960000Y-25400000D03*
%TO.P,REF\u002A\u002A,3*%
X63500000Y-25400000D03*
%TO.P,REF\u002A\u002A,4*%
X66040000Y-25400000D03*
%TD*%
%TO.P,,25*%
%TO.N,N/C*%
X83820000Y-238760000D03*
%TD*%
%TO.P,REF\u002A\u002A,1*%
%TO.N,N/C*%
X96520000Y-43180000D03*
%TO.P,REF\u002A\u002A,2*%
X99060000Y-43180000D03*
%TO.P,REF\u002A\u002A,3*%
X101600000Y-43180000D03*
%TO.P,REF\u002A\u002A,4*%
X104140000Y-43180000D03*
%TD*%
%TO.P,,25*%
%TO.N,N/C*%
X119380000Y-17780000D03*
%TD*%
%TO.P,REF\u002A\u002A,1*%
%TO.N,N/C*%
X96520000Y-114300000D03*
%TO.P,REF\u002A\u002A,2*%
X99060000Y-114300000D03*
%TO.P,REF\u002A\u002A,3*%
X101600000Y-114300000D03*
%TO.P,REF\u002A\u002A,4*%
X104140000Y-114300000D03*
%TD*%
%TO.P,REF\u002A\u002A,1*%
%TO.N,N/C*%
X58420000Y-167640000D03*
%TO.P,REF\u002A\u002A,2*%
X60960000Y-167640000D03*
%TO.P,REF\u002A\u002A,3*%
X63500000Y-167640000D03*
%TO.P,REF\u002A\u002A,4*%
X66040000Y-167640000D03*
%TD*%
%TO.P,REF\u002A\u002A,1*%
%TO.N,N/C*%
X20320000Y-78740000D03*
%TO.P,REF\u002A\u002A,2*%
X22860000Y-78740000D03*
%TO.P,REF\u002A\u002A,3*%
X25400000Y-78740000D03*
%TO.P,REF\u002A\u002A,4*%
X27940000Y-78740000D03*
%TD*%
%TO.P,REF\u002A\u002A,1*%
%TO.N,N/C*%
X20320000Y-167640000D03*
%TO.P,REF\u002A\u002A,2*%
X22860000Y-167640000D03*
%TO.P,REF\u002A\u002A,3*%
X25400000Y-167640000D03*
%TO.P,REF\u002A\u002A,4*%
X27940000Y-167640000D03*
%TD*%
%TO.P,REF\u002A\u002A,1*%
%TO.N,N/C*%
X58420000Y-132080000D03*
%TO.P,REF\u002A\u002A,2*%
X60960000Y-132080000D03*
%TO.P,REF\u002A\u002A,3*%
X63500000Y-132080000D03*
%TO.P,REF\u002A\u002A,4*%
X66040000Y-132080000D03*
%TD*%
%TO.P,REF\u002A\u002A,1*%
%TO.N,N/C*%
X30480000Y-208280000D03*
%TO.P,REF\u002A\u002A,2*%
X33020000Y-208280000D03*
%TO.P,REF\u002A\u002A,3*%
X35560000Y-208280000D03*
%TO.P,REF\u002A\u002A,4*%
X38100000Y-208280000D03*
%TO.P,REF\u002A\u002A,5*%
X40640000Y-208280000D03*
%TO.P,REF\u002A\u002A,6*%
X43180000Y-208280000D03*
%TO.P,REF\u002A\u002A,7*%
X45720000Y-208280000D03*
%TO.P,REF\u002A\u002A,8*%
X48260000Y-208280000D03*
%TO.P,REF\u002A\u002A,9*%
X50800000Y-208280000D03*
%TO.P,REF\u002A\u002A,10*%
X53340000Y-208280000D03*
%TO.P,REF\u002A\u002A,11*%
X55880000Y-208280000D03*
%TO.P,REF\u002A\u002A,12*%
X58420000Y-208280000D03*
%TO.P,REF\u002A\u002A,13*%
X60960000Y-208280000D03*
%TO.P,REF\u002A\u002A,14*%
X63500000Y-208280000D03*
%TO.P,REF\u002A\u002A,15*%
X66040000Y-208280000D03*
%TO.P,REF\u002A\u002A,16*%
X68580000Y-208280000D03*
%TO.P,REF\u002A\u002A,18*%
X40640000Y-223520000D03*
%TO.P,REF\u002A\u002A,19*%
X43180000Y-223520000D03*
%TO.P,REF\u002A\u002A,20*%
X45720000Y-223520000D03*
%TO.P,REF\u002A\u002A,21*%
X48260000Y-223520000D03*
%TO.P,REF\u002A\u002A,22*%
X50800000Y-223520000D03*
%TO.P,REF\u002A\u002A,23*%
X53340000Y-223520000D03*
%TO.P,REF\u002A\u002A,24*%
X55880000Y-223520000D03*
%TO.P,REF\u002A\u002A,25*%
X58420000Y-223520000D03*
%TD*%
%TO.P,REF\u002A\u002A,1*%
%TO.N,N/C*%
X20320000Y-132080000D03*
%TO.P,REF\u002A\u002A,2*%
X22860000Y-132080000D03*
%TO.P,REF\u002A\u002A,3*%
X25400000Y-132080000D03*
%TO.P,REF\u002A\u002A,4*%
X27940000Y-132080000D03*
%TD*%
%TO.P,REF\u002A\u002A,1*%
%TO.N,N/C*%
X58420000Y-60960000D03*
%TO.P,REF\u002A\u002A,2*%
X60960000Y-60960000D03*
%TO.P,REF\u002A\u002A,3*%
X63500000Y-60960000D03*
%TO.P,REF\u002A\u002A,4*%
X66040000Y-60960000D03*
%TD*%
%TO.P,,25*%
%TO.N,N/C*%
X83820000Y-231140000D03*
%TD*%
%TO.P,,25*%
%TO.N,N/C*%
X83820000Y-246380000D03*
%TD*%
%TO.P,REF\u002A\u002A,1*%
%TO.N,N/C*%
X58420000Y-185420000D03*
%TO.P,REF\u002A\u002A,2*%
X60960000Y-185420000D03*
%TO.P,REF\u002A\u002A,3*%
X63500000Y-185420000D03*
%TO.P,REF\u002A\u002A,4*%
X66040000Y-185420000D03*
%TD*%
%TO.P,REF\u002A\u002A,1*%
%TO.N,N/C*%
X96520000Y-132080000D03*
%TO.P,REF\u002A\u002A,2*%
X99060000Y-132080000D03*
%TO.P,REF\u002A\u002A,3*%
X101600000Y-132080000D03*
%TO.P,REF\u002A\u002A,4*%
X104140000Y-132080000D03*
%TD*%
%TO.P,REF\u002A\u002A,1*%
%TO.N,N/C*%
X58420000Y-114300000D03*
%TO.P,REF\u002A\u002A,2*%
X60960000Y-114300000D03*
%TO.P,REF\u002A\u002A,3*%
X63500000Y-114300000D03*
%TO.P,REF\u002A\u002A,4*%
X66040000Y-114300000D03*
%TD*%
%TO.P,REF\u002A\u002A,1*%
%TO.N,N/C*%
X58420000Y-78740000D03*
%TO.P,REF\u002A\u002A,2*%
X60960000Y-78740000D03*
%TO.P,REF\u002A\u002A,3*%
X63500000Y-78740000D03*
%TO.P,REF\u002A\u002A,4*%
X66040000Y-78740000D03*
%TD*%
D18*
%TO.N,*%
X104140000Y-223520000D02*
X104140000Y-220980000D01*
X96520000Y-60960000D02*
X96520000Y-43180000D01*
X55880000Y-205740000D02*
X55880000Y-208280000D01*
X55880000Y-246380000D02*
X50800000Y-241300000D01*
X124460000Y-81280000D02*
X104140000Y-60960000D01*
X60960000Y-185420000D02*
X60960000Y-167640000D01*
X93980000Y-198120000D02*
X96520000Y-200660000D01*
X99060000Y-149860000D02*
X99060000Y-167640000D01*
X58420000Y-243840000D02*
X53340000Y-238760000D01*
X58420000Y-205740000D02*
X58420000Y-208280000D01*
X121920000Y-241300000D02*
X60960000Y-241300000D01*
X104140000Y-220980000D02*
X109220000Y-215900000D01*
X109220000Y-218440000D02*
X124460000Y-218440000D01*
X27940000Y-132080000D02*
X38100000Y-142240000D01*
X50800000Y-218440000D02*
X50800000Y-223520000D01*
X116840000Y-223520000D02*
X116840000Y-231140000D01*
X60960000Y-205740000D02*
X60960000Y-208280000D01*
X76200000Y-142240000D02*
X76200000Y-198120000D01*
X96520000Y-78740000D02*
X96520000Y-96520000D01*
X45720000Y-96520000D02*
X45720000Y-208280000D01*
X27940000Y-167640000D02*
X33020000Y-172720000D01*
X121920000Y-236220000D02*
X121920000Y-223520000D01*
X109220000Y-215900000D02*
X124460000Y-215900000D01*
X99060000Y-198120000D02*
X99060000Y-208280000D01*
X99060000Y-20320000D02*
X119380000Y-20320000D01*
X116840000Y-17780000D02*
X119380000Y-17780000D01*
X20320000Y-114300000D02*
X20320000Y-132080000D01*
X81280000Y-198120000D02*
X81280000Y-111760000D01*
X60960000Y-149860000D02*
X60960000Y-167640000D01*
X38100000Y-142240000D02*
X38100000Y-208280000D01*
X48260000Y-81280000D02*
X48260000Y-208280000D01*
X99060000Y-43180000D02*
X99060000Y-60960000D01*
X50800000Y-231140000D02*
X45720000Y-231140000D01*
X66040000Y-43180000D02*
X88900000Y-66040000D01*
X20320000Y-78740000D02*
X20320000Y-60960000D01*
X129540000Y-220980000D02*
X129540000Y-243840000D01*
X66040000Y-132080000D02*
X76200000Y-142240000D01*
X40640000Y-231140000D02*
X40640000Y-223520000D01*
X99060000Y-25400000D02*
X99060000Y-20320000D01*
X99060000Y-25400000D02*
X99060000Y-43180000D01*
X93980000Y-203200000D02*
X91440000Y-200660000D01*
X99060000Y-193040000D02*
X101600000Y-195580000D01*
X104140000Y-43180000D02*
X127000000Y-66040000D01*
X99060000Y-96520000D02*
X99060000Y-114300000D01*
X68580000Y-187960000D02*
X68580000Y-195580000D01*
X58420000Y-223520000D02*
X58420000Y-233680000D01*
X20320000Y-60960000D02*
X20320000Y-43180000D01*
X71120000Y-200660000D02*
X66040000Y-200660000D01*
X96520000Y-43180000D02*
X96520000Y-25400000D01*
X96520000Y-200660000D02*
X96520000Y-208280000D01*
X53340000Y-233680000D02*
X50800000Y-231140000D01*
X43180000Y-228600000D02*
X43180000Y-223520000D01*
X101600000Y-195580000D02*
X101600000Y-208280000D01*
X58420000Y-114300000D02*
X58420000Y-132080000D01*
X86360000Y-81280000D02*
X86360000Y-193040000D01*
X66040000Y-114300000D02*
X78740000Y-127000000D01*
X22860000Y-78740000D02*
X22860000Y-96520000D01*
X27940000Y-185420000D02*
X30480000Y-187960000D01*
X20320000Y-96520000D02*
X20320000Y-114300000D01*
X20320000Y-43180000D02*
X20320000Y-25400000D01*
X127000000Y-241300000D02*
X124460000Y-243840000D01*
X96520000Y-195580000D02*
X99060000Y-198120000D01*
X48260000Y-233680000D02*
X43180000Y-233680000D01*
X111760000Y-226060000D02*
X109220000Y-228600000D01*
X22860000Y-149860000D02*
X22860000Y-167640000D01*
X66040000Y-149860000D02*
X73660000Y-157480000D01*
X109220000Y-228600000D02*
X73660000Y-228600000D01*
X50800000Y-236220000D02*
X48260000Y-233680000D01*
X53340000Y-228600000D02*
X48260000Y-228600000D01*
X127000000Y-246380000D02*
X55880000Y-246380000D01*
X93980000Y-208280000D02*
X93980000Y-203200000D01*
X106680000Y-187960000D02*
X106680000Y-208280000D01*
X60960000Y-60960000D02*
X60960000Y-78740000D01*
X45720000Y-231140000D02*
X43180000Y-228600000D01*
X91440000Y-187960000D02*
X93980000Y-190500000D01*
X124460000Y-243840000D02*
X58420000Y-243840000D01*
X76200000Y-198120000D02*
X71120000Y-203200000D01*
X114300000Y-208280000D02*
X114300000Y-142240000D01*
X66040000Y-226060000D02*
X66040000Y-218440000D01*
X55880000Y-223520000D02*
X55880000Y-220980000D01*
X60960000Y-78740000D02*
X60960000Y-96520000D01*
X27940000Y-60960000D02*
X48260000Y-81280000D01*
X93980000Y-190500000D02*
X101600000Y-190500000D01*
X124460000Y-208280000D02*
X124460000Y-81280000D01*
X99060000Y-185420000D02*
X99060000Y-167640000D01*
X22860000Y-43180000D02*
X22860000Y-60960000D01*
X22860000Y-132080000D02*
X22860000Y-114300000D01*
X116840000Y-231140000D02*
X114300000Y-233680000D01*
X22860000Y-60960000D02*
X22860000Y-78740000D01*
X58420000Y-25400000D02*
X58420000Y-22860000D01*
X58420000Y-96520000D02*
X58420000Y-114300000D01*
X88900000Y-66040000D02*
X88900000Y-190500000D01*
X86360000Y-193040000D02*
X88900000Y-195580000D01*
X124460000Y-218440000D02*
X127000000Y-220980000D01*
X22860000Y-132080000D02*
X22860000Y-149860000D01*
X81280000Y-111760000D02*
X66040000Y-96520000D01*
X124460000Y-220980000D02*
X124460000Y-238760000D01*
X22860000Y-25400000D02*
X22860000Y-43180000D01*
X60960000Y-25400000D02*
X60960000Y-43180000D01*
X27940000Y-114300000D02*
X40640000Y-127000000D01*
X73660000Y-157480000D02*
X73660000Y-198120000D01*
X50800000Y-213360000D02*
X48260000Y-215900000D01*
X25400000Y-20320000D02*
X60960000Y-20320000D01*
X63500000Y-238760000D02*
X119380000Y-238760000D01*
X66040000Y-25400000D02*
X91440000Y-50800000D01*
X60960000Y-241300000D02*
X55880000Y-236220000D01*
X96520000Y-114300000D02*
X96520000Y-132080000D01*
X88900000Y-190500000D02*
X91440000Y-193040000D01*
X66040000Y-198120000D02*
X58420000Y-205740000D01*
X63500000Y-228600000D02*
X63500000Y-220980000D01*
X53340000Y-238760000D02*
X53340000Y-233680000D01*
X99060000Y-78740000D02*
X99060000Y-96520000D01*
X109220000Y-223520000D02*
X109220000Y-220980000D01*
X66040000Y-185420000D02*
X68580000Y-187960000D01*
X68580000Y-223520000D02*
X68580000Y-215900000D01*
X86360000Y-198120000D02*
X93980000Y-198120000D01*
X96520000Y-78740000D02*
X96520000Y-60960000D01*
X111760000Y-223520000D02*
X111760000Y-226060000D01*
X50800000Y-241300000D02*
X50800000Y-236220000D01*
X48260000Y-215900000D02*
X48260000Y-223520000D01*
X30480000Y-187960000D02*
X30480000Y-208280000D01*
X114300000Y-223520000D02*
X114300000Y-228600000D01*
X66040000Y-203200000D02*
X63500000Y-205740000D01*
X63500000Y-220980000D02*
X60960000Y-218440000D01*
X78740000Y-198120000D02*
X71120000Y-205740000D01*
X27940000Y-149860000D02*
X35560000Y-157480000D01*
X116840000Y-236220000D02*
X119380000Y-233680000D01*
X66040000Y-218440000D02*
X63500000Y-215900000D01*
X121920000Y-96520000D02*
X121920000Y-208280000D01*
X91440000Y-50800000D02*
X91440000Y-187960000D01*
X104140000Y-114300000D02*
X116840000Y-127000000D01*
X68580000Y-215900000D02*
X66040000Y-213360000D01*
X104140000Y-193040000D02*
X104140000Y-208280000D01*
X109220000Y-220980000D02*
X124460000Y-220980000D01*
X63500000Y-205740000D02*
X63500000Y-208280000D01*
X27940000Y-25400000D02*
X53340000Y-50800000D01*
X20320000Y-185420000D02*
X20320000Y-167640000D01*
X114300000Y-142240000D02*
X104140000Y-132080000D01*
X71120000Y-203200000D02*
X66040000Y-203200000D01*
X53340000Y-50800000D02*
X53340000Y-208280000D01*
X58420000Y-78740000D02*
X58420000Y-60960000D01*
X66040000Y-167640000D02*
X71120000Y-172720000D01*
X58420000Y-149860000D02*
X58420000Y-132080000D01*
X109220000Y-172720000D02*
X104140000Y-167640000D01*
X63500000Y-215900000D02*
X53340000Y-215900000D01*
X60960000Y-218440000D02*
X55880000Y-218440000D01*
X119380000Y-233680000D02*
X119380000Y-223520000D01*
X50800000Y-66040000D02*
X50800000Y-208280000D01*
X66040000Y-205740000D02*
X66040000Y-208280000D01*
X27940000Y-96520000D02*
X43180000Y-111760000D01*
X119380000Y-111760000D02*
X104140000Y-96520000D01*
X127000000Y-220980000D02*
X127000000Y-241300000D01*
X104140000Y-185420000D02*
X106680000Y-187960000D01*
X68580000Y-195580000D02*
X66040000Y-195580000D01*
X71120000Y-172720000D02*
X71120000Y-198120000D01*
X33020000Y-172720000D02*
X33020000Y-208280000D01*
X58420000Y-43180000D02*
X58420000Y-25400000D01*
X60960000Y-231140000D02*
X66040000Y-236220000D01*
X83820000Y-195580000D02*
X86360000Y-198120000D01*
X55880000Y-231140000D02*
X53340000Y-228600000D01*
X119380000Y-238760000D02*
X121920000Y-236220000D01*
X66040000Y-236220000D02*
X116840000Y-236220000D01*
X66040000Y-60960000D02*
X86360000Y-81280000D01*
X119380000Y-208280000D02*
X119380000Y-111760000D01*
X22860000Y-96520000D02*
X22860000Y-114300000D01*
X83820000Y-200660000D02*
X81280000Y-198120000D01*
X96520000Y-185420000D02*
X96520000Y-167640000D01*
X27940000Y-78740000D02*
X45720000Y-96520000D01*
X43180000Y-111760000D02*
X43180000Y-208280000D01*
X60960000Y-132080000D02*
X60960000Y-149860000D01*
X58420000Y-185420000D02*
X58420000Y-167640000D01*
X127000000Y-66040000D02*
X127000000Y-208280000D01*
X106680000Y-223520000D02*
X106680000Y-220980000D01*
X27940000Y-43180000D02*
X50800000Y-66040000D01*
X129540000Y-243840000D02*
X127000000Y-246380000D01*
X109220000Y-208280000D02*
X109220000Y-172720000D01*
X58420000Y-233680000D02*
X63500000Y-238760000D01*
X73660000Y-198120000D02*
X71120000Y-200660000D01*
X60960000Y-43180000D02*
X60960000Y-60960000D01*
X20320000Y-20320000D02*
X22860000Y-17780000D01*
X99060000Y-60960000D02*
X99060000Y-78740000D01*
X53340000Y-220980000D02*
X53340000Y-223520000D01*
X114300000Y-228600000D02*
X111760000Y-231140000D01*
X88900000Y-195580000D02*
X96520000Y-195580000D01*
X129540000Y-208280000D02*
X129540000Y-50800000D01*
X91440000Y-200660000D02*
X83820000Y-200660000D01*
X66040000Y-78740000D02*
X83820000Y-96520000D01*
X71120000Y-231140000D02*
X66040000Y-226060000D01*
X99060000Y-132080000D02*
X99060000Y-114300000D01*
X129540000Y-50800000D02*
X104140000Y-25400000D01*
X96520000Y-167640000D02*
X96520000Y-149860000D01*
X66040000Y-200660000D02*
X60960000Y-205740000D01*
X111760000Y-231140000D02*
X71120000Y-231140000D01*
X58420000Y-167640000D02*
X58420000Y-149860000D01*
X99060000Y-132080000D02*
X99060000Y-149860000D01*
X96520000Y-22860000D02*
X96520000Y-25400000D01*
X60960000Y-96520000D02*
X60960000Y-114300000D01*
X40640000Y-127000000D02*
X40640000Y-208280000D01*
X53340000Y-215900000D02*
X50800000Y-218440000D01*
X73660000Y-228600000D02*
X68580000Y-223520000D01*
X104140000Y-149860000D02*
X111760000Y-157480000D01*
X58420000Y-78740000D02*
X58420000Y-96520000D01*
X55880000Y-220980000D02*
X60960000Y-220980000D01*
X68580000Y-233680000D02*
X63500000Y-228600000D01*
X48260000Y-228600000D02*
X45720000Y-226060000D01*
X60960000Y-25400000D02*
X60960000Y-20320000D01*
X101600000Y-190500000D02*
X104140000Y-193040000D01*
X114300000Y-233680000D02*
X68580000Y-233680000D01*
X60960000Y-20320000D02*
X99060000Y-20320000D01*
X22860000Y-22860000D02*
X25400000Y-20320000D01*
X60960000Y-132080000D02*
X60960000Y-114300000D01*
X60960000Y-220980000D02*
X60960000Y-231140000D01*
X71120000Y-205740000D02*
X66040000Y-205740000D01*
X58420000Y-60960000D02*
X58420000Y-43180000D01*
X66040000Y-195580000D02*
X55880000Y-205740000D01*
X45720000Y-226060000D02*
X45720000Y-223520000D01*
X83820000Y-96520000D02*
X83820000Y-195580000D01*
X22860000Y-17780000D02*
X116840000Y-17780000D01*
X96520000Y-149860000D02*
X96520000Y-132080000D01*
X78740000Y-127000000D02*
X78740000Y-198120000D01*
X55880000Y-218440000D02*
X53340000Y-220980000D01*
X124460000Y-238760000D02*
X121920000Y-241300000D01*
X43180000Y-233680000D02*
X40640000Y-231140000D01*
X20320000Y-78740000D02*
X20320000Y-96520000D01*
X20320000Y-167640000D02*
X20320000Y-149860000D01*
X104140000Y-78740000D02*
X121920000Y-96520000D01*
X66040000Y-213360000D02*
X50800000Y-213360000D01*
X96520000Y-96520000D02*
X96520000Y-114300000D01*
X55880000Y-236220000D02*
X55880000Y-231140000D01*
X20320000Y-149860000D02*
X20320000Y-132080000D01*
X71120000Y-198120000D02*
X66040000Y-198120000D01*
X35560000Y-157480000D02*
X35560000Y-208280000D01*
X106680000Y-220980000D02*
X109220000Y-218440000D01*
X22860000Y-185420000D02*
X22860000Y-167640000D01*
X124460000Y-215900000D02*
X129540000Y-220980000D01*
X111760000Y-157480000D02*
X111760000Y-208280000D01*
X20320000Y-25400000D02*
X20320000Y-20320000D01*
X22860000Y-25400000D02*
X22860000Y-22860000D01*
X116840000Y-127000000D02*
X116840000Y-208280000D01*
X91440000Y-193040000D02*
X99060000Y-193040000D01*
%TD*%
D17*
%TO.P,REF\u002A\u002A,1*%
%TO.N,N/C*%
X20320000Y-114300000D03*
%TO.P,REF\u002A\u002A,2*%
X22860000Y-114300000D03*
%TO.P,REF\u002A\u002A,3*%
X25400000Y-114300000D03*
%TO.P,REF\u002A\u002A,4*%
X27940000Y-114300000D03*
%TD*%
%TO.P,REF\u002A\u002A,1*%
%TO.N,N/C*%
X58420000Y-149860000D03*
%TO.P,REF\u002A\u002A,2*%
X60960000Y-149860000D03*
%TO.P,REF\u002A\u002A,3*%
X63500000Y-149860000D03*
%TO.P,REF\u002A\u002A,4*%
X66040000Y-149860000D03*
%TD*%
%TO.P,REF\u002A\u002A,1*%
%TO.N,N/C*%
X96520000Y-96520000D03*
%TO.P,REF\u002A\u002A,2*%
X99060000Y-96520000D03*
%TO.P,REF\u002A\u002A,3*%
X101600000Y-96520000D03*
%TO.P,REF\u002A\u002A,4*%
X104140000Y-96520000D03*
%TD*%
%TO.P,REF\u002A\u002A,1*%
%TO.N,N/C*%
X96520000Y-149860000D03*
%TO.P,REF\u002A\u002A,2*%
X99060000Y-149860000D03*
%TO.P,REF\u002A\u002A,3*%
X101600000Y-149860000D03*
%TO.P,REF\u002A\u002A,4*%
X104140000Y-149860000D03*
%TD*%
%TO.P,REF\u002A\u002A,1*%
%TO.N,N/C*%
X96520000Y-185420000D03*
%TO.P,REF\u002A\u002A,2*%
X99060000Y-185420000D03*
%TO.P,REF\u002A\u002A,3*%
X101600000Y-185420000D03*
%TO.P,REF\u002A\u002A,4*%
X104140000Y-185420000D03*
%TD*%
%TO.P,,25*%
%TO.N,N/C*%
X83820000Y-228600000D03*
%TD*%
%TO.P,REF\u002A\u002A,1*%
%TO.N,N/C*%
X58420000Y-43180000D03*
%TO.P,REF\u002A\u002A,2*%
X60960000Y-43180000D03*
%TO.P,REF\u002A\u002A,3*%
X63500000Y-43180000D03*
%TO.P,REF\u002A\u002A,4*%
X66040000Y-43180000D03*
%TD*%
%TO.P,REF\u002A\u002A,1*%
%TO.N,N/C*%
X58420000Y-96520000D03*
%TO.P,REF\u002A\u002A,2*%
X60960000Y-96520000D03*
%TO.P,REF\u002A\u002A,3*%
X63500000Y-96520000D03*
%TO.P,REF\u002A\u002A,4*%
X66040000Y-96520000D03*
%TD*%
%TO.P,REF\u002A\u002A,1*%
%TO.N,N/C*%
X20320000Y-25400000D03*
%TO.P,REF\u002A\u002A,2*%
X22860000Y-25400000D03*
%TO.P,REF\u002A\u002A,3*%
X25400000Y-25400000D03*
%TO.P,REF\u002A\u002A,4*%
X27940000Y-25400000D03*
%TD*%
%TO.P,REF\u002A\u002A,1*%
%TO.N,N/C*%
X93980000Y-208280000D03*
%TO.P,REF\u002A\u002A,2*%
X96520000Y-208280000D03*
%TO.P,REF\u002A\u002A,3*%
X99060000Y-208280000D03*
%TO.P,REF\u002A\u002A,4*%
X101600000Y-208280000D03*
%TO.P,REF\u002A\u002A,5*%
X104140000Y-208280000D03*
%TO.P,REF\u002A\u002A,6*%
X106680000Y-208280000D03*
%TO.P,REF\u002A\u002A,7*%
X109220000Y-208280000D03*
%TO.P,REF\u002A\u002A,8*%
X111760000Y-208280000D03*
%TO.P,REF\u002A\u002A,9*%
X114300000Y-208280000D03*
%TO.P,REF\u002A\u002A,10*%
X116840000Y-208280000D03*
%TO.P,REF\u002A\u002A,11*%
X119380000Y-208280000D03*
%TO.P,REF\u002A\u002A,12*%
X121920000Y-208280000D03*
%TO.P,REF\u002A\u002A,13*%
X124460000Y-208280000D03*
%TO.P,REF\u002A\u002A,14*%
X127000000Y-208280000D03*
%TO.P,REF\u002A\u002A,15*%
X129540000Y-208280000D03*
%TO.P,REF\u002A\u002A,16*%
X132080000Y-208280000D03*
%TO.P,REF\u002A\u002A,18*%
X104140000Y-223520000D03*
%TO.P,REF\u002A\u002A,19*%
X106680000Y-223520000D03*
%TO.P,REF\u002A\u002A,20*%
X109220000Y-223520000D03*
%TO.P,REF\u002A\u002A,21*%
X111760000Y-223520000D03*
%TO.P,REF\u002A\u002A,22*%
X114300000Y-223520000D03*
%TO.P,REF\u002A\u002A,23*%
X116840000Y-223520000D03*
%TO.P,REF\u002A\u002A,24*%
X119380000Y-223520000D03*
%TO.P,REF\u002A\u002A,25*%
X121920000Y-223520000D03*
%TD*%
%TO.P,,25*%
%TO.N,N/C*%
X83820000Y-233680000D03*
%TD*%
%TO.P,,25*%
%TO.N,N/C*%
X83820000Y-243840000D03*
%TD*%
%TO.P,REF\u002A\u002A,1*%
%TO.N,N/C*%
X20320000Y-149860000D03*
%TO.P,REF\u002A\u002A,2*%
X22860000Y-149860000D03*
%TO.P,REF\u002A\u002A,3*%
X25400000Y-149860000D03*
%TO.P,REF\u002A\u002A,4*%
X27940000Y-149860000D03*
%TD*%
%TO.P,,25*%
%TO.N,N/C*%
X58420000Y-22860000D03*
%TD*%
%TO.P,REF\u002A\u002A,1*%
%TO.N,N/C*%
X96520000Y-78740000D03*
%TO.P,REF\u002A\u002A,2*%
X99060000Y-78740000D03*
%TO.P,REF\u002A\u002A,3*%
X101600000Y-78740000D03*
%TO.P,REF\u002A\u002A,4*%
X104140000Y-78740000D03*
%TD*%
%TO.P,,25*%
%TO.N,N/C*%
X83820000Y-236220000D03*
%TD*%
%TO.P,,25*%
%TO.N,N/C*%
X58420000Y-17780000D03*
%TD*%
%TO.P,REF\u002A\u002A,1*%
%TO.N,N/C*%
X20320000Y-96520000D03*
%TO.P,REF\u002A\u002A,2*%
X22860000Y-96520000D03*
%TO.P,REF\u002A\u002A,3*%
X25400000Y-96520000D03*
%TO.P,REF\u002A\u002A,4*%
X27940000Y-96520000D03*
%TD*%
%TO.P,REF\u002A\u002A,1*%
%TO.N,N/C*%
X96520000Y-25400000D03*
%TO.P,REF\u002A\u002A,2*%
X99060000Y-25400000D03*
%TO.P,REF\u002A\u002A,3*%
X101600000Y-25400000D03*
%TO.P,REF\u002A\u002A,4*%
X104140000Y-25400000D03*
%TD*%
%TO.P,,25*%
%TO.N,N/C*%
X83820000Y-241300000D03*
%TD*%
%TO.P,,25*%
%TO.N,N/C*%
X96520000Y-17780000D03*
%TD*%
%TO.P,REF\u002A\u002A,1*%
%TO.N,N/C*%
X20320000Y-185420000D03*
%TO.P,REF\u002A\u002A,2*%
X22860000Y-185420000D03*
%TO.P,REF\u002A\u002A,3*%
X25400000Y-185420000D03*
%TO.P,REF\u002A\u002A,4*%
X27940000Y-185420000D03*
%TD*%
%TO.P,REF\u002A\u002A,1*%
%TO.N,N/C*%
X96520000Y-60960000D03*
%TO.P,REF\u002A\u002A,2*%
X99060000Y-60960000D03*
%TO.P,REF\u002A\u002A,3*%
X101600000Y-60960000D03*
%TO.P,REF\u002A\u002A,4*%
X104140000Y-60960000D03*
%TD*%
%TO.P,REF\u002A\u002A,1*%
%TO.N,N/C*%
X96520000Y-167640000D03*
%TO.P,REF\u002A\u002A,2*%
X99060000Y-167640000D03*
%TO.P,REF\u002A\u002A,3*%
X101600000Y-167640000D03*
%TO.P,REF\u002A\u002A,4*%
X104140000Y-167640000D03*
%TD*%
%TO.P,REF\u002A\u002A,1*%
%TO.N,N/C*%
X20320000Y-43180000D03*
%TO.P,REF\u002A\u002A,2*%
X22860000Y-43180000D03*
%TO.P,REF\u002A\u002A,3*%
X25400000Y-43180000D03*
%TO.P,REF\u002A\u002A,4*%
X27940000Y-43180000D03*
%TD*%
%TO.P,,25*%
%TO.N,N/C*%
X119380000Y-20320000D03*
%TD*%
%TO.P,REF\u002A\u002A,1*%
%TO.N,N/C*%
X20320000Y-60960000D03*
%TO.P,REF\u002A\u002A,2*%
X22860000Y-60960000D03*
%TO.P,REF\u002A\u002A,3*%
X25400000Y-60960000D03*
%TO.P,REF\u002A\u002A,4*%
X27940000Y-60960000D03*
%TD*%
%TO.P,,25*%
%TO.N,N/C*%
X96520000Y-22860000D03*
%TD*%
%TO.P,REF\u002A\u002A,1*%
%TO.N,N/C*%
X58420000Y-25400000D03*
%TO.P,REF\u002A\u002A,2*%
X60960000Y-25400000D03*
%TO.P,REF\u002A\u002A,3*%
X63500000Y-25400000D03*
%TO.P,REF\u002A\u002A,4*%
X66040000Y-25400000D03*
%TD*%
%TO.P,,25*%
%TO.N,N/C*%
X83820000Y-238760000D03*
%TD*%
%TO.P,REF\u002A\u002A,1*%
%TO.N,N/C*%
X96520000Y-43180000D03*
%TO.P,REF\u002A\u002A,2*%
X99060000Y-43180000D03*
%TO.P,REF\u002A\u002A,3*%
X101600000Y-43180000D03*
%TO.P,REF\u002A\u002A,4*%
X104140000Y-43180000D03*
%TD*%
%TO.P,,25*%
%TO.N,N/C*%
X119380000Y-17780000D03*
%TD*%
%TO.P,REF\u002A\u002A,1*%
%TO.N,N/C*%
X96520000Y-114300000D03*
%TO.P,REF\u002A\u002A,2*%
X99060000Y-114300000D03*
%TO.P,REF\u002A\u002A,3*%
X101600000Y-114300000D03*
%TO.P,REF\u002A\u002A,4*%
X104140000Y-114300000D03*
%TD*%
%TO.P,REF\u002A\u002A,1*%
%TO.N,N/C*%
X58420000Y-167640000D03*
%TO.P,REF\u002A\u002A,2*%
X60960000Y-167640000D03*
%TO.P,REF\u002A\u002A,3*%
X63500000Y-167640000D03*
%TO.P,REF\u002A\u002A,4*%
X66040000Y-167640000D03*
%TD*%
%TO.P,REF\u002A\u002A,1*%
%TO.N,N/C*%
X20320000Y-78740000D03*
%TO.P,REF\u002A\u002A,2*%
X22860000Y-78740000D03*
%TO.P,REF\u002A\u002A,3*%
X25400000Y-78740000D03*
%TO.P,REF\u002A\u002A,4*%
X27940000Y-78740000D03*
%TD*%
%TO.P,REF\u002A\u002A,1*%
%TO.N,N/C*%
X20320000Y-167640000D03*
%TO.P,REF\u002A\u002A,2*%
X22860000Y-167640000D03*
%TO.P,REF\u002A\u002A,3*%
X25400000Y-167640000D03*
%TO.P,REF\u002A\u002A,4*%
X27940000Y-167640000D03*
%TD*%
%TO.P,REF\u002A\u002A,1*%
%TO.N,N/C*%
X58420000Y-132080000D03*
%TO.P,REF\u002A\u002A,2*%
X60960000Y-132080000D03*
%TO.P,REF\u002A\u002A,3*%
X63500000Y-132080000D03*
%TO.P,REF\u002A\u002A,4*%
X66040000Y-132080000D03*
%TD*%
%TO.P,REF\u002A\u002A,1*%
%TO.N,N/C*%
X30480000Y-208280000D03*
%TO.P,REF\u002A\u002A,2*%
X33020000Y-208280000D03*
%TO.P,REF\u002A\u002A,3*%
X35560000Y-208280000D03*
%TO.P,REF\u002A\u002A,4*%
X38100000Y-208280000D03*
%TO.P,REF\u002A\u002A,5*%
X40640000Y-208280000D03*
%TO.P,REF\u002A\u002A,6*%
X43180000Y-208280000D03*
%TO.P,REF\u002A\u002A,7*%
X45720000Y-208280000D03*
%TO.P,REF\u002A\u002A,8*%
X48260000Y-208280000D03*
%TO.P,REF\u002A\u002A,9*%
X50800000Y-208280000D03*
%TO.P,REF\u002A\u002A,10*%
X53340000Y-208280000D03*
%TO.P,REF\u002A\u002A,11*%
X55880000Y-208280000D03*
%TO.P,REF\u002A\u002A,12*%
X58420000Y-208280000D03*
%TO.P,REF\u002A\u002A,13*%
X60960000Y-208280000D03*
%TO.P,REF\u002A\u002A,14*%
X63500000Y-208280000D03*
%TO.P,REF\u002A\u002A,15*%
X66040000Y-208280000D03*
%TO.P,REF\u002A\u002A,16*%
X68580000Y-208280000D03*
%TO.P,REF\u002A\u002A,18*%
X40640000Y-223520000D03*
%TO.P,REF\u002A\u002A,19*%
X43180000Y-223520000D03*
%TO.P,REF\u002A\u002A,20*%
X45720000Y-223520000D03*
%TO.P,REF\u002A\u002A,21*%
X48260000Y-223520000D03*
%TO.P,REF\u002A\u002A,22*%
X50800000Y-223520000D03*
%TO.P,REF\u002A\u002A,23*%
X53340000Y-223520000D03*
%TO.P,REF\u002A\u002A,24*%
X55880000Y-223520000D03*
%TO.P,REF\u002A\u002A,25*%
X58420000Y-223520000D03*
%TD*%
%TO.P,REF\u002A\u002A,1*%
%TO.N,N/C*%
X20320000Y-132080000D03*
%TO.P,REF\u002A\u002A,2*%
X22860000Y-132080000D03*
%TO.P,REF\u002A\u002A,3*%
X25400000Y-132080000D03*
%TO.P,REF\u002A\u002A,4*%
X27940000Y-132080000D03*
%TD*%
%TO.P,REF\u002A\u002A,1*%
%TO.N,N/C*%
X58420000Y-60960000D03*
%TO.P,REF\u002A\u002A,2*%
X60960000Y-60960000D03*
%TO.P,REF\u002A\u002A,3*%
X63500000Y-60960000D03*
%TO.P,REF\u002A\u002A,4*%
X66040000Y-60960000D03*
%TD*%
%TO.P,,25*%
%TO.N,N/C*%
X83820000Y-231140000D03*
%TD*%
%TO.P,,25*%
%TO.N,N/C*%
X83820000Y-246380000D03*
%TD*%
%TO.P,REF\u002A\u002A,1*%
%TO.N,N/C*%
X58420000Y-185420000D03*
%TO.P,REF\u002A\u002A,2*%
X60960000Y-185420000D03*
%TO.P,REF\u002A\u002A,3*%
X63500000Y-185420000D03*
%TO.P,REF\u002A\u002A,4*%
X66040000Y-185420000D03*
%TD*%
%TO.P,REF\u002A\u002A,1*%
%TO.N,N/C*%
X96520000Y-132080000D03*
%TO.P,REF\u002A\u002A,2*%
X99060000Y-132080000D03*
%TO.P,REF\u002A\u002A,3*%
X101600000Y-132080000D03*
%TO.P,REF\u002A\u002A,4*%
X104140000Y-132080000D03*
%TD*%
%TO.P,REF\u002A\u002A,1*%
%TO.N,N/C*%
X58420000Y-114300000D03*
%TO.P,REF\u002A\u002A,2*%
X60960000Y-114300000D03*
%TO.P,REF\u002A\u002A,3*%
X63500000Y-114300000D03*
%TO.P,REF\u002A\u002A,4*%
X66040000Y-114300000D03*
%TD*%
%TO.P,REF\u002A\u002A,1*%
%TO.N,N/C*%
X58420000Y-78740000D03*
%TO.P,REF\u002A\u002A,2*%
X60960000Y-78740000D03*
%TO.P,REF\u002A\u002A,3*%
X63500000Y-78740000D03*
%TO.P,REF\u002A\u002A,4*%
X66040000Y-78740000D03*
%TD*%
D19*
X10160000Y-10160000D02*
X139700000Y-10160000D01*
X139700000Y-248920000D01*
X10160000Y-248920000D01*
X10160000Y-10160000D01*
M02*
